<svg width="4096" height="1640" viewBox="0 0 4096 1640" fill="none" xmlns="http://www.w3.org/2000/svg">
<path d="M1190 819.5C1190 1090.95 968.381 1311 695 1311C421.619 1311 200 1090.95 200 819.5C200 548.052 421.619 328 695 328C968.381 328 1190 548.052 1190 819.5ZM270.734 819.5C270.734 1052.16 460.684 1240.77 695 1240.77C929.316 1240.77 1119.27 1052.16 1119.27 819.5C1119.27 586.841 929.316 398.233 695 398.233C460.684 398.233 270.734 586.841 270.734 819.5Z" fill="#25AFE1"/>
<path d="M1044.64 1117.29C1041.36 1114.02 1037.47 1111.43 1033.18 1109.66C1028.89 1107.89 1024.3 1106.98 1019.65 1106.98C1015.01 1106.98 1010.42 1107.89 1006.13 1109.66C1001.84 1111.43 997.948 1114.02 994.667 1117.29C914.78 1196.83 808.577 1240.62 695.609 1240.62C462.408 1240.62 272.684 1051.71 272.684 819.5C272.684 587.295 462.408 398.382 695.609 398.382C807.149 398.382 912.398 441.238 991.96 519.06C998.686 525.4 1007.64 528.859 1016.9 528.692C1026.16 528.525 1034.99 524.745 1041.48 518.166C1047.97 511.586 1051.61 502.733 1051.61 493.51C1051.62 484.288 1047.98 475.432 1041.5 468.849C948.631 378.021 825.796 328 695.609 328C423.433 328 202 548.486 202 819.5C202 1090.51 423.433 1311 695.609 1311C827.457 1311 951.409 1259.87 1044.64 1167.04C1047.92 1163.78 1050.53 1159.9 1052.31 1155.63C1054.09 1151.36 1055 1146.78 1055 1142.16C1055 1137.54 1054.09 1132.97 1052.31 1128.7C1050.53 1124.43 1047.92 1120.55 1044.64 1117.29Z" fill="#1F4EAD"/>
<path d="M913.668 574.476C905.751 565.48 894.586 559.995 882.627 559.226C870.667 558.457 858.892 562.468 849.888 570.377C812.42 603.459 746.907 703.631 705.728 811.955C696.215 836.988 687.872 862.666 681.275 888.368C650.141 839.928 624.11 810.843 592.749 775.742C571.171 751.617 546.855 724.409 515.536 684.204C511.91 679.51 507.394 675.576 502.247 672.628C497.1 669.679 491.422 667.774 485.539 667.021C479.655 666.268 473.68 666.682 467.957 668.239C462.233 669.796 456.872 672.465 452.181 676.095C442.705 683.428 436.53 694.224 435.012 706.109C433.495 717.995 436.76 729.996 444.089 739.474C476.717 781.371 502.467 810.168 525.306 835.727C572.772 888.792 606.739 926.816 671.977 1057.2C679.739 1076.44 700.069 1088.44 721.385 1084.89C733.223 1082.91 743.792 1076.32 750.77 1066.55C757.748 1056.79 760.562 1044.65 758.596 1032.81C749.626 978.925 765.277 909.898 790.298 844.087C826.541 748.791 880.21 664.161 909.563 638.232C918.561 630.322 924.049 619.161 924.819 607.205C925.589 595.248 921.578 583.475 913.668 574.476Z" fill="#1F4EAD"/>
<path d="M617.511 512.358C604.554 515.535 608.078 531.483 618.729 526.19C618.919 526.19 680.577 505.47 720.986 569.678C725.951 577.567 732.587 567.358 729.895 561.755C721.387 544.044 684.687 495.879 617.509 512.356L617.511 512.358ZM588.21 645.161C580.567 596.054 601.143 563.503 626.744 556.904C687.68 541.196 717.828 616.316 717.828 655.832C717.828 694.39 690.312 711.369 670.699 709.648C637.745 706.754 622.229 672.284 617.441 645.446C616.271 638.905 607.191 588.561 647.882 588.257C675.593 588.053 691.172 636.013 689.354 654.494C688.165 666.57 682.498 679.183 669.673 678.057C652.575 676.557 646.303 651.982 645.44 642.272C645.25 640.731 641.75 621.688 651.061 623.299C657.483 624.411 659.054 636.365 659.274 637.147C660.169 640.014 660.777 643.617 661.146 646.946C661.537 649.768 660.899 653.007 662.033 656.149C663.145 659.798 666.341 661.852 669.109 662.096C671.371 662.294 675.691 659.98 675.837 656.442C676.13 637.624 668.251 604.139 646.048 606.109C633.562 607.216 626.977 621.508 630.534 644.553C633.999 666.996 645.684 691.672 668.783 693.698C694.178 695.928 704.406 672.772 704.406 655.324C704.406 605.572 670.758 559.911 630.993 573.579C608.157 581.428 594.298 606.288 602.098 646.832C610.183 688.864 635.051 727.43 671.133 726.385C737.191 724.47 732.603 654.109 732.603 654.109C732.603 589.456 680.219 514.654 613.04 543.781C585.345 555.792 563.684 596.288 571.861 645.696C592.605 771.032 683.184 756.634 687.414 755.983L687.731 756.018C702.184 753.926 699.229 737.81 688.654 739.62C628.681 749.889 596.303 697.166 588.21 645.161Z" fill="#1F4EAD"/>
<path d="M1549.79 996.646C1567.73 1006.03 1588.66 1010.79 1612.48 1010.79C1636.01 1010.79 1656.71 1006.03 1674.66 996.646C1692.68 987.19 1706.6 973.936 1716.58 956.81C1726.55 939.759 1731.54 920.177 1731.54 898.137V895.456C1731.54 894.042 1729.76 893.297 1726.18 893.297L1716.06 892.776C1712.48 892.776 1710.69 894.414 1710.69 897.616V898.658C1710.69 926.431 1701.61 948.918 1683.52 966.192C1665.35 983.467 1641.67 992.104 1612.48 992.104C1582.63 992.104 1558.65 983.467 1540.7 966.192C1522.76 948.918 1513.75 926.431 1513.75 898.658V739.614C1513.75 711.841 1522.76 689.429 1540.7 672.303C1558.65 655.252 1582.63 646.689 1612.48 646.689C1641.67 646.689 1665.35 655.252 1683.52 672.303C1701.61 689.429 1710.69 711.841 1710.69 739.614V742.816C1710.69 744.9 1712.48 746.017 1716.06 746.017L1726.18 745.496C1729.76 745.496 1731.54 743.709 1731.54 740.135V739.614C1731.54 717.5 1726.55 698.066 1716.58 681.164C1706.6 664.261 1692.68 651.157 1674.66 641.924C1656.71 632.616 1636.01 628 1612.48 628C1588.66 628 1567.73 632.616 1549.79 641.924C1531.84 651.157 1517.85 664.336 1507.87 681.387C1497.89 698.513 1492.9 718.095 1492.9 740.135V897.616C1492.9 920.028 1497.89 939.759 1507.87 956.81C1517.85 973.936 1531.84 987.19 1549.79 996.646ZM2100.93 1002.23C2101.98 1004.69 2104.14 1005.95 2107.34 1005.95H2116.94C2119.77 1005.95 2121.19 1004.69 2121.19 1002.23C2121.19 1001.11 2121.04 1000.29 2120.67 999.55L2037.42 827.699C2036.68 826.582 2037.2 825.688 2038.98 825.018C2062.81 821.072 2081.8 810.573 2095.87 793.522C2109.94 776.397 2116.94 755.25 2116.94 730.009C2116.94 700.448 2107.93 676.622 2089.99 658.454C2072.04 640.286 2048.44 631.202 2019.25 631.202H1888.5C1884.93 631.202 1883.14 632.989 1883.14 636.563V1000.59C1883.14 1004.17 1884.93 1005.95 1888.5 1005.95H1898.63C1902.2 1005.95 1903.92 1004.17 1903.92 1000.59V828.741C1903.92 827.326 1904.66 826.582 1906.07 826.582H2014.41C2015.53 826.582 2016.2 827.103 2016.57 828.22L2100.93 1002.23ZM1903.92 652.571C1903.92 651.157 1904.66 650.412 1906.07 650.412H2018.73C2041.81 650.412 2060.5 657.709 2074.8 672.303C2089.02 686.897 2096.09 706.107 2096.09 730.009C2096.09 753.091 2089.02 772.003 2074.8 786.597C2060.5 801.117 2041.81 808.414 2018.73 808.414H1906.07C1904.66 808.414 1903.92 807.744 1903.92 806.329V652.571ZM2491.69 651.008C2495.19 651.008 2496.98 649.221 2496.98 645.647V637.605C2496.98 634.106 2495.19 632.319 2491.69 632.319H2268.02C2264.45 632.319 2262.66 634.106 2262.66 637.605V1000.59C2262.66 1004.17 2264.45 1005.95 2268.02 1005.95H2491.69C2495.19 1005.95 2496.98 1004.17 2496.98 1000.59V992.625C2496.98 989.051 2495.19 987.264 2491.69 987.264H2285.59C2284.18 987.264 2283.51 986.594 2283.51 985.105V830.305C2283.51 828.89 2284.18 828.22 2285.59 828.22H2432.95C2436.52 828.22 2438.31 826.433 2438.31 822.859V814.296C2438.31 810.797 2436.52 809.009 2432.95 809.009H2285.59C2284.18 809.009 2283.51 808.265 2283.51 806.85V653.093C2283.51 651.678 2284.18 651.008 2285.59 651.008H2491.69ZM2644.33 1000.59C2644.33 1004.17 2646.12 1005.95 2649.7 1005.95H2771.88C2804.64 1005.95 2830.63 997.167 2849.84 979.52C2869.05 961.948 2878.66 937.823 2878.66 907.221V731.051C2878.66 700.448 2869.05 676.324 2849.84 658.751C2830.63 641.105 2804.64 632.319 2771.88 632.319H2649.7C2646.12 632.319 2644.33 634.106 2644.33 637.605V1000.59ZM2667.27 987.264C2665.85 987.264 2665.11 986.594 2665.11 985.105V653.093C2665.11 651.678 2665.85 651.008 2667.27 651.008H2773C2799.28 651.008 2820.06 658.305 2835.17 672.899C2850.29 687.493 2857.81 707.373 2857.81 732.615V906.104C2857.81 931.048 2850.29 950.779 2835.17 965.373C2820.06 979.967 2799.28 987.264 2773 987.264H2667.27ZM3256.61 651.008C3260.18 651.008 3261.9 649.221 3261.9 645.647V637.605C3261.9 634.106 3260.18 632.319 3256.61 632.319H3032.94C3029.36 632.319 3027.57 634.106 3027.57 637.605V1000.59C3027.57 1004.17 3029.36 1005.95 3032.94 1005.95H3256.61C3260.18 1005.95 3261.9 1004.17 3261.9 1000.59V992.625C3261.9 989.051 3260.18 987.264 3256.61 987.264H3050.51C3049.09 987.264 3048.42 986.594 3048.42 985.105V830.305C3048.42 828.89 3049.09 828.22 3050.51 828.22H3197.86C3201.44 828.22 3203.22 826.433 3203.22 822.859V814.296C3203.22 810.797 3201.44 809.009 3197.86 809.009H3050.51C3049.09 809.009 3048.42 808.265 3048.42 806.85V653.093C3048.42 651.678 3049.09 651.008 3050.51 651.008H3256.61ZM3581.1 812.732C3581.1 812.36 3581.7 811.988 3582.74 811.616C3600.91 804.17 3614.83 793.299 3624.66 779.077C3634.41 764.855 3639.33 747.804 3639.33 727.849C3639.33 698.661 3629.87 675.43 3611.03 658.156C3592.2 640.956 3566.88 632.319 3535.23 632.319H3414.61C3411.04 632.319 3409.25 634.106 3409.25 637.605V1000.59C3409.25 1004.17 3411.04 1005.95 3414.61 1005.95H3538.96C3570.3 1005.95 3595.55 996.944 3614.76 978.999C3633.97 961.055 3643.57 936.706 3643.57 906.104C3643.57 883.692 3638.29 864.556 3627.56 848.771C3616.92 832.911 3601.95 821.295 3582.74 813.775C3581.7 813.403 3581.1 813.105 3581.1 812.732ZM3430.1 653.093C3430.1 651.678 3430.77 651.008 3432.18 651.008H3535.23C3560.48 651.008 3580.8 658.081 3596.07 672.303C3611.41 686.599 3619 705.437 3619 728.892C3619 751.304 3611.41 769.397 3596.07 783.098C3580.8 796.798 3560.48 803.648 3535.23 803.648H3432.18C3430.77 803.648 3430.1 802.904 3430.1 801.489V653.093ZM3599.57 964.033C3584.08 979.148 3563.9 986.743 3538.96 986.743H3432.18C3430.77 986.743 3430.1 985.998 3430.1 984.584V824.497C3430.1 823.008 3430.77 822.338 3432.18 822.338H3535.76C3562.11 822.338 3583.19 829.784 3599.05 844.75C3614.83 859.716 3622.8 879.82 3622.8 905.061C3622.8 929.261 3615.05 948.918 3599.57 964.033ZM3798.89 1000.59C3798.89 1004.17 3800.68 1005.95 3804.25 1005.95H4015.64C4019.22 1005.95 4021 1004.17 4021 1000.59V992.625C4021 989.051 4019.22 987.264 4015.64 987.264H3821.9C3820.49 987.264 3819.74 986.594 3819.74 985.105V637.605C3819.74 634.106 3817.96 632.319 3814.38 632.319H3804.25C3800.68 632.319 3798.89 634.106 3798.89 637.605V1000.59Z" fill="#2289F7" stroke="black" stroke-width="40.0346"/>
</svg>
