<svg width="439" height="89" viewBox="0 0 439 89" fill="none" xmlns="http://www.w3.org/2000/svg">
<g clip-path="url(#clip0_741_3591)">
<path d="M88.3484 44.3392C88.3484 68.7333 68.571 88.509 44.1742 88.509C19.7774 88.509 0 68.7333 0 44.3392C0 19.9449 19.7774 0.169312 44.1742 0.169312C68.571 0.169312 88.3484 19.9449 88.3484 44.3392ZM7.50964 44.3392C7.50964 64.5865 23.925 81 44.1742 81C64.4235 81 80.8386 64.5865 80.8386 44.3392C80.8386 24.0919 64.4235 7.67819 44.1742 7.67819C23.925 7.67819 7.50964 24.0919 7.50964 44.3392Z" fill="#25AFE1"/>
<path d="M71.5252 14.593C72.9288 13.0663 72.8374 10.6769 71.1969 9.40844C65.3108 4.85695 58.352 1.85295 50.959 0.703956C42.3257 -0.637833 33.4886 0.61028 25.5648 4.29048C17.6412 7.97068 10.9868 13.9176 6.44326 21.3793C1.89976 28.841 -0.328866 37.4827 0.0392365 46.2109C0.407355 54.9388 3.35565 63.3617 8.51131 70.4147C13.667 77.4674 20.7986 82.8331 29.0042 85.8333C37.2094 88.8333 46.1203 89.3329 54.61 87.2692C61.8797 85.5018 68.5611 81.9228 74.0431 76.8921C75.5711 75.49 75.4606 73.1014 73.9337 71.6984C72.4068 70.2949 70.0435 70.4121 68.4912 71.7874C64.0323 75.7386 58.6618 78.5566 52.836 79.973C45.7893 81.6859 38.3935 81.271 31.583 78.7811C24.7723 76.291 18.8532 71.8375 14.574 65.9837C10.2948 60.1297 7.8477 53.1386 7.54218 45.8943C7.23663 38.6498 9.08642 31.4775 12.8575 25.2842C16.6287 19.0911 22.152 14.1551 28.7283 11.1005C35.3052 8.04598 42.6403 7.01003 49.8055 8.12372C55.7302 9.04453 61.3188 11.4007 66.0949 14.9624C67.7571 16.2021 70.122 16.1197 71.5252 14.593Z" fill="#1F4EAD"/>
<path d="M65.6433 27.1966C64.9607 26.4158 63.9991 25.9402 62.9685 25.8735C61.938 25.8068 60.9232 26.1546 60.1477 26.8408C56.9193 29.7113 51.2745 38.403 47.7262 47.8022C46.9067 49.9742 46.1877 52.2021 45.6191 54.4323C42.9367 50.2292 40.6937 47.7056 37.9918 44.6599C36.1325 42.5666 34.0374 40.2061 31.3387 36.7177C31.0263 36.3103 30.6371 35.9687 30.1936 35.7128C29.7501 35.4569 29.2611 35.2919 28.7537 35.2264C28.2468 35.1611 27.7322 35.197 27.2392 35.3321C26.7458 35.4674 26.2841 35.6989 25.8798 36.0138C25.0632 36.65 24.531 37.5868 24.4003 38.6179C24.2697 39.6495 24.5509 40.6904 25.1825 41.5132C27.9938 45.1484 30.2124 47.6473 32.1804 49.8648C36.2705 54.4693 39.1968 57.7685 44.8179 69.082C45.4871 70.7514 47.2388 71.7924 49.0752 71.4841C50.0953 71.3128 51.0059 70.7405 51.607 69.8929C52.2084 69.0457 52.4509 67.9927 52.2815 66.9654C51.5086 62.2899 52.8571 56.3004 55.013 50.5902C58.136 42.3215 62.7604 34.9784 65.2893 32.7284C66.0649 32.0422 66.5376 31.0737 66.6037 30.0362C66.6702 28.9988 66.3248 27.9774 65.6433 27.1966Z" fill="#1F4EAD"/>
<path d="M40.135 21.7943C39.0186 22.07 39.3223 23.4535 40.2401 22.9944C40.2564 22.9944 45.569 21.1965 49.0508 26.7678C49.4786 27.4522 50.0504 26.5663 49.8183 26.0804C49.0854 24.5436 45.9233 20.3647 40.135 21.7943ZM37.6105 33.3173C36.9517 29.0564 38.7249 26.2319 40.9304 25.6597C46.181 24.2964 48.7786 30.8145 48.7786 34.2432C48.7786 37.5887 46.4079 39.0623 44.718 38.913C41.8785 38.6616 40.5415 35.6711 40.1289 33.342C40.028 32.7744 39.2458 28.4064 42.7521 28.3799C45.1394 28.3622 46.4817 32.5237 46.3253 34.1271C46.2229 35.1751 45.7346 36.2694 44.6295 36.1716C43.1562 36.0417 42.6159 33.9093 42.5414 33.0668C42.5251 32.9329 42.2233 31.2806 43.0259 31.4206C43.579 31.5167 43.7146 32.554 43.7336 32.622C43.8106 32.871 43.8631 33.1834 43.8947 33.4722C43.9285 33.7172 43.8733 33.9982 43.9711 34.271C44.0672 34.5874 44.3425 34.7656 44.5807 34.7868C44.7758 34.8039 45.148 34.6033 45.1606 34.2962C45.1858 32.6633 44.507 29.758 42.5939 29.9289C41.5181 30.0248 40.9507 31.2651 41.257 33.2646C41.5555 35.2118 42.5626 37.3529 44.5528 37.5287C46.7408 37.7224 47.622 35.7134 47.622 34.1991C47.622 29.8823 44.723 25.9203 41.2967 27.1063C39.329 27.7875 38.1351 29.9444 38.8072 33.4623C39.5034 37.1093 41.6463 40.4557 44.7554 40.3649C50.4472 40.1988 50.0518 34.0939 50.0518 34.0939C50.0518 28.4841 45.5382 21.9935 39.7497 24.5209C37.3636 25.5629 35.4971 29.0768 36.2016 33.3636C37.989 44.239 45.7935 42.9898 46.1583 42.933L46.1853 42.9365C47.4309 42.7548 47.176 41.3564 46.265 41.5133C41.0974 42.4046 38.3077 37.8297 37.6105 33.3173Z" fill="#1F4EAD"/>
<path d="M128.404 19.6524C122.528 19.6524 117.65 21.7548 113.768 25.9597C109.887 30.1646 107.946 35.5555 107.946 42.1323C107.946 48.7092 109.887 54.1002 113.768 58.3049C117.65 62.5099 122.528 64.6124 128.404 64.6124C131.747 64.6124 134.604 64.2619 136.976 63.5611C139.348 62.8604 142.232 61.5935 145.628 59.7606L146.437 60.5691V69.3023C140.561 71.944 134.55 73.2648 128.404 73.2648C119.941 73.2648 112.744 70.3537 106.814 64.5315C100.938 58.7094 98 51.243 98 42.1323C98 33.0218 100.938 25.5554 106.814 19.7333C112.744 13.9111 119.941 11 128.404 11C134.712 11 140.723 12.3208 146.437 14.9623V23.6955L145.628 24.5042C142.232 22.6713 139.348 21.4044 136.976 20.7036C134.604 20.0027 131.747 19.6524 128.404 19.6524ZM182.192 42.4559C183.971 43.5879 185.911 45.8251 188.015 49.1674C190.171 52.4558 192.544 56.499 195.13 61.2969C197.718 66.0948 199.686 69.545 201.034 71.6474V72.4561H190.684C189.497 70.5692 187.61 67.1191 185.023 62.1056C182.489 57.092 180.198 53.0758 178.149 50.057C176.155 47.0381 174.295 45.3669 172.569 45.0434H166.586V71.6474L165.777 72.4561H157.934L157.125 71.6474V12.6173L157.934 11.8086H174.026C180.009 11.8086 184.78 13.345 188.338 16.4178C191.896 19.4367 193.675 23.4529 193.675 28.4665C193.675 31.9167 192.65 34.8547 190.602 37.2806C188.608 39.6525 185.805 41.3776 182.192 42.4559ZM166.586 36.8762H173.701C176.828 36.8762 179.281 36.1216 181.06 34.612C182.839 33.0487 183.729 31.0001 183.729 28.4665C183.729 25.8788 182.839 23.8303 181.06 22.3208C179.281 20.7575 176.828 19.9758 173.701 19.9758H166.586V36.8762ZM241.799 65.0976V71.6474L240.992 72.4561H207.999L207.191 71.6474V12.6173L207.999 11.8086H239.374L240.183 12.6173V19.1672L239.374 19.9758H216.652V37.038H236.139L236.948 37.8467V44.3965L236.139 45.2052H216.652V64.2889H240.992L241.799 65.0976ZM251.669 11.8086H271.48C279.943 11.8086 287.113 14.6119 292.99 20.2184C298.92 25.8249 301.884 33.1296 301.884 42.1323C301.884 51.1352 298.92 58.4398 292.99 64.0462C287.113 69.6528 279.943 72.4561 271.48 72.4561H251.669L250.86 71.6474V12.6173L251.669 11.8086ZM260.321 64.2889H271.48C277.41 64.2889 282.289 62.2404 286.117 58.1433C289.998 53.9923 291.939 48.6553 291.939 42.1323C291.939 35.6093 289.998 30.2994 286.117 26.2023C282.289 22.0513 277.41 19.9758 271.48 19.9758H260.321V64.2889ZM345.565 65.0976V71.6474L344.756 72.4561H311.764L310.955 71.6474V12.6173L311.764 11.8086H343.138L343.947 12.6173V19.1672L343.138 19.9758H320.416V37.038H339.904L340.712 37.8467V44.3965L339.904 45.2052H320.416V64.2889H344.756L345.565 65.0976ZM383.815 40.4342C391.416 42.914 395.218 47.7927 395.218 55.0705C395.218 61.0005 393.25 65.394 389.314 68.2511C385.433 71.0544 380.258 72.4561 373.789 72.4561H355.432L354.623 71.6474V12.6173L355.432 11.8086H371.524C377.401 11.8086 382.144 13.2642 385.756 16.1753C389.369 19.0863 391.174 23.0217 391.174 27.9813C391.174 33.8573 388.721 38.0083 383.815 40.4342ZM381.309 28.3047C381.309 25.771 380.42 23.7495 378.64 22.2399C376.861 20.7305 374.435 19.9758 371.362 19.9758H364.084V37.038H371.362C374.49 37.038 376.915 36.2562 378.64 34.6929C380.42 33.1296 381.309 31.0001 381.309 28.3047ZM364.084 64.2889H373.464C381.39 64.2889 385.352 61.1621 385.352 54.9087C385.352 51.6203 384.22 49.1944 381.955 47.6311C379.745 46.0139 376.7 45.2052 372.819 45.2052H364.084V64.2889ZM437.126 65.0976V71.6474L436.317 72.4561H405.104L404.295 71.6474V12.6173L405.104 11.8086H412.947L413.756 12.6173V64.2889H436.317L437.126 65.0976Z" fill="black"/>
</g>
<defs>
<clipPath id="clip0_741_3591">
<rect width="439" height="88.5007" fill="white" transform="translate(0 0.169312)"/>
</clipPath>
</defs>
</svg>
