<?xml version="1.0" encoding="utf-8"?>
<!-- Generator: Adobe Illustrator 25.2.3, SVG Export Plug-In . SVG Version: 6.00 Build 0)  -->
<svg version="1.1" id="Layer_1" xmlns="http://www.w3.org/2000/svg" xmlns:xlink="http://www.w3.org/1999/xlink" x="0px" y="0px"
	 width="153px" height="117px" viewBox="0 0 153 117" style="enable-background:new 0 0 153 117;" xml:space="preserve">
<style type="text/css">
	.st0{fill:#FFFFFF;}
</style>
<g>
	<g>
		<path class="st0" d="M120.3,39.6c1.2,0,2.3-0.5,3.1-1.3v1.8c0,1.7-1.4,3.1-3.1,3.1c-1.4,0-2.5-0.9-2.9-2.1l-1.2,0.5
			c0.4,1,1.1,1.9,2.1,2.4v12.3h1.3v-1.1c0.8,0.8,1.9,1.3,3.1,1.3c2.4,0,4.4-2,4.4-4.4s-2-4.4-4.4-4.4c-1.2,0-2.3,0.5-3.1,1.3v-4.5
			c0.2,0,0.5,0.1,0.8,0.1c2.4,0,4.4-2,4.4-4.4V31h-1.3v1c-0.8-0.8-1.9-1.2-3.1-1.2c-2.4,0-4.4,1.9-4.4,4.4
			C115.9,37.6,117.8,39.6,120.3,39.6z M122.6,49.1c1.7,0,3.1,1.4,3.1,3.1c0,1.7-1.4,3.1-3.1,3.1s-3.1-1.4-3.1-3.1
			C119.5,50.4,120.9,49.1,122.6,49.1z M120.3,32.1c1.7,0,3.1,1.4,3.1,3.1c0,1.7-1.4,3.1-3.1,3.1s-3.1-1.4-3.1-3.1
			C117.2,33.5,118.5,32.1,120.3,32.1z M142.5,49.1c1.2,0,2.3,0.7,2.8,1.7h1.4c-0.6-1.8-2.2-3.1-4.2-3.1c-2.4,0-4.4,2-4.4,4.4
			s2,4.4,4.4,4.4c2,0,3.6-1.3,4.2-3.1h-1.4c-0.5,1-1.6,1.7-2.8,1.7c-1.7,0-3.1-1.4-3.1-3.1S140.7,49.1,142.5,49.1z M143.1,65
			c-0.8-0.8-1.9-1.3-3.1-1.3c-2.4,0-4.4,2-4.4,4.4s2,4.4,4.4,4.4c1.2,0,2.3-0.5,3.1-1.3v1.1h1.3V56.8h-1.3V65z M140,71.3
			c-1.7,0-3.1-1.4-3.1-3.1s1.4-3.1,3.1-3.1c1.7,0,3.1,1.4,3.1,3.1S141.7,71.3,140,71.3z M111.9,39.4h1.3V31h-1.3V39.4z M109,47.9
			v5.4c0,2,1.3,3.2,3.2,3.2c1.9,0,3.2-1.2,3.2-3.2v-5.4h-1.3v5.3c0,1.3-0.8,2.1-1.9,2.1s-1.9-0.8-1.9-2.1v-5.3H109z M112.5,29.4
			c0.5,0,0.9-0.4,0.9-0.9s-0.4-0.9-0.9-0.9s-0.9,0.4-0.9,0.9S112,29.4,112.5,29.4z M127.9,39.4h1.3V31h-1.3
			C127.9,31,127.9,39.4,127.9,39.4z M149.9,67.6c-1-0.4-1.6-0.7-1.6-1.4c0-0.7,0.5-1.1,1.2-1.1c0.6,0,1,0.2,1.3,0.7l1.1-0.6
			c-0.3-0.8-1.4-1.4-2.5-1.4c-1.2,0-2.5,0.9-2.5,2.4c0,1.3,0.9,2,2.4,2.6c1,0.4,1.6,0.7,1.6,1.4c0,0.7-0.6,1.2-1.4,1.2
			c-0.8,0-1.5-0.4-1.7-1.1l-1.3,0.5c0.3,1,1.6,1.8,2.9,1.8c1.5,0,2.7-1,2.7-2.5C152.3,68.6,151,68,149.9,67.6z M125.1,81.8
			c0,1.5,1.1,2.6,2.6,2.6c0.7,0,1.4-0.3,1.7-0.6V83c-0.2,0.4-0.9,0.8-1.7,0.8c-1.1,0-2-0.9-2-2.1s0.9-2.1,2-2.1
			c0.8,0,1.5,0.4,1.7,0.8v-0.7c-0.3-0.3-1-0.6-1.7-0.6C126.2,79.2,125.1,80.3,125.1,81.8z M129.5,56.4h1.3V40.8h-1.3V56.4z
			 M141.1,34.8c-1.8,0-2.9,0.9-2.9,2.4c0,1.4,1.1,2.4,2.9,2.4c1.5,0,2.7-0.6,3.3-1.5c0.3,0.9,1,1.5,2,1.5c0.2,0,0.5-0.1,0.6-0.2
			v-1.1h-0.5c-0.5,0-0.9-0.3-0.9-1.1v-3.1c0-2-1.7-3.3-3.7-3.3c-2.1,0-3.7,1.3-3.7,3.3h1.3c0-1.3,1.1-2,2.4-2c1.3,0,2.4,0.7,2.4,2
			v0.7C144.3,34.8,141.1,34.8,141.1,34.8z M144.3,36.5c-0.4,1.2-1.5,2-2.9,2c-1,0-1.7-0.5-1.7-1.2c0-0.8,0.7-1.3,1.7-1.3h3v0.5
			H144.3z M150.1,23.9h-1.3v15.6h1.3V23.9z M132.8,37.2c0,1.3,1.1,2.4,2.4,2.4c0.4,0,0.9-0.1,1.1-0.3v-1h-1c-0.7,0-1.3-0.5-1.3-1.3
			v-4.8h2.3V31H134v-3.7h-1.3V31h-1.4v1.3h1.4v4.9H132.8z M128.6,29.4c0.5,0,0.9-0.4,0.9-0.9s-0.4-0.9-0.9-0.9s-0.9,0.4-0.9,0.9
			C127.7,29,128.1,29.4,128.6,29.4z M133.8,45.4c0,0.5,0.4,0.9,0.9,0.9s0.9-0.4,0.9-0.9s-0.4-0.9-0.9-0.9S133.8,44.9,133.8,45.4z
			 M122.3,79.2c-0.7,0-1.3,0.4-1.6,1.1v-1h-0.6v5h0.6v-3c0-0.8,0.6-1.5,1.5-1.5c0.8,0,1.2,0.5,1.2,1.4v3.2h0.6V81
			C123.9,79.9,123.3,79.2,122.3,79.2z M112.1,65.7h-6.5V67h5.1c-0.4,2.5-2.5,4.3-5.1,4.3c-2.9,0-5.2-2.3-5.2-5.2
			c0-2.9,2.3-5.2,5.2-5.2c1.9,0,3.6,1,4.5,2.6l1.2-0.7c-1.1-2-3.2-3.3-5.7-3.3c-3.6,0-6.5,2.9-6.5,6.5c0,3.6,2.9,6.5,6.5,6.5
			s6.5-2.9,6.5-6.5V65.7z M109.3,84.3h0.6v-8.4h-0.6V84.3z M111.7,84.3h0.6v-5h-0.6V84.3z M107,84.3h0.6v-8.4H107V84.3z M112,76.7
			c-0.2,0-0.4,0.2-0.4,0.4s0.2,0.4,0.4,0.4c0.2,0,0.4-0.2,0.4-0.4S112.2,76.7,112,76.7z M117.9,80.6c-0.3-0.8-1-1.4-1.9-1.4
			c-1.3,0-2.4,1-2.4,2.6s1.1,2.6,2.4,2.6c0.9,0,1.6-0.5,1.9-1.4v1.3h0.5v-5h-0.5V80.6z M116.1,83.9c-1,0-1.9-0.8-1.9-2.1
			s0.9-2.1,1.9-2.1c0.9,0,1.8,0.9,1.8,2.1S117.1,83.9,116.1,83.9z M123,68.2c0-2.4-2-4.4-4.4-4.4s-4.4,2-4.4,4.4s2,4.4,4.4,4.4
			S123,70.6,123,68.2z M118.6,71.3c-1.7,0-3.1-1.4-3.1-3.1s1.4-3.1,3.1-3.1s3.1,1.4,3.1,3.1C121.6,69.9,120.2,71.3,118.6,71.3z
			 M134.1,56.4h1.3v-8.5h-1.3V56.4z M99.4,84.3h0.7l1-2.5h3.3l1,2.5h0.7l-3.3-7.9L99.4,84.3z M101.3,81.2l1.4-3.4l1.4,3.4H101.3z
			 M77.9,89.3V68l-19,8.7L77.9,89.3z M129.3,72.6c2.4,0,4.4-2,4.4-4.4s-2-4.4-4.4-4.4c-2.4,0-4.4,2-4.4,4.4S126.8,72.6,129.3,72.6z
			 M129.3,65.1c1.7,0,3.1,1.4,3.1,3.1s-1.4,3.1-3.1,3.1c-1.7,0-3.1-1.4-3.1-3.1C126.2,66.5,127.6,65.1,129.3,65.1z M100.7,50.7h3.2
			c2,0,3.5-1.5,3.5-3.5s-1.6-3.5-3.5-3.5h-4.6v12.7h1.4V50.7z M100.7,45h3.1c1.3,0,2.3,0.9,2.3,2.2c0,1.4-1,2.2-2.3,2.2h-3.1V45z
			 M109.1,33.1c0-3.5-2.9-6.4-6.4-6.4h-3.5v12.7h3.5C106.3,39.4,109.1,36.6,109.1,33.1z M100.6,38.1v-10h2.1c2.8,0,5,2.1,5,5
			s-2.2,5-5,5H100.6z M132.7,79.2c-1.2,0-2.1,0.8-2.3,1.9c0,0.2-0.1,0.4-0.1,0.6c0,1.5,1,2.6,2.3,2.6s1.8-0.6,2.3-1.3l-0.5-0.3
			c-0.3,0.5-0.8,1-1.8,1s-1.7-0.7-1.8-1.9h4.1c0-0.1,0-0.2,0-0.3C135,80.2,134,79.2,132.7,79.2z M130.9,81.5
			c0.1-1.1,0.9-1.8,1.8-1.8c1,0,1.7,0.7,1.7,1.8H130.9z M0.7,26v75.9L22.4,116l55.5-25L56.3,76.5L22.4,92.1V40l33.8-16.1v52.6
			l21.7-10.2V15.1L56.3,1L0.7,26z"/>
	</g>
</g>
</svg>
