<svg width="189" height="189" viewBox="0 0 189 189" fill="none" xmlns="http://www.w3.org/2000/svg">
<path d="M189 94.4908C189 146.676 146.691 188.981 94.5 188.981C42.3089 188.981 0 146.676 0 94.4908C0 42.3051 42.3089 0 94.5 0C146.691 0 189 42.3051 189 94.4908ZM16.0651 94.4908C16.0651 137.805 51.1819 172.918 94.5 172.918C137.818 172.918 172.935 137.805 172.935 94.4908C172.935 51.1766 137.818 16.0634 94.5 16.0634C51.1819 16.0634 16.0651 51.1766 16.0651 94.4908Z" fill="#FFD302"/>
<path d="M153.011 30.8568C156.014 27.591 155.818 22.4795 152.309 19.7659C139.717 10.0291 124.83 3.60272 109.015 1.14472C90.5456 -1.72571 71.6407 0.944328 54.6897 8.81723C37.739 16.6901 23.5036 29.4121 13.7838 45.3747C4.06408 61.3369 -0.70353 79.8238 0.0839373 98.4956C0.871432 117.167 7.17861 135.186 18.2079 150.274C29.2372 165.362 44.4935 176.84 62.0474 183.258C79.6007 189.676 98.6632 190.745 116.825 186.33C132.377 182.549 146.67 174.893 158.397 164.131C161.666 161.131 161.43 156.022 158.163 153.02C154.897 150.018 149.841 150.268 146.52 153.211C136.982 161.663 125.493 167.692 113.03 170.722C97.9551 174.386 82.1336 173.498 67.5642 168.172C52.9943 162.845 40.332 153.318 31.1775 140.795C22.0232 128.272 16.7882 113.316 16.1347 97.8186C15.481 82.3205 19.4382 66.9773 27.5057 53.7282C35.573 40.4796 47.3888 29.9202 61.4572 23.3856C75.5269 16.8512 91.2186 14.6351 106.547 17.0175C119.221 18.9874 131.177 24.0276 141.394 31.6472C144.95 34.2993 150.009 34.123 153.011 30.8568Z" fill="#001F3F"/>
<mask id="mask0_1243_14491" style="mask-type:luminance" maskUnits="userSpaceOnUse" x="99" y="81" width="53" height="66">
<path d="M151.867 90.8854L112.68 81.6797L99.708 136.898L138.895 146.103L151.867 90.8854Z" fill="white"/>
</mask>
<g mask="url(#mask0_1243_14491)">
<path fill-rule="evenodd" clip-rule="evenodd" d="M135.111 92.8055L127.673 123.98C120.207 122.61 111.26 125.065 101.609 130.971C111.031 126.967 120.604 126.436 130.33 129.378L140.315 88.1738C128.917 88.4513 118.012 91.5539 109.144 97.9338C120.839 94.2572 123.174 92.6102 135.111 92.8055ZM129.773 100.229C124.574 99.2267 117.364 100.094 108.144 102.831C115.718 98.4975 123.125 96.7929 130.363 97.7192L129.773 100.229ZM124.947 120.772C119.887 119.291 112.704 119.431 103.397 121.193C111.172 117.718 118.551 116.75 125.531 118.287L124.947 120.772ZM126.477 114.261C121.416 112.78 114.234 112.92 104.927 114.683C112.702 111.207 120.081 110.239 127.06 111.776L126.477 114.261ZM128.006 107.752C122.945 106.271 115.763 106.411 106.456 108.173C114.231 104.698 121.61 103.73 128.589 105.267L128.006 107.752ZM149.991 98.8673L138.137 145.927C130.376 138.73 118.261 134.241 103.147 132.856C114.493 131.504 126.268 133.701 136.608 139.612L146.407 101.475L140.378 100.219L141.163 96.8753C147.048 98.2037 149.991 98.8673 149.991 98.8673Z" fill="#001F3F"/>
<mask id="mask1_1243_14491" style="mask-type:luminance" maskUnits="userSpaceOnUse" x="101" y="88" width="49" height="58">
<path d="M135.111 92.8055L127.673 123.98C120.207 122.61 111.26 125.065 101.609 130.971C111.031 126.967 120.604 126.436 130.33 129.378L140.315 88.1738C128.917 88.4513 118.012 91.5539 109.144 97.9338C120.839 94.2572 123.174 92.6102 135.111 92.8055ZM129.773 100.229C124.574 99.2267 117.364 100.094 108.144 102.831C115.718 98.4975 123.125 96.7929 130.363 97.7192L129.773 100.229ZM124.947 120.772C119.887 119.291 112.704 119.431 103.397 121.193C111.172 117.718 118.551 116.75 125.531 118.287L124.947 120.772ZM126.477 114.261C121.416 112.78 114.234 112.92 104.927 114.683C112.702 111.207 120.081 110.239 127.06 111.776L126.477 114.261ZM128.006 107.752C122.945 106.271 115.763 106.411 106.456 108.173C114.231 104.698 121.61 103.73 128.589 105.267L128.006 107.752ZM149.991 98.8673L138.137 145.927C130.376 138.73 118.261 134.241 103.147 132.856C114.493 131.504 126.268 133.701 136.608 139.612L146.407 101.475L140.378 100.219L141.163 96.8753C147.048 98.2037 149.991 98.8673 149.991 98.8673Z" fill="white"/>
</mask>
<g mask="url(#mask1_1243_14491)">
<path d="M151.866 90.8873L112.679 81.6816L99.707 136.9L138.894 146.105L151.866 90.8873Z" fill="#001F3F"/>
<mask id="mask2_1243_14491" style="mask-type:luminance" maskUnits="userSpaceOnUse" x="99" y="81" width="53" height="66">
<path d="M151.869 90.8853L112.683 81.6797L99.7109 136.898L138.898 146.103L151.869 90.8853Z" fill="white"/>
</mask>
<g mask="url(#mask2_1243_14491)">
<path d="M139.069 146.368L99.5 137.072L112.545 81.5421L152.114 90.8375L139.069 146.368Z" fill="#FFD302"/>
</g>
</g>
</g>
<path d="M129.296 67.9571C127.836 66.2868 125.779 65.2696 123.574 65.1267C121.37 64.984 119.199 65.728 117.54 67.196C110.634 73.3369 98.5578 91.9305 90.9672 112.038C89.2141 116.684 87.676 121.45 86.4596 126.221C80.721 117.23 75.9227 111.831 70.1426 105.316C66.1651 100.838 61.6834 95.7878 55.9099 88.3252C55.2416 87.4539 54.409 86.7229 53.4605 86.1755C52.5115 85.628 51.4656 85.2751 50.3802 85.135C49.2956 84.9953 48.1949 85.0721 47.14 85.3611C46.0845 85.6505 45.0968 86.1457 44.2321 86.8194C42.485 88.1806 41.3465 90.1847 41.0669 92.3903C40.7877 94.5971 41.3893 96.8241 42.7402 98.584C48.7543 106.361 53.5005 111.706 57.7108 116.45C66.4603 126.3 72.7206 133.358 84.7454 157.561C86.177 161.132 89.9243 163.359 93.8531 162.7C96.0354 162.333 97.9834 161.109 99.2693 159.296C100.556 157.483 101.074 155.231 100.712 153.033C99.0588 143.031 101.944 130.218 106.555 118.002C113.236 100.313 123.129 84.6044 128.539 79.7913C130.198 78.3231 131.209 76.2515 131.351 74.032C131.493 71.8125 130.754 69.6277 129.296 67.9571Z" fill="#001F3F"/>
<path d="M83.4758 103.102C92.6023 101.812 98.5908 90.7911 96.8515 78.4865C95.1122 66.182 86.3037 57.253 77.1773 58.543C68.0508 59.8331 62.0623 70.8537 63.8016 83.1583C65.5409 95.4628 74.3494 104.392 83.4758 103.102Z" fill="#001F3F"/>
<path d="M52.6706 68.1137L49.4299 51.3932L75.2784 56.9819L102.566 38.279L70.0283 31L42.5664 49.9091L46.0695 50.6667L45.7777 73.0842L52.6706 68.1137Z" fill="#FFD302"/>
<path d="M49.4332 51.3925L52.6742 68.113L45.7812 73.0837L46.0731 50.666L49.4332 51.3925Z" fill="#001F3F"/>
<path d="M64.8986 70.7382C64.8986 70.7382 70.7103 72.539 78.8028 71.151C86.9112 70.1756 91.9616 66.1692 91.9616 66.1692L93.4384 45.8047L75.5808 58.0926L54.4258 53.3665L64.8986 70.7382Z" fill="#FFD302"/>
<path d="M84 97C80.4642 97.6995 77.2163 95.6258 77.1696 95.6022C76.8667 95.4498 76.7615 95.0945 76.9342 94.8074C77.1076 94.5208 77.4947 94.4119 77.7961 94.5628C78.057 94.6923 84.2025 97.6676 88.7898 91.8258C88.9984 91.5597 89.3955 91.4955 89.6748 91.6818C89.9549 91.8686 90.0126 92.2357 89.8035 92.5019C87.9055 94.9181 85.9922 96.6059 84 97Z" fill="white"/>
</svg>
