<svg width="122" height="126" viewBox="0 0 122 126" fill="none" xmlns="http://www.w3.org/2000/svg">
<path d="M40.4857 1.16807C39.2653 1.40842 36.6502 2.4042 34.7324 3.3313C27.7588 6.66198 22.8075 12.6709 20.7154 20.2251C19.7739 23.5901 19.8437 29.9081 20.8549 33.3418C23.7838 43.5055 31.8384 50.579 42.4383 52.3645C45.2975 52.8452 46.3785 52.8452 49.2377 52.5362C55.5837 51.7807 60.7791 49.3428 65.2073 44.9134C69.0429 41.1363 71.2744 37.0159 72.4251 31.7623C73.2271 28.0196 72.8784 22.1823 71.6929 18.6456C68.6942 9.88965 61.7554 3.53732 52.864 1.30541C49.5863 0.481327 43.9028 0.412655 40.4857 1.16807Z" fill="url(#paint0_linear_5954_11156)"/>
<path d="M32.5389 63.6881C29.0115 64.2822 25.9682 65.1591 22.4754 66.5736C18.3255 68.2709 15.4552 69.9683 12.0661 72.7689C5.66839 78.0308 1.72601 84.9051 0.861448 92.3451C0.688537 94.0142 0.515625 102.586 0.515625 111.412V127.48H21.9567H43.3977V115.09C43.3977 104.34 43.4669 102.642 43.9511 102.077C44.4698 101.454 44.5044 101.454 55.467 101.454C65.6688 101.454 66.4987 101.483 67.0175 101.964C67.3633 102.246 67.6054 102.727 67.6054 102.982C67.6054 103.463 67.8475 103.491 69.9224 103.293C75.1097 102.84 78.8446 101.285 80.0896 99.1063C81.0579 97.3241 80.9542 94.1557 79.7092 89.1485C78.4988 84.2827 78.4296 82.8116 79.3288 81.1709C80.1934 79.6715 82.0608 78.8229 84.5507 78.8229H86.3144L84.8274 77.0406C81.0579 72.5709 73.9685 67.8183 67.882 65.7532C61.4843 63.5466 60.5506 63.4618 47.0289 63.3769C37.7262 63.3203 34.3717 63.3769 32.5389 63.6881Z" fill="url(#paint1_linear_5954_11156)"/>
<path d="M83.1319 82.872C82.8207 83.4378 82.959 84.4279 83.8927 88.1904C85.4143 94.4706 85.4489 97.7239 84.0656 100.27C81.9215 104.117 77.6679 106.069 70.0252 106.776L67.7773 106.974V120.695V134.415L71.7197 135.49C81.714 138.206 86.5901 138.913 95.6161 138.941C103.19 138.941 105.991 138.659 111.766 137.216C115.466 136.311 117.887 134.585 119.651 131.614C121.345 128.729 121.622 126.862 121.484 119.535C121.38 112.378 121.138 111.614 118.613 109.521C115.985 107.399 115.155 107.257 106.337 107.342C99.9043 107.427 98.4519 107.371 97.864 107.003C97.2069 106.607 97.1723 106.182 96.9994 98.1482C96.7919 88.4733 96.7228 88.247 93.5412 85.5029C91.4663 83.6924 88.6651 82.5891 85.6564 82.3345C83.6161 82.1648 83.5123 82.1648 83.1319 82.872Z" fill="url(#paint2_linear_5954_11156)"/>
<path d="M47.5469 120.833V136.816H55.5008H63.4548V120.833V104.849H55.5008H47.5469V120.833Z" fill="url(#paint3_linear_5954_11156)"/>
<defs>
<linearGradient id="paint0_linear_5954_11156" x1="46.7685" y1="116.612" x2="47.9994" y2="-48.9153" gradientUnits="userSpaceOnUse">
<stop offset="0.299087" stop-color="white"/>
<stop offset="0.723889" stop-color="#22C55E"/>
</linearGradient>
<linearGradient id="paint1_linear_5954_11156" x1="43.9249" y1="206.067" x2="45.0722" y2="2.36873" gradientUnits="userSpaceOnUse">
<stop offset="0.299087" stop-color="white"/>
<stop offset="0.723889" stop-color="#22C55E"/>
</linearGradient>
<linearGradient id="paint2_linear_5954_11156" x1="94.9654" y1="208.431" x2="96.3976" y2="28.3181" gradientUnits="userSpaceOnUse">
<stop offset="0.299087" stop-color="white"/>
<stop offset="0.723889" stop-color="#22C55E"/>
</linearGradient>
<linearGradient id="paint3_linear_5954_11156" x1="55.5954" y1="175.994" x2="57.1329" y2="74.4651" gradientUnits="userSpaceOnUse">
<stop offset="0.299087" stop-color="white"/>
<stop offset="0.723889" stop-color="#22C55E"/>
</linearGradient>
</defs>
</svg>
