<svg width="106" height="101" viewBox="0 0 106 101" fill="none" xmlns="http://www.w3.org/2000/svg">
<path fill-rule="evenodd" clip-rule="evenodd" d="M2.40417 63.0905C1.47844 64.6803 0.9653 66.5233 0.968767 68.4411C0.968767 72.1983 2.94159 75.6667 6.12789 77.5096C15.6382 83.0099 29.7461 91.1695 39.6551 96.9015C47.9381 101.689 58.0482 101.689 66.3312 96.9015C76.2403 91.1695 90.3446 83.0135 99.8549 77.5132C103.041 75.6703 105.014 72.2018 105.014 68.4411C105.014 66.5233 104.501 64.6839 103.575 63.0941C102.688 64.6198 101.415 65.9138 99.8549 66.8192C90.3446 72.3195 76.2403 80.4755 66.3312 86.2074C58.0482 90.9948 47.9381 90.9948 39.6551 86.2074C29.7461 80.4755 15.6382 72.3159 6.12789 66.8156C4.56421 65.9102 3.29522 64.6197 2.40417 63.0905ZM2.40417 45.2671C1.47844 46.857 0.9653 48.6999 0.968767 50.6177C0.968767 54.3749 2.94159 57.8433 6.12789 59.6863C15.6382 65.1866 29.7461 73.3461 39.6551 79.0781C47.9381 83.8655 58.0482 83.8655 66.3312 79.0781C76.2403 73.3461 90.3446 65.1902 99.8549 59.6899C103.041 57.8469 105.014 54.3785 105.014 50.6177C105.014 48.6999 104.501 46.8606 103.575 45.2707C102.688 46.7964 101.415 48.0904 99.8549 48.9959C90.3446 54.4961 76.2403 62.6521 66.3312 68.3841C58.0482 73.1714 47.9381 73.1714 39.6551 68.3841C29.7461 62.6521 15.6382 54.4926 6.12789 48.9923C4.56421 48.0868 3.29522 46.7964 2.40417 45.2671ZM66.307 4.32336C58.024 -0.46756 47.9068 -0.463945 39.6273 4.33054C29.7217 10.0625 15.6278 18.222 6.1244 23.7222C2.9381 25.5652 0.9653 29.0337 0.968767 32.7944C0.968767 36.5515 2.94159 40.02 6.12789 41.8629C15.6382 47.3632 29.7461 55.5228 39.6551 61.2547C47.9381 66.0421 58.0482 66.0421 66.3312 61.2547C76.2403 55.5228 90.3446 47.3668 99.8549 41.8665C103.041 40.0236 105.014 36.5551 105.014 32.7944C105.014 29.0337 103.041 25.5652 99.8549 23.7222L66.307 4.32336Z" fill="url(#paint0_linear_11845_8385)"/>
<defs>
<linearGradient id="paint0_linear_11845_8385" x1="50.472" y1="-167.433" x2="44.4078" y2="211.738" gradientUnits="userSpaceOnUse">
<stop offset="0.367021" stop-color="white"/>
<stop offset="0.653734" stop-color="#BCBABA"/>
</linearGradient>
</defs>
</svg>
