<svg width="505" height="509" viewBox="0 0 505 509" fill="none" xmlns="http://www.w3.org/2000/svg">
<path d="M400.878 406.383H436.375V395.007H400.878V406.383Z" fill="#EBEBEB"/>
<path d="M376.893 195.773H412.391V184.397H376.893V195.773Z" fill="#EBEBEB"/>
<path d="M420.68 420.726C426.576 420.624 441.69 420.37 447.384 420.309L456.177 420.269L455.713 420.736L455.672 409.36L456.177 409.868C450.281 409.848 435.248 409.797 429.554 409.716L420.68 409.604L420.922 409.36L420.68 420.726ZM420.68 420.726L420.438 409.35V409.116H420.68C425.112 409.055 433.996 408.953 438.429 408.923L456.177 408.852H456.682V409.36L456.642 420.736V421.204H456.187L447.232 421.163C441.568 421.082 426.525 420.828 420.68 420.726Z" fill="#EBEBEB"/>
<path d="M108.924 321.531C114.82 321.429 129.934 321.175 135.628 321.114L144.422 321.073L143.957 321.541L143.917 310.165L144.422 310.673C138.526 310.653 123.493 310.602 117.799 310.52L108.924 310.409L109.167 310.165L108.924 321.531ZM108.924 321.531L108.682 310.154L108.672 309.921H108.914C113.346 309.86 122.231 309.758 126.663 309.727L144.412 309.656H144.916V310.165L144.876 321.541V322.008H144.422L135.467 321.968C129.813 321.887 114.76 321.632 108.924 321.531Z" fill="#EBEBEB"/>
<path d="M128.721 335.882C134.617 335.781 149.731 335.526 155.425 335.465L164.219 335.425L163.754 335.892L163.714 324.516L164.219 325.024C158.323 325.004 143.29 324.953 137.596 324.872L128.721 324.76L128.963 324.516L128.721 335.882ZM128.721 335.882L128.479 324.506L128.469 324.272H128.711C133.143 324.211 142.028 324.109 146.46 324.079L164.209 324.008H164.713V324.516L164.673 335.892V336.36H164.219L155.263 336.319C149.61 336.238 134.557 335.984 128.721 335.882Z" fill="#EBEBEB"/>
<path d="M148.44 321.531H183.938V310.155H148.44V321.531Z" fill="#EBEBEB"/>
<path d="M48.6197 420.727H84.1172V409.35H48.6197V420.727Z" fill="#EBEBEB"/>
<path d="M68.4166 57.0625L103.914 57.0625V45.6862H68.4166V57.0625Z" fill="#EBEBEB"/>
<path d="M48.6196 71.3979C54.5156 71.2962 69.6293 71.042 75.3235 70.981L84.1171 70.9404L83.6527 71.408L83.6123 60.0318L84.1171 60.5401C78.221 60.5197 63.1881 60.4689 57.494 60.3876L48.6196 60.2758L48.8619 60.0318L48.6196 71.3979ZM48.6196 71.3979L48.3773 60.0216L48.3672 59.7878H48.6095C53.0416 59.7268 61.9261 59.6251 66.3582 59.5946L84.107 59.5234H84.6118V60.0318L84.5714 71.408V71.8757H84.1171L75.1619 71.835C69.5082 71.7537 54.4551 71.4995 48.6196 71.3979Z" fill="#EBEBEB"/>
<path d="M420.674 57.0541C426.57 56.9524 441.684 56.6983 447.378 56.6373L456.172 56.5966L455.707 57.0643L455.667 45.688L456.172 46.1963C450.276 46.176 435.243 46.1252 429.549 46.0438L420.674 45.932L420.917 45.688L420.674 57.0541ZM420.674 57.0541L420.432 45.6778L420.422 45.444H420.664C425.096 45.383 433.981 45.2814 438.413 45.2509L456.162 45.1797H456.666V45.688L456.626 57.0643V57.5319H456.172L447.217 57.4913C441.563 57.4099 426.52 57.1558 420.674 57.0541Z" fill="#EBEBEB"/>
<path d="M63.4219 49.4062V230.023H180.01V49.4062H63.4219ZM175.709 225.682H67.7228V53.7372H175.699V225.682H175.709Z" fill="#EBEBEB"/>
<path d="M175.703 53.7344H67.7266V225.69H175.703V53.7344Z" fill="white"/>
<path d="M67.7265 141.875H175.703V137.544H67.7265V141.875Z" fill="#EBEBEB"/>
<path d="M55.5107 242.453L187.93 242.453V230.02L55.5107 230.02V242.453Z" fill="#DBDBDB"/>
<path d="M67.7188 53.7266H175.695V164.978H67.7188V53.7266ZM171.718 57.7423H71.7067V160.972H171.718V57.7423Z" fill="#DBDBDB"/>
<path d="M141.236 53.7266H139.086V160.962H141.236V53.7266Z" fill="#DBDBDB"/>
<path d="M104.33 53.7266H102.18V160.962H104.33V53.7266Z" fill="#DBDBDB"/>
<path d="M324.797 49.4062V230.023H441.375V49.4062H324.797ZM437.074 225.682H329.098V53.7372H437.074V225.682Z" fill="#EBEBEB"/>
<path d="M437.078 53.7344H329.102V225.69H437.078V53.7344Z" fill="white"/>
<path d="M329.094 141.875H437.07V137.544H329.094V141.875Z" fill="#EBEBEB"/>
<path d="M316.886 242.453L449.305 242.453V230.02L316.886 230.02V242.453Z" fill="#DBDBDB"/>
<path d="M329.102 53.7266H437.078V164.978H329.102V53.7266ZM433.09 57.7423H333.079V160.972H433.09V57.7423Z" fill="#DBDBDB"/>
<path d="M402.619 53.7266H400.469V160.962H402.619V53.7266Z" fill="#DBDBDB"/>
<path d="M365.713 53.7266H363.562V160.962H365.713V53.7266Z" fill="#DBDBDB"/>
<path d="M326.155 284.984H178.633V294.053H326.155V284.984Z" fill="#EBEBEB"/>
<path d="M313.001 294.055H191.789V319.074H313.001V294.055Z" fill="#EBEBEB"/>
<path d="M313.001 298.996L191.789 301.425V294.055H313.001V298.996Z" fill="#C7C7C7"/>
<path d="M294.24 299.297H210.555V313.835H294.24V299.297Z" stroke="#DBDBDB" stroke-miterlimit="10"/>
<path d="M266.194 304.469H238.602V308.667H266.194V304.469Z" fill="#DBDBDB"/>
<path d="M190.807 462.992H186.789L198.47 319.086H208.707L190.807 462.992Z" fill="#EBEBEB"/>
<path d="M208.71 319.086L207.509 328.714H197.695L198.473 319.086H208.71Z" fill="#C7C7C7"/>
<path d="M313.978 462.992H317.997L306.315 319.086H296.078L313.978 462.992Z" fill="#EBEBEB"/>
<path d="M296.078 319.086L297.28 328.714H307.093L306.315 319.086H296.078Z" fill="#C7C7C7"/>
<path d="M389.317 332.077C390.276 338.685 389.923 345.497 388.318 351.963C387.571 354.992 386.531 357.91 385.289 360.757C383.714 364.396 382.078 367.944 382.472 371.93C382.856 372.184 381.543 372.143 381.503 371.757C370.942 365.698 357.384 364.59 349.256 354.687C345.41 350.001 343.461 344.053 342.542 338.106C341.543 331.63 341.26 324.463 342.926 318.088C344.319 312.69 347.459 307.485 352.487 304.841C357.686 302.117 364.491 302.351 369.963 304.058C381.775 307.749 387.641 320.579 389.317 332.077Z" fill="#1F4EAD"/>
<path d="M394.739 410.839C393.296 406 391.852 401.16 390.378 396.331C387.48 386.876 384.462 377.452 381.13 368.14C379.131 362.558 377.021 357.038 374.81 351.568C375.183 348.132 375.335 344.706 376.072 341.28C376.96 337.152 378.243 333.167 379.434 329.131C379.505 328.887 379.111 328.755 379.01 328.989C376.637 334.55 373.538 341.666 373.467 348.254C370.883 342.063 368.126 335.963 365.158 329.954C364.987 324.831 364.805 319.869 365.623 314.715C365.663 314.481 365.31 314.41 365.269 314.644C364.472 318.975 363.916 323.611 364.239 328.104C361.968 323.59 359.575 319.127 357.031 314.735C356.799 314.339 356.253 314.745 356.455 315.132C360.423 322.828 364.108 330.686 367.561 338.657C362.775 334.387 356.98 331.144 350.993 328.999C350.731 328.907 350.529 329.283 350.802 329.395C357.606 332.262 363.331 336.309 368.722 341.341C371.206 347.176 373.568 353.053 375.819 358.98C369.207 352.453 360.161 348.163 351.407 345.855C351.105 345.773 351.034 346.231 351.317 346.322C361.443 349.393 369.308 355.177 377.011 362.121C377.909 364.52 378.788 366.92 379.646 369.319C382.907 378.438 386.006 387.619 388.964 396.84C390.388 401.262 391.781 405.684 393.154 410.117C394.628 414.885 395.789 419.928 397.708 424.533C397.889 424.97 398.677 424.868 398.576 424.35C397.718 419.785 396.062 415.292 394.739 410.839Z" fill="#263238"/>
<path d="M377.207 322.765C375.319 325.682 374.047 328.895 373.4 332.311C373.38 332.402 373.522 332.453 373.552 332.362C374.733 329.139 376.116 326.038 377.681 322.988C377.843 322.683 377.388 322.49 377.207 322.765Z" fill="#263238"/>
<path d="M358.36 344.932C355.624 343.366 351.999 342.126 348.88 341.719C348.789 341.709 348.738 341.831 348.829 341.872C350.354 342.512 351.959 342.95 353.494 343.549C355.048 344.149 356.553 344.881 358.117 345.43C358.451 345.542 358.673 345.115 358.36 344.932Z" fill="#263238"/>
<path d="M353.052 318.267C352.093 317.626 351.073 316.803 350.003 316.366C349.831 316.295 349.69 316.508 349.831 316.63C350.679 317.413 351.861 317.992 352.84 318.592C353.032 318.724 353.244 318.399 353.052 318.267Z" fill="#263238"/>
<path d="M424.941 368.208C417.329 370.485 409.686 372.58 402.074 374.837C401.418 375.04 388.545 350.213 393.199 337.424C397.5 325.59 407.334 316.735 419.065 312.709C424.497 310.849 431.181 309.293 436.915 310.564C442.014 311.703 445.618 315.912 447.284 320.741C449.545 327.308 448.788 335.147 447.556 341.857C446.415 348.078 444.154 354.199 440.065 359.089C436.027 363.918 430.868 366.439 424.941 368.208Z" fill="#1F4EAD"/>
<path d="M435.965 344.627C431.119 347.088 426.212 348.867 421.043 350.544C417.813 351.591 414.188 352.537 411.079 354.174C414.289 346.956 417.823 339.9 421.558 332.895C426.475 331.462 431.644 329.225 435.349 325.728C435.551 325.535 435.289 325.25 435.077 325.403C431.018 328.29 426.546 330.018 422.063 331.97C423.073 330.089 424.092 328.209 425.142 326.328C425.435 325.809 424.718 325.291 424.365 325.799C420.377 331.594 416.793 337.735 413.552 344.089C412.744 338.487 412.462 333.027 412.775 327.334C412.785 327.192 412.573 327.182 412.553 327.314C411.614 333.343 411.654 339.717 412.744 345.725C410.079 351.093 407.646 356.583 405.465 362.144C404.597 358.799 403.466 355.516 402.719 352.14C401.639 347.291 401.124 342.35 401.629 337.389C401.639 337.247 401.427 337.236 401.407 337.369C399.933 346.163 401.275 356.095 404.597 364.442C403.325 367.787 402.113 371.152 401.003 374.517C395.319 391.759 391.815 409.53 390.907 427.677C390.887 428.094 391.502 428.135 391.553 427.728C393.623 409.927 397.267 392.206 402.891 375.188C405.102 368.508 407.636 362.022 410.422 355.658C414.915 354.316 419.398 352.506 423.81 350.971C428.121 349.467 432.532 347.728 436.147 344.882C436.278 344.78 436.127 344.546 435.965 344.627Z" fill="#263238"/>
<path d="M443.059 337.417C438.405 339.085 433.993 341.413 429.349 343.111C429.127 343.192 429.258 343.538 429.48 343.487C434.397 342.46 439.284 340.935 443.241 337.682C443.393 337.56 443.221 337.356 443.059 337.417Z" fill="#263238"/>
<path d="M405.063 327.298C405.124 327.054 404.76 326.911 404.679 327.165C403.407 331.486 402.519 336.071 403.761 340.484C403.811 340.656 404.084 340.667 404.094 340.463C404.326 336.01 404.074 331.679 405.063 327.298Z" fill="#263238"/>
<path d="M424.296 317.327C422.741 319.33 422.176 322.177 422.277 324.678C422.287 324.84 422.55 324.942 422.59 324.739C423.155 322.268 424.104 320.011 424.862 317.612C424.973 317.256 424.518 317.043 424.296 317.327Z" fill="#263238"/>
<path d="M334.416 379.16C336.648 386.287 341.948 396.149 350.338 396.22C355.78 396.271 361.262 395.62 366.714 395.549C372.559 395.457 378.415 395.467 384.24 395.823C384.715 395.854 383.544 378.205 369.5 369.614C365.563 367.205 360.757 366.442 356.294 365.476C351.186 364.358 345.926 363.606 340.686 363.84C337.465 363.972 334.78 364.653 333.629 367.977C332.448 371.464 333.346 375.775 334.416 379.16Z" fill="#1F4EAD"/>
<path d="M340.461 370.242C343.874 371.127 347.317 372.143 350.739 373.231C349.82 372.276 348.932 371.31 347.912 370.456C346.438 369.226 344.823 368.24 343.248 367.162C343.117 367.07 343.197 366.816 343.369 366.887C346.479 368.118 349.719 370.69 351.648 373.516C355.918 374.909 360.138 376.434 364.207 378.121C367.095 379.311 369.76 380.734 372.254 382.391C371.355 380.643 370.537 378.853 369.346 377.288C367.488 374.858 364.964 373.506 362.521 371.777C362.289 371.615 362.481 371.289 362.743 371.401C368.256 373.862 371.607 377.867 373.697 383.357C376.575 385.431 379.21 387.84 381.663 390.636C390.951 401.26 398.271 415.402 398.291 429.818C398.291 430.163 397.746 430.255 397.675 429.899C395.04 415.575 389.417 402.704 379.957 391.582C379.291 390.799 378.614 390.057 377.917 389.335C375.363 389.06 372.829 388.725 370.245 388.766C367.256 388.806 364.288 389.213 361.31 389.447C356.413 389.843 350.991 389.904 346.569 387.424C346.378 387.312 346.509 386.976 346.721 387.058C356.575 390.667 366.913 386.092 376.797 388.237C372.587 384.17 367.791 381.1 362.228 378.772C361.925 378.65 361.623 378.528 361.32 378.406C355 379.168 348.316 380.836 342.157 378.762C341.976 378.701 342.046 378.416 342.238 378.467C348.195 379.961 353.899 378.081 359.775 377.786C353.384 375.275 346.862 373.282 340.441 370.791C339.886 370.588 339.876 370.09 340.461 370.242Z" fill="#263238"/>
<path d="M337.664 376.501C340.753 377.01 343.762 377.03 346.871 377.203C346.942 377.203 346.962 377.315 346.892 377.335C343.863 378.016 340.551 377.599 337.603 376.735C337.452 376.695 337.512 376.481 337.664 376.501Z" fill="#263238"/>
<path d="M358.461 370.397C360.136 370.987 361.701 372.42 363.014 373.589C363.175 373.732 362.963 374.026 362.782 373.894C362.014 373.325 361.217 372.796 360.409 372.268C359.682 371.79 358.864 371.414 358.188 370.854C357.986 370.682 358.208 370.305 358.461 370.397Z" fill="#263238"/>
<path d="M408.034 393.353C407.933 393.587 408.267 393.81 408.398 393.556C408.408 393.556 408.408 393.556 408.408 393.546C408.458 393.607 408.519 393.678 408.63 393.688C414.304 394.919 420.008 396.179 425.783 396.698C430.427 397.115 435.778 397.369 439.837 394.654C445.339 390.984 448.964 381.153 445.985 374.901C442.462 367.49 431.851 371.515 426.53 374.149C418.342 378.185 411.76 384.986 408.034 393.353Z" fill="#1F4EAD"/>
<path d="M403.917 396.779C407.037 393.698 410.5 391.136 414.155 388.93C416.669 384.64 420.515 381.071 424.543 378.276C424.745 378.133 424.917 378.459 424.735 378.601C421.272 381.285 418.567 384.447 415.982 387.873C420.081 385.575 424.412 383.674 428.834 381.986C430.369 379.14 432.883 376.486 435.74 375.022C435.801 374.992 435.871 375.073 435.811 375.114C433.317 377.076 431.318 379.119 429.581 381.702C432.196 380.726 434.831 379.811 437.466 378.926C437.709 378.845 437.789 379.211 437.567 379.302C432.873 381.153 428.077 383.094 423.433 385.341C429.299 386.134 434.579 386.317 440.546 385.29C440.707 385.26 440.768 385.494 440.616 385.534C434.862 387.192 428.259 387.497 422.454 385.809C419.485 387.273 416.598 388.879 413.842 390.668C416.144 390.363 418.466 390.77 420.808 391.238C424.887 392.051 428.875 392.773 433.044 392.631C433.196 392.62 433.236 392.885 433.085 392.905C425.987 394.135 419.273 390.882 412.236 391.736C409.632 393.535 407.168 395.528 404.907 397.765C400.485 402.136 396.951 407.362 394.225 412.943C391.267 419.013 389.662 425.448 387.259 431.721C387.158 431.995 386.774 431.893 386.825 431.599C388.864 419.226 394.972 405.593 403.917 396.779Z" fill="#263238"/>
<path d="M425.332 379.821C425.745 378.967 426.472 378.245 427.149 377.605C427.744 377.046 428.471 376.314 429.249 376.029C429.319 375.999 429.36 376.1 429.319 376.151C428.734 376.812 427.926 377.3 427.3 377.94C426.664 378.581 426.139 379.333 425.503 379.963C425.412 380.035 425.281 379.933 425.332 379.821Z" fill="#263238"/>
<path d="M437.046 383.661C438.096 383.396 439.216 383.417 440.286 383.193C441.367 382.969 442.376 382.583 443.426 382.248C443.568 382.207 443.648 382.41 443.527 382.481C441.801 383.518 439.075 384.393 437.056 383.996C436.874 383.955 436.884 383.701 437.046 383.661Z" fill="#263238"/>
<path d="M374.672 416.359L375.611 427.014L378.771 462.993H406.747L410.694 427.014L411.866 416.359H374.672Z" fill="#25AFE1"/>
<path d="M374.672 416.359L375.611 427.014H410.694L411.866 416.359H374.672Z" fill="#263238"/>
<path d="M371.907 422.094H414.633V413.452H371.907V422.094Z" fill="#25AFE1"/>
<path d="M56.0625 462.992C181.848 462.372 322.95 462.362 448.726 462.992C322.95 463.613 181.848 463.613 56.0625 462.992Z" fill="#263238"/>
<path d="M390.71 95.7891H114.211V217.197H390.71V95.7891Z" fill="white"/>
<path d="M390.718 217.206C390.667 217.277 114.138 217.298 114.067 217.359C113.956 217.359 114.047 95.8493 113.977 95.7984V95.5544H114.219C114.259 95.5036 390.778 95.7273 390.819 95.6866C390.889 95.7476 390.657 217.125 390.718 217.206ZM390.718 217.206C390.708 217.227 390.496 95.3613 390.718 95.9001L114.219 96.0424L114.461 95.7984C114.481 95.7781 114.532 217.826 114.219 217.064C114.209 217.054 390.718 217.206 390.718 217.206Z" fill="#263238"/>
<path d="M136.944 131.156V125.338H140.592V126.094H137.822V127.866H140.401V128.619H137.822V130.401H140.626V131.156H136.944ZM141.696 131.156V126.793H142.511V127.503H142.565C142.656 127.262 142.805 127.075 143.011 126.94C143.218 126.804 143.465 126.736 143.753 126.736C144.045 126.736 144.289 126.804 144.486 126.94C144.685 127.077 144.831 127.264 144.926 127.503H144.972C145.076 127.27 145.241 127.084 145.469 126.946C145.696 126.806 145.967 126.736 146.281 126.736C146.677 126.736 147 126.86 147.25 127.108C147.502 127.356 147.628 127.73 147.628 128.23V131.156H146.778V128.31C146.778 128.014 146.698 127.8 146.537 127.668C146.376 127.535 146.184 127.469 145.96 127.469C145.684 127.469 145.469 127.554 145.315 127.724C145.162 127.893 145.085 128.11 145.085 128.375V131.156H144.239V128.256C144.239 128.019 144.165 127.829 144.017 127.685C143.869 127.541 143.677 127.469 143.44 127.469C143.279 127.469 143.131 127.511 142.994 127.597C142.86 127.68 142.751 127.796 142.668 127.946C142.586 128.096 142.545 128.269 142.545 128.466V131.156H141.696ZM150.036 131.253C149.76 131.253 149.51 131.202 149.286 131.099C149.063 130.995 148.886 130.845 148.755 130.648C148.626 130.451 148.562 130.209 148.562 129.923C148.562 129.677 148.609 129.474 148.704 129.315C148.799 129.156 148.926 129.03 149.087 128.938C149.248 128.845 149.428 128.775 149.627 128.727C149.826 128.68 150.029 128.644 150.235 128.619C150.496 128.589 150.709 128.564 150.871 128.545C151.034 128.525 151.153 128.491 151.227 128.446C151.3 128.401 151.337 128.327 151.337 128.224V128.205C151.337 127.956 151.267 127.764 151.127 127.628C150.989 127.491 150.782 127.423 150.508 127.423C150.222 127.423 149.996 127.487 149.832 127.614C149.669 127.739 149.556 127.878 149.494 128.031L148.695 127.849C148.79 127.584 148.928 127.37 149.11 127.207C149.294 127.043 149.505 126.923 149.744 126.849C149.982 126.774 150.233 126.736 150.496 126.736C150.671 126.736 150.855 126.757 151.05 126.798C151.247 126.838 151.431 126.912 151.602 127.02C151.774 127.128 151.915 127.282 152.025 127.483C152.135 127.682 152.19 127.94 152.19 128.259V131.156H151.36V130.56H151.326C151.271 130.67 151.189 130.777 151.079 130.884C150.969 130.99 150.828 131.078 150.656 131.148C150.483 131.218 150.277 131.253 150.036 131.253ZM150.221 130.571C150.456 130.571 150.656 130.525 150.823 130.432C150.992 130.339 151.12 130.218 151.207 130.068C151.296 129.917 151.34 129.755 151.34 129.582V129.02C151.31 129.05 151.251 129.079 151.164 129.105C151.079 129.13 150.981 129.152 150.871 129.17C150.762 129.187 150.655 129.204 150.55 129.219C150.446 129.232 150.359 129.243 150.289 129.253C150.124 129.274 149.974 129.309 149.837 129.358C149.703 129.407 149.595 129.478 149.513 129.571C149.434 129.662 149.394 129.783 149.394 129.935C149.394 130.145 149.472 130.304 149.627 130.412C149.782 130.518 149.98 130.571 150.221 130.571ZM153.321 131.156V126.793H154.17V131.156H153.321ZM153.75 126.119C153.602 126.119 153.475 126.07 153.369 125.972C153.265 125.871 153.213 125.752 153.213 125.614C153.213 125.473 153.265 125.354 153.369 125.256C153.475 125.155 153.602 125.105 153.75 125.105C153.898 125.105 154.024 125.155 154.128 125.256C154.234 125.354 154.287 125.473 154.287 125.614C154.287 125.752 154.234 125.871 154.128 125.972C154.024 126.07 153.898 126.119 153.75 126.119ZM156.163 125.338V131.156H155.313V125.338H156.163Z" fill="black"/>
<path d="M390.71 95.7891H114.211V104.481H390.71V95.7891Z" fill="#1F4EAD"/>
<path d="M122.543 100.139C122.543 101.105 121.766 101.888 120.807 101.888C119.848 101.888 119.07 101.105 119.07 100.139C119.07 99.1734 119.848 98.3906 120.807 98.3906C121.766 98.3906 122.543 99.1734 122.543 100.139Z" fill="white"/>
<path d="M129.653 100.139C129.653 101.105 128.875 101.888 127.916 101.888C126.957 101.888 126.18 101.105 126.18 100.139C126.18 99.1734 126.957 98.3906 127.916 98.3906C128.875 98.3906 129.653 99.1734 129.653 100.139Z" fill="white"/>
<path d="M136.762 100.139C136.762 101.105 135.985 101.888 135.026 101.888C134.066 101.888 133.289 101.105 133.289 100.139C133.289 99.1734 134.066 98.3906 135.026 98.3906C135.985 98.3906 136.762 99.1734 136.762 100.139Z" fill="white"/>
<path d="M370.841 146.273H133.969V169.331H370.841V146.273Z" fill="#EBEBEB"/>
<path d="M199.929 179.984H133.578V201.009H199.929V179.984Z" fill="#1F4EAD"/>
<path d="M328.715 183.342L332.582 192.746L328.715 194.362L324.828 184.887L318.438 189.879V163.375L336.863 182.112L328.715 183.342Z" fill="#25AFE1"/>
<path d="M319.789 157.478V151.062" stroke="#25AFE1" stroke-miterlimit="10"/>
<path d="M312.534 160.62L308.031 156.086" stroke="#25AFE1" stroke-miterlimit="10"/>
<path d="M309.605 168.008H303.234" stroke="#25AFE1" stroke-miterlimit="10"/>
<path d="M312.722 175.32L308.219 179.865" stroke="#25AFE1" stroke-miterlimit="10"/>
<path d="M320.062 178.266V184.681" stroke="#25AFE1" stroke-miterlimit="10"/>
<path d="M327.32 175.125L331.823 179.669" stroke="#25AFE1" stroke-miterlimit="10"/>
<path d="M330.25 167.734H336.621" stroke="#25AFE1" stroke-miterlimit="10"/>
<path d="M327.133 160.425L331.636 155.891" stroke="#25AFE1" stroke-miterlimit="10"/>
<path d="M116.669 153.779C116.669 153.779 106.311 147.75 96.8911 153.403C87.4715 159.055 82.7769 173.339 84.1499 185.427C85.523 197.515 75.6087 205.292 74.3871 214.229C73.1655 223.165 78.9303 227.414 80.798 232.152C82.9384 237.571 73.5996 256.521 96.3863 261.381C124.887 267.47 136.164 249.964 133.519 235.253C132.227 228.055 128.31 222.88 128.491 217.075C128.673 211.27 132.833 206.726 130.844 199.325C128.855 191.923 126.018 192.869 125.079 181.289C124.14 169.71 126.765 155.944 116.669 153.779Z" fill="#263238"/>
<path d="M98.8831 153.166C92.6135 157.11 87.8785 162.722 85.0516 169.3C83.618 172.634 82.7195 176.152 82.4368 179.741C82.0531 184.448 82.6892 188.87 80.8618 193.404C77.934 200.674 72.2499 206.672 72.361 214.835C72.4115 218.597 73.522 222.318 75.6018 225.541C78.0046 229.272 81.4676 232.251 83.4666 236.226C83.5473 236.388 83.7997 236.256 83.7291 236.093C82.0733 232.555 79.3272 229.821 77.0556 226.639C74.3398 222.826 72.8456 218.333 73.0677 213.737C73.4312 205.991 79.0445 200.135 81.7402 193.12C82.9618 189.948 83.093 186.847 83.0526 183.492C83.0022 179.527 83.4969 175.654 84.7589 171.862C87.2425 164.379 92.3409 157.974 98.9639 153.267C99.0144 153.227 98.9437 153.125 98.8831 153.166Z" fill="#263238"/>
<path d="M85.1942 240.977C85.154 240.977 85.154 241.027 85.1942 241.027C85.2343 241.037 85.2343 240.977 85.1942 240.977Z" fill="#263238"/>
<path d="M133.463 233.18C132.806 229.703 131.07 226.521 130.414 223.054C129.626 218.876 130.747 214.758 131.615 210.692C132.847 204.887 132.826 199.387 130.373 193.856C128.788 190.277 126.84 186.922 125.679 183.171C124.427 179.104 123.76 174.855 123.73 170.615C123.73 170.524 123.579 170.524 123.579 170.615C123.417 176.858 124.467 182.795 127.072 188.549C128.566 191.853 130.454 194.964 131.282 198.522C132.281 202.792 131.787 206.889 130.969 211.139C130.424 213.965 129.777 216.832 129.747 219.73C129.717 222.739 130.605 225.423 131.615 228.249C134.22 235.579 134.028 243.031 131.08 250.229C131.029 250.351 131.252 250.442 131.302 250.32C133.735 244.922 134.553 238.995 133.463 233.18Z" fill="#263238"/>
<path d="M73.6427 213.173C74.0162 206.789 78.519 202.539 81.2954 197.059C83.3954 192.912 84.8593 188.479 84.2738 183.853C84.2637 183.782 84.1324 183.792 84.1324 183.863C84.3545 190.543 81.457 196.531 77.6912 202.051C75.1874 205.721 73.0975 209.249 72.9965 213.722C72.8956 218.094 74.5614 221.825 76.9744 225.495C78.6907 228.108 80.3868 230.548 81.0733 233.618C81.7599 236.668 81.5377 239.85 81.3257 242.931C81.3156 243.093 81.5781 243.093 81.5882 242.931C82.093 238.152 82.2546 233.516 79.9426 229.104C77.1056 223.696 73.259 219.659 73.6427 213.173Z" fill="#263238"/>
<path d="M134.646 228.674C133.727 226.468 132.425 224.445 131.122 222.422C128.76 218.783 128.416 215.865 129.305 211.615C129.325 211.514 129.184 211.473 129.143 211.575C127.912 215.062 127.589 217.979 129.588 221.253C132.384 225.818 135.14 229.986 135.625 235.384C136.503 244.961 130.971 253.786 122.187 258.452C122.066 258.523 122.167 258.696 122.298 258.635C129.658 255.158 134.898 248.702 136.11 241.006C136.756 236.869 136.261 232.578 134.646 228.674Z" fill="#263238"/>
<path d="M90.321 327.578L88.3825 342.248L64.5358 462.995H57.7109L76.54 342.248L78.0644 327.578H90.321Z" fill="#1F4EAD"/>
<path opacity="0.3" d="M90.321 327.578L88.3825 342.248L64.5358 462.995H57.7109L76.54 342.248L78.0644 327.578H90.321Z" fill="black"/>
<path d="M154.901 462.995H148.066L124.22 342.248L122.281 327.578H134.538L136.062 342.248L154.901 462.995Z" fill="#1F4EAD"/>
<path opacity="0.3" d="M154.901 462.995H148.066L124.22 342.248L122.281 327.578H134.538L136.062 342.248L154.901 462.995Z" fill="black"/>
<path d="M143.801 424.859H67.6875V428.306H143.801V424.859Z" fill="#1F4EAD"/>
<path opacity="0.3" d="M143.801 424.859H67.6875V428.306H143.801V424.859Z" fill="black"/>
<path opacity="0.3" d="M76.5391 341.73H88.3817L90.3201 327.578H78.0636L76.5391 341.73Z" fill="black"/>
<path opacity="0.3" d="M136.062 341.73H124.22L122.281 327.578H134.538L136.062 341.73Z" fill="black"/>
<path d="M142.52 317.836H70.1016V332.008H142.52V317.836Z" fill="#1F4EAD"/>
<path opacity="0.3" d="M142.52 317.836H70.1016V332.008H142.52V317.836Z" fill="black"/>
<path d="M186.186 461.379C183.642 461.42 116.12 439.4 114.131 436.97C113.888 436.695 115.736 430.504 118.401 422.076L118.452 421.913C120.128 416.566 140.683 375.219 140.683 375.219L184.298 391.322L163.773 429.467C163.773 429.467 171.688 436.238 178.422 442.612C178.432 442.622 178.442 442.632 178.432 442.643C182.592 446.557 186.176 450.064 186.903 451.162C188.811 454.039 188.73 461.359 186.186 461.379Z" fill="#EB9481"/>
<path d="M114.131 436.973C116.12 439.393 183.642 461.414 186.186 461.373C188.72 461.363 188.801 454.033 186.913 451.166C186.176 450.068 182.602 446.55 178.452 442.636C178.452 442.636 178.442 442.626 178.432 442.606C175.847 440.166 173.101 437.665 170.678 435.509C178.947 444.832 183.45 458.13 119.29 419.914C118.876 420.799 118.603 421.47 118.472 421.907L118.421 422.08C115.736 430.508 113.888 436.699 114.131 436.973Z" fill="#263238"/>
<path d="M168.354 427.87L120.105 414.521C120.105 414.521 157.682 330.719 156.35 326.531C155.451 323.735 96.2381 324.924 78.5197 309.634C60.1753 293.815 73.4212 261.587 73.4212 261.587L123.205 260.164C123.205 260.164 122.589 270.646 124.527 272.232C125.809 273.289 194.018 277.732 207.627 302.629C219.985 325.219 168.354 427.87 168.354 427.87Z" fill="#37474F"/>
<path d="M156.347 326.528C156.579 327.23 155.691 330.239 154.035 334.733L190.835 378.164C202.92 348.569 214.137 314.512 207.635 302.627C194.015 277.729 125.817 273.287 124.525 272.239C122.596 270.653 123.202 260.172 123.202 260.172L91.6016 261.077L145.615 324.81C151.965 325.349 156.115 325.796 156.347 326.528Z" fill="#263238"/>
<path d="M169.308 417.629C168.056 417.029 166.683 416.673 165.37 416.256C163.977 415.819 162.584 415.372 161.181 414.955C158.424 414.131 155.658 413.349 152.882 412.627C147.278 411.173 141.675 409.75 136.031 408.448C133.093 407.767 126.794 406.283 126.41 406.354C126.228 406.385 126.188 406.7 126.359 406.761C131.821 408.591 137.354 410.126 142.897 411.691C148.429 413.247 153.962 414.782 159.565 416.073C161.12 416.429 162.675 416.744 164.229 417.08C165.855 417.435 167.501 417.913 169.177 418.025C169.338 418.035 169.49 417.72 169.308 417.629Z" fill="#263238"/>
<path d="M76.3219 271.069C76.4329 269.392 76.5844 267.714 76.7358 266.047C76.756 265.854 77.0589 265.844 77.0387 266.047C76.5339 272.838 76.0089 279.802 77.4021 286.522C78.7045 292.815 81.9049 298.275 86.6703 302.545C96.7662 311.593 110.638 314.002 123.551 315.903C130.951 316.991 138.392 317.794 145.843 318.354C149.498 318.628 153.152 318.842 156.817 318.984C160.442 319.126 164.076 319.075 167.701 319.197C168.842 319.238 169.881 319.736 169.73 321.058C169.639 321.861 169.215 322.644 168.912 323.376C168.549 324.27 168.175 325.165 167.812 326.06C166.439 329.404 165.045 332.749 163.652 336.084C160.775 342.967 157.857 349.819 154.899 356.661C149.023 370.243 142.905 383.724 136.565 397.093C135.777 398.75 134.99 400.407 134.192 402.064C134.142 402.176 133.98 402.074 134.031 401.973C140.068 388.441 146.045 374.879 151.921 361.266C154.838 354.516 157.756 347.765 160.644 340.994C162.087 337.609 163.521 334.223 164.944 330.838C165.651 329.14 166.368 327.442 167.075 325.745C167.428 324.901 167.781 324.047 168.135 323.203C168.428 322.501 169.518 320.794 168.72 320.163C168.195 319.736 167.115 319.919 166.489 319.909C165.53 319.899 164.561 319.889 163.602 319.879C161.774 319.858 159.937 319.828 158.109 319.777C154.404 319.675 150.699 319.513 146.994 319.269C139.745 318.811 132.506 318.049 125.308 317.052C112.476 315.283 98.5129 313.27 88.0736 304.863C83.4698 301.152 79.8151 296.333 77.9271 290.68C75.8474 284.398 75.8776 277.617 76.3219 271.069Z" fill="#263238"/>
<path d="M292.695 395.203C290.938 397.064 227.979 430.054 224.87 429.779C224.506 429.769 221.427 424.096 217.328 416.268L217.247 416.116C214.632 411.164 191.008 369.563 191.008 369.563L230.16 348.438L254.39 388.89C254.39 388.89 264.739 387.965 273.977 387.599C273.987 387.599 273.997 387.599 274.007 387.609C279.701 387.365 284.688 387.253 285.981 387.507C289.343 388.168 294.461 393.363 292.695 395.203Z" fill="#EB9481"/>
<path d="M216.867 415.415C217.029 415.689 217.15 415.923 217.251 416.106L217.342 416.269C221.441 424.097 224.51 429.77 224.883 429.78C227.993 430.054 290.941 397.054 292.698 395.194C294.475 393.353 289.356 388.158 285.994 387.518C284.702 387.274 279.705 387.365 274.01 387.619C274.01 387.609 274 387.62 273.99 387.609C270.053 387.772 265.934 388.016 262.491 388.27C275.182 388.24 291.093 393.73 216.867 415.415Z" fill="#263238"/>
<path d="M254.036 382.261L206.817 407.412C206.817 407.412 167.766 331.947 163.566 327.118C157.963 320.692 87.1393 331.611 69.9054 310.821C52.0759 289.329 66.291 261.778 66.291 261.778L120.355 260.477C120.355 260.477 120.658 266.515 117.74 275.411C117.74 275.411 179.477 270.257 197.377 286.981C211.108 299.821 254.036 382.261 254.036 382.261Z" fill="#37474F"/>
<path d="M108.016 281.155C110.762 279.193 113.548 277.322 116.496 275.665C117.981 274.831 121.04 273.378 122.948 272.859C124.513 272.432 125.199 272.31 123.745 273.042C122.907 273.469 121.302 274.282 119.808 275.035C120.091 275.014 120.373 275.004 120.646 274.984C121.706 274.903 122.766 274.842 123.836 274.791C125.916 274.689 127.996 274.648 130.076 274.587C134.296 274.465 138.486 274.77 142.696 274.882C142.807 274.882 142.807 275.055 142.696 275.055C138.496 275.014 134.276 275.34 130.076 275.421C127.996 275.462 125.916 275.573 123.836 275.655C122.817 275.695 121.807 275.736 120.787 275.777C119.949 275.807 119.061 275.899 118.203 275.838C117.758 276.061 117.355 276.265 117.052 276.417C114.033 277.942 111.014 279.528 108.107 281.267C108.026 281.338 107.935 281.216 108.016 281.155Z" fill="#263238"/>
<path d="M121.586 258.425C121.091 261.007 120.688 263.6 120.102 266.172C119.84 267.351 119.577 268.54 119.204 269.689C118.891 270.655 118.396 271.773 117.316 272.048C116.074 272.363 115.65 271.306 115.7 270.248C115.751 269.079 115.983 267.89 116.144 266.731C116.336 265.399 116.528 264.057 116.69 262.715C116.77 262.044 116.861 261.373 116.932 260.702C116.952 260.529 117.003 259.258 117.073 258.882C117.083 258.913 117.104 258.943 117.144 258.933C117.154 258.933 117.174 258.923 117.184 258.923C117.215 258.913 117.255 258.892 117.255 258.852C117.265 258.75 117.255 258.73 117.184 258.669C117.154 258.638 117.104 258.648 117.073 258.669C116.841 258.811 116.841 259.147 116.78 259.401C116.609 260.062 116.437 260.712 116.296 261.373C116.013 262.603 115.741 263.844 115.508 265.094C115.266 266.334 115.044 267.585 114.812 268.825C114.64 269.76 114.428 270.736 114.731 271.672C115.054 272.688 115.902 273.156 116.811 273.187C116.77 273.268 116.72 273.349 116.69 273.441C116.589 273.695 116.528 273.969 116.447 274.234C116.367 274.498 116.296 274.773 116.235 275.047C116.205 275.179 116.195 275.311 116.185 275.443C116.175 275.596 116.215 275.738 116.205 275.881C116.185 276.114 116.508 276.236 116.609 276.003C116.669 275.87 116.76 275.759 116.821 275.637C116.892 275.504 116.942 275.342 116.982 275.199C117.053 274.935 117.114 274.681 117.164 274.417C117.215 274.152 117.275 273.888 117.305 273.634C117.326 273.481 117.326 273.319 117.326 273.166C117.841 273.085 118.335 272.882 118.749 272.526C119.466 271.906 119.86 271.011 120.132 270.116C120.455 269.039 120.688 267.92 120.92 266.822C121.505 264.088 121.97 261.322 122.071 258.526C122.061 258.201 121.647 258.12 121.586 258.425Z" fill="#263238"/>
<path d="M95.6892 266.353C95.5277 267.634 95.457 268.915 95.245 270.186C95.033 271.426 94.7705 272.677 94.4373 273.886C94.1142 275.045 93.7104 276.225 93.0844 277.251C92.4686 278.248 91.6407 279.132 90.7725 279.905C89.0763 281.43 87.1177 282.68 85.0279 283.575C83.9678 284.022 82.8875 284.419 81.787 284.734C81.2116 284.897 80.626 285.039 80.0404 285.141C79.5558 285.232 79.0611 285.283 78.6371 285.557C78.4554 285.679 78.5058 285.974 78.6876 286.056C79.465 286.391 80.5149 286.117 81.3226 285.984C82.2616 285.832 83.1904 285.618 84.099 285.324C85.9264 284.734 87.6831 283.849 89.2783 282.772C90.8431 281.715 92.3979 280.413 93.5085 278.868C94.6594 277.262 95.245 275.432 95.5782 273.5C95.982 271.192 96.2041 268.691 95.9517 266.353C95.9214 266.221 95.7094 266.211 95.6892 266.353Z" fill="#263238"/>
<path d="M244.139 373.742C242.817 374.169 241.575 374.86 240.343 375.47C239.031 376.111 237.718 376.751 236.416 377.412C233.851 378.723 231.307 380.055 228.793 381.458C223.735 384.274 218.677 387.121 213.69 390.069C211.095 391.604 205.502 394.878 205.26 395.203C205.148 395.356 205.34 395.61 205.502 395.539C210.711 393.089 215.8 390.384 220.888 387.69C225.966 384.996 231.045 382.292 235.992 379.354C237.365 378.541 238.708 377.687 240.071 376.863C241.494 375.999 243.019 375.206 244.311 374.128C244.432 374.006 244.331 373.681 244.139 373.742Z" fill="#263238"/>
<path d="M66.625 274.449C66.625 274.215 66.9784 274.215 66.9885 274.449C67.1601 286.272 69.2802 299.448 78.508 307.724C88.6343 316.792 102.95 317.565 115.813 317.158C123.193 316.924 130.563 316.558 137.953 316.629C145.374 316.69 152.875 316.884 160.265 317.656C163.244 317.971 165.768 318.988 167.908 321.123C169.998 323.197 171.522 325.789 173.087 328.26C176.944 334.37 180.689 340.551 184.314 346.803C191.522 359.227 198.216 371.945 204.405 384.917C205.172 386.524 205.94 388.14 206.687 389.757C206.737 389.869 206.576 389.96 206.525 389.848C200.245 376.825 193.481 364.046 186.323 351.5C182.749 345.217 179.044 339.016 175.238 332.875C173.451 329.988 171.714 327.03 169.725 324.275C167.969 321.835 165.788 319.568 162.83 318.734C161.043 318.236 159.145 318.185 157.307 318.053C155.419 317.921 153.531 317.809 151.633 317.717C147.948 317.534 144.253 317.412 140.568 317.372C133.117 317.27 125.687 317.534 118.246 317.849C105.323 318.388 91.1986 318.266 80.2849 310.235C75.57 306.758 72.1172 301.929 69.9971 296.459C67.8466 290.888 66.9784 284.869 66.7159 278.922C66.6553 277.428 66.625 275.943 66.625 274.449Z" fill="#263238"/>
<path d="M145.191 324.423C147.826 324.413 150.471 324.454 153.106 324.484C155.297 324.505 157.508 324.434 159.669 324.922C161.678 325.379 163.263 325.582 164.949 327.789C167.049 330.544 178.649 351.883 183.536 361.328C184.888 363.951 186.231 366.574 187.544 369.217C188.896 371.941 190.108 374.747 191.461 377.472C191.511 377.574 191.36 377.665 191.309 377.564C190.118 375.286 188.796 373.07 187.564 370.803C186.332 368.536 185.131 366.258 183.929 363.971C181.506 359.366 179.093 354.76 176.66 350.155C174.247 345.6 171.34 341.168 168.896 336.623C166.837 332.811 164.03 327.595 162.142 326.863C159.911 325.999 156.307 325.166 153.934 325.054C151.026 324.922 148.109 324.81 145.201 324.627C145.06 324.627 145.06 324.423 145.191 324.423Z" fill="#263238"/>
<path d="M107.637 215.402C113.695 226.047 137.804 258.874 145.396 259.962C153.292 261.1 182.398 258.589 187.709 252.286C190.303 249.206 186.114 222.783 182.085 224.257C178.047 225.731 153.15 231.791 149.95 231.323C146.77 230.855 120.944 205.693 111.434 200.264C95.0175 190.911 104.366 209.679 107.637 215.402Z" fill="#EB9481"/>
<path d="M175.661 225.112L181.799 257.859C181.799 257.859 152.652 263.877 144.05 261.335C135.449 258.804 111.43 224.411 104.424 210.798C97.417 197.195 103.535 193.617 116.115 202.096C128.694 210.564 148.856 229.575 150.815 229.657C152.773 229.728 175.661 225.112 175.661 225.112Z" fill="#1F4EAD"/>
<path d="M151.876 233.907C151.442 235.077 151.089 236.266 150.998 237.567C151.796 236.541 152.321 235.412 152.775 234.253C153.199 233.094 153.563 231.905 153.653 230.603C152.856 231.63 152.341 232.759 151.876 233.907ZM132.25 223.639C131.099 223.212 129.908 222.846 128.625 222.755C129.645 223.558 130.766 224.097 131.907 224.544C133.068 224.981 134.239 225.347 135.531 225.439C134.522 224.636 133.401 224.107 132.25 223.639ZM169.716 242.62C168.565 242.183 167.374 241.827 166.092 241.736C167.111 242.539 168.222 243.067 169.373 243.535C170.534 243.962 171.715 244.318 172.997 244.409C171.978 243.616 170.867 243.088 169.716 242.62ZM155.218 257.717C154.703 256.589 154.118 255.491 153.27 254.515C153.431 255.796 153.855 256.965 154.33 258.114C154.855 259.242 155.44 260.34 156.278 261.316C156.127 260.025 155.703 258.866 155.218 257.717ZM135.329 246.788C134.209 247.307 133.118 247.886 132.139 248.74C133.421 248.588 134.582 248.161 135.713 247.673C136.844 247.154 137.924 246.575 138.903 245.721C137.621 245.873 136.46 246.3 135.329 246.788ZM116.117 202.097C115.854 201.924 115.592 201.751 115.339 201.578H115.329C115.087 201.68 114.855 201.781 114.612 201.883C113.492 202.402 112.401 202.991 111.422 203.835C112.704 203.683 113.865 203.256 115.006 202.768C115.42 202.574 115.824 202.381 116.217 202.168C116.187 202.137 116.147 202.117 116.117 202.097Z" fill="white"/>
<path d="M170.389 242.964C169.894 240.371 167.986 229.991 167.703 227.378C167.703 227.338 167.764 227.317 167.774 227.358C168.521 229.798 170.712 239.985 171.206 242.587C172.206 247.762 173.317 252.947 173.751 258.203C173.761 258.295 173.609 258.345 173.589 258.244C172.186 253.232 171.368 248.067 170.389 242.964Z" fill="#263238"/>
<path opacity="0.1" d="M166.16 260.53C157.8 261.73 148.35 262.604 144.049 261.334C135.448 258.792 111.429 224.399 104.423 210.796C100.021 202.236 100.798 197.651 105.119 197.539L166.16 260.53Z" fill="black"/>
<path d="M127.636 272.035L60.3359 271.191C60.3359 271.191 78.7611 214.838 93.0267 200.402C99.5185 193.834 105.637 195.054 110.705 199.568C111.967 200.697 127.262 222.27 128.403 229.488C129.413 235.862 124.264 242.257 124.264 242.257L127.636 272.035Z" fill="#1F4EAD"/>
<path d="M106.238 241.293C109.015 241.192 111.811 241.171 114.567 241.486C115.94 241.639 117.303 241.852 118.656 242.107C119.333 242.229 120.009 242.33 120.696 242.422C121.392 242.523 122.139 242.595 122.846 242.523C122.907 242.513 122.917 242.615 122.856 242.625C122.18 242.737 121.523 242.849 120.827 242.879C120.171 242.9 119.504 242.859 118.848 242.788C117.455 242.645 116.062 242.442 114.668 242.279C111.862 241.964 109.045 241.649 106.218 241.537C106.107 241.517 106.117 241.293 106.238 241.293Z" fill="#263238"/>
<path d="M99.805 244.701C102.016 244.152 104.298 243.695 106.559 243.41C107.7 243.257 108.841 243.186 109.982 243.135C110.527 243.115 111.082 243.095 111.627 243.095C112.233 243.085 112.839 243.156 113.435 243.146C113.495 243.146 113.515 243.237 113.445 243.247C112.879 243.278 112.314 243.41 111.749 243.471C111.183 243.542 110.608 243.603 110.042 243.664C108.901 243.796 107.771 243.939 106.63 244.061C104.348 244.305 102.087 244.569 99.8151 244.894C99.704 244.904 99.6939 244.732 99.805 244.701Z" fill="#263238"/>
<path d="M113.097 202.656C112.511 203.002 111.946 203.378 111.421 203.836C112.178 203.744 112.885 203.561 113.581 203.327C113.41 203.093 113.248 202.87 113.097 202.656ZM102.163 250.184C101.042 250.713 99.9516 251.293 98.9723 252.147C100.255 251.994 101.416 251.567 102.556 251.079C103.667 250.561 104.767 249.971 105.737 249.117C104.454 249.28 103.293 249.696 102.163 250.184ZM73.6819 253.184C73.167 252.065 72.5814 250.957 71.7334 249.991C71.8949 251.272 72.3088 252.441 72.7934 253.58C73.3184 254.719 73.8939 255.817 74.742 256.793C74.5905 255.501 74.1665 254.332 73.6819 253.184ZM114.964 234.874C114.439 233.745 113.864 232.657 113.026 231.671C113.177 232.962 113.601 234.132 114.086 235.27C114.601 236.399 115.176 237.497 116.024 238.483C115.863 237.192 115.449 236.023 114.964 234.874ZM87.9576 236.521C86.8067 236.084 85.6254 235.728 84.3331 235.626C85.3528 236.429 86.4634 236.968 87.6244 237.426C88.7754 237.853 89.9566 238.208 91.2489 238.31C90.2292 237.507 89.1086 236.988 87.9576 236.521ZM61.2537 268.464C61.1427 268.779 61.0518 269.074 60.9609 269.338C61.8595 269.633 62.7883 269.867 63.7676 269.928C62.9801 269.308 62.1321 268.85 61.2537 268.464ZM117.68 261.52C117.256 262.689 116.893 263.879 116.802 265.17C117.599 264.153 118.124 263.025 118.589 261.866C119.013 260.707 119.366 259.517 119.457 258.216C118.67 259.243 118.145 260.371 117.68 261.52ZM89.4013 266.715C88.9773 267.884 88.6138 269.064 88.523 270.365C89.3206 269.338 89.8456 268.22 90.2999 267.061C90.7239 265.892 91.0975 264.702 91.1782 263.401C90.3907 264.438 89.8658 265.556 89.4013 266.715ZM96.943 216.483C96.5089 217.652 96.1555 218.851 96.0647 220.143C96.8522 219.116 97.3873 217.987 97.8416 216.838C98.2656 215.669 98.6291 214.48 98.7199 213.189C97.9223 214.216 97.4074 215.334 96.943 216.483Z" fill="white"/>
<path d="M83.5553 208.237C65.4431 230.664 45.655 267.904 55.3471 275.112C64.2013 281.689 94.8022 273.343 113.863 264.63C117.488 262.973 100.718 230.776 97.0435 232.941C90.5922 236.743 85.5139 239.021 85.0192 239.183C83.9692 239.529 89.4413 232.026 95.0344 214.377C100.729 196.444 93.9037 195.417 83.5553 208.237Z" fill="#EB9481"/>
<path d="M144.209 227.951C144.431 231.784 134.991 231.54 134.991 231.54C134.991 231.54 137.303 232.81 138.05 235.24C138.908 238.026 134.94 240.608 134.94 240.608C134.94 240.608 137.02 242.377 137.555 245.031C138.111 247.786 134.476 250.958 134.476 250.958C134.476 250.958 135.516 253.682 134.345 256.305C132.346 260.799 124.834 261.287 120.251 262.517C115.334 263.839 108.216 266.736 105.299 268.21L94.8594 234.213C94.8594 234.213 114.345 221.109 119.978 221.078C124.723 221.058 143.865 222.095 144.209 227.951Z" fill="#EB9481"/>
<path d="M134.908 231.44C129.85 230.25 124.529 230.281 119.38 230.362C119.269 230.362 119.269 230.545 119.38 230.545C124.489 230.403 129.769 231.633 134.878 231.684C135.019 231.684 135.039 231.47 134.908 231.44Z" fill="#263238"/>
<path d="M134.789 240.234C133.638 240.001 132.416 240.153 131.245 240.224C129.993 240.306 128.741 240.417 127.5 240.539C125.006 240.794 122.512 241.099 120.029 241.485C119.918 241.505 119.918 241.678 120.029 241.668C122.522 241.424 125.016 241.21 127.51 241.078C128.762 241.007 130.014 240.946 131.265 240.895C132.426 240.844 133.658 240.895 134.789 240.59C134.971 240.529 134.961 240.265 134.789 240.234Z" fill="#263238"/>
<path d="M134.373 250.971C133.383 250.727 132.192 251.011 131.182 251.133C130.041 251.276 128.911 251.408 127.77 251.53C125.498 251.784 123.217 252.028 120.935 252.201C120.824 252.211 120.824 252.384 120.935 252.384C123.257 252.221 125.579 252.089 127.891 251.906C129.032 251.815 130.163 251.723 131.303 251.621C132.273 251.53 133.484 251.54 134.373 251.093C134.443 251.062 134.423 250.981 134.373 250.971Z" fill="#263238"/>
<path d="M93.9469 233.878L103.326 270.559C103.326 270.559 57.8841 285.138 52.4827 273.65C47.0813 262.162 71.8771 217.114 86.8394 203.837C101.802 190.559 96.9858 210.475 96.5921 212.061C94.8455 219.137 85.9812 237.823 85.9812 237.823L93.9469 233.878Z" fill="#1F4EAD"/>
<path d="M89.4066 266.715C88.9825 267.884 88.6191 269.063 88.5282 270.364C89.3258 269.338 89.8508 268.219 90.3051 267.06C90.7291 265.891 91.1027 264.702 91.1834 263.4C90.396 264.437 89.871 265.556 89.4066 266.715ZM60.4916 268.138C59.3407 267.711 58.1595 267.345 56.8672 267.264C57.8869 268.067 59.0075 268.585 60.1484 269.053C61.3094 269.48 62.4907 269.846 63.7728 269.927C62.7632 269.124 61.6426 268.606 60.4916 268.138ZM88.3061 236.663L87.1451 237.232C87.3066 237.293 87.4681 237.364 87.6297 237.425C88.7806 237.852 89.9618 238.208 91.2541 238.31C90.3354 237.588 89.3359 237.09 88.3061 236.663ZM86.408 236.897C86.509 236.673 86.6302 236.409 86.7715 236.114C85.9941 235.87 85.1864 235.697 84.3384 235.626C84.9946 236.144 85.6912 236.551 86.408 236.897ZM73.6871 253.183C73.1722 252.065 72.5866 250.957 71.7386 249.991C71.9001 251.272 72.314 252.441 72.7987 253.58C73.3236 254.718 73.8991 255.816 74.7472 256.792C74.5957 255.501 74.1717 254.332 73.6871 253.183ZM74.3736 218.739C74.0405 219.217 73.7174 219.705 73.3842 220.183C73.778 220.041 74.1616 219.888 74.5352 219.725C75.6558 219.207 76.7462 218.627 77.7255 217.773C76.5342 217.926 75.4438 218.302 74.3736 218.739Z" fill="white"/>
<path d="M93.146 233.947C87.9567 236.103 74.4482 243.819 71.5608 246.838C71.48 246.93 71.581 247.072 71.6718 246.991C74.5593 244.703 91.2479 235.34 93.8729 234.161C93.8729 234.161 94.0243 234.486 94.0849 234.567C94.1859 234.689 94.2465 234.608 94.2364 234.496C94.2263 234.415 94.0243 233.652 93.9941 233.602C93.9941 233.602 93.7114 233.713 93.146 233.947Z" fill="#263238"/>
<path d="M90.2979 254.897C89.6619 252.335 87.1884 242.077 86.7744 239.484C86.7643 239.444 86.835 239.413 86.8451 239.464C87.7234 241.863 90.4595 251.908 91.1056 254.48C92.3878 259.594 93.781 264.707 94.4878 269.933C94.4979 270.024 94.3565 270.085 94.3262 269.984C92.6503 265.053 91.5498 259.939 90.2979 254.897Z" fill="#263238"/>
<path d="M85.6194 238.054C86.9016 234.821 88.4968 231.72 89.9203 228.548C91.3338 225.386 92.828 222.245 94.1304 219.043C94.1506 219.002 94.2212 219.032 94.201 219.073C93.4135 221.249 92.6362 223.424 91.7881 225.57C92.0607 225.224 92.3131 224.868 92.5655 224.502C93.0198 223.841 93.4337 223.16 93.8376 222.469C93.8679 222.428 93.9284 222.459 93.9082 222.509C93.6054 223.282 93.2116 223.994 92.7371 224.675C92.3837 225.183 91.99 225.641 91.5761 226.098C91.2227 226.972 90.8694 227.847 90.4857 228.711C89.0824 231.913 88.0223 235.075 86.1444 238.034C86.094 238.135 85.5791 238.156 85.6194 238.054Z" fill="#263238"/>
<path d="M59.2261 277.481C68.6154 278.813 98.1158 271.93 103.144 270.609C103.053 270.07 103.053 269.877 102.932 269.114C102.911 269.012 103.073 268.962 103.093 269.063C103.275 269.785 103.84 271.208 103.638 271.3C101.246 272.398 68.3832 279.941 59.2362 277.715C59.0948 277.674 59.0848 277.461 59.2261 277.481Z" fill="#263238"/>
<path d="M134.828 266.266L175.283 270.862L189.397 214.082L148.942 209.477L134.828 266.266Z" fill="#37474F"/>
<path d="M136.82 266.491L177.275 271.096L191.389 214.306L150.935 209.711L136.82 266.491Z" fill="#455A64"/>
<path d="M169.703 238.483C169.269 240.648 167.149 242.204 164.978 241.96C162.808 241.716 161.394 239.754 161.828 237.588C162.263 235.423 164.383 233.867 166.553 234.111C168.724 234.355 170.137 236.317 169.703 238.483Z" fill="white"/>
<path d="M191.222 225.953C192.999 230.67 197.946 236.75 198.087 240.491C198.218 243.877 195.361 244.832 195.361 244.832C195.361 244.832 198.895 246.977 198.471 250.393C198.249 252.152 195.27 253.352 195.27 253.352C195.27 253.352 198.027 255.192 197.461 258.211C197.017 260.621 194.089 261.454 194.089 261.454C194.089 261.454 195.917 264.464 194.675 266.761C192.161 271.438 171.363 269.75 168.768 261.78C167.557 258.059 172.615 258.75 172.615 258.75C172.615 258.75 165.578 255.995 165.81 251.664C166.043 247.333 172.565 248.634 172.565 248.634C172.565 248.634 165.77 245.9 166.456 241.437C167.173 236.791 173.473 239.21 173.473 239.21C173.473 239.21 169.102 235.682 170.404 232.388C172.565 226.949 180.762 234.666 185.417 233.944L188.546 226.553L191.222 225.953Z" fill="#EB9481"/>
<path d="M194.863 232.886C193.561 228.271 199.517 223.187 198.901 218.592C198.074 212.38 190.774 217.819 188.553 226.563L188.008 233.659L194.863 232.886Z" fill="#EB9481"/>
<path d="M193.637 261.661C193.708 261.661 193.718 261.763 193.648 261.773C186.671 262.902 178.665 261.987 172.325 258.754C172.113 258.652 172.194 258.266 172.446 258.337C179.624 260.401 186.146 261.661 193.637 261.661Z" fill="#263238"/>
<path d="M195.368 253.401C195.448 253.401 195.448 253.533 195.368 253.554C188.169 254.672 179.184 253.391 172.308 248.806C172.076 248.654 172.016 248.267 172.298 248.43C177.094 251.124 188.624 253.432 195.368 253.401Z" fill="#263238"/>
<path d="M173.087 238.725C179.851 242.862 187.252 244.408 195.076 244.896C195.177 244.906 195.157 245.048 195.076 245.068C191.179 245.882 186.222 245.048 182.426 244.072C178.781 243.137 175.682 241.561 172.946 238.969C172.834 238.857 172.935 238.633 173.087 238.725Z" fill="#263238"/>
<path d="M98.7744 198.802C98.9966 200.002 104.307 207.962 109.718 207.932C111.475 207.922 111.849 198.243 111.849 198.243L112.041 197.532L114.686 187.609L103.328 179.567L101.682 178.5C101.682 178.5 101.137 181.265 100.491 184.702C100.46 184.864 100.43 185.017 100.4 185.19C100.36 185.383 100.319 185.566 100.289 185.749C100.188 186.257 100.087 186.786 99.9961 187.314C99.9254 187.711 99.8547 188.097 99.7941 188.524C99.7235 188.941 99.6629 189.358 99.5922 189.775C98.9663 193.953 98.6836 198.294 98.7744 198.802Z" fill="#EB9481"/>
<path d="M100.484 184.712C102.998 192.804 109.187 196.322 112.044 197.532L114.689 187.609L103.331 179.567L101.686 178.5C101.676 178.5 101.131 181.265 100.484 184.712Z" fill="#263238"/>
<path d="M127.322 168.741C132.612 185.953 122.971 191.087 119.286 192.235C115.934 193.272 104.404 196.383 97.3773 179.812C90.3404 163.241 96.6201 155.321 104.152 152.535C111.683 149.75 122.022 151.529 127.322 168.741Z" fill="#EB9481"/>
<path d="M123.982 166.51C123.568 166.582 123.164 166.571 122.75 166.602C122.276 166.632 121.902 166.704 121.478 166.449C121.246 166.317 121.155 165.931 121.266 165.697C121.518 165.148 122.094 164.965 122.659 164.914C123.275 164.853 123.77 164.965 124.285 165.311C124.789 165.636 124.537 166.429 123.982 166.51Z" fill="#263238"/>
<path d="M112.173 169.875C112.567 169.712 112.9 169.499 113.263 169.296C113.677 169.072 114.03 168.93 114.263 168.492C114.384 168.259 114.263 167.882 114.051 167.74C113.546 167.405 112.97 167.557 112.455 167.811C111.9 168.086 111.537 168.442 111.284 169.011C111.032 169.55 111.658 170.089 112.173 169.875Z" fill="#263238"/>
<path d="M116.113 173.344C116.093 173.303 116.043 173.425 116.053 173.476C116.447 174.635 116.719 176.028 115.78 176.75C115.75 176.77 115.77 176.831 115.81 176.811C117.042 176.231 116.679 174.381 116.113 173.344Z" fill="#263238"/>
<path d="M114.698 172.448C112.78 172.895 113.799 176.718 115.576 176.301C117.323 175.894 116.303 172.072 114.698 172.448Z" fill="#263238"/>
<path d="M114 172.846C113.727 173.151 113.505 173.619 113.112 173.771C112.657 173.944 112.203 173.639 111.799 173.334C111.759 173.304 111.728 173.344 111.749 173.395C111.93 174.127 112.415 174.808 113.223 174.707C113.96 174.615 114.303 173.822 114.283 173.039C114.283 172.897 114.111 172.724 114 172.846Z" fill="#263238"/>
<path d="M122.586 171.321C122.586 171.27 122.697 171.351 122.707 171.402C122.98 172.602 123.484 173.923 124.656 174.035C124.696 174.035 124.706 174.096 124.666 174.106C123.313 174.269 122.657 172.5 122.586 171.321Z" fill="#263238"/>
<path d="M123.321 169.807C125.178 169.166 126.319 172.959 124.593 173.548C122.897 174.138 121.756 170.346 123.321 169.807Z" fill="#263238"/>
<path d="M124.18 169.818C124.533 169.93 124.937 170.204 125.3 170.123C125.724 170.021 125.906 169.523 126.047 169.045C126.058 168.994 126.098 169.015 126.118 169.065C126.36 169.787 126.34 170.611 125.694 170.956C125.098 171.272 124.452 170.794 124.059 170.123C123.998 170.011 124.038 169.777 124.18 169.818Z" fill="#263238"/>
<path d="M118.577 183.103C118.92 183.316 119.294 183.642 119.728 183.581C120.152 183.52 120.596 183.225 120.94 182.991C120.97 182.971 121.02 183.001 121 183.042C120.788 183.57 120.203 184.007 119.627 184.028C119.072 184.048 118.698 183.641 118.456 183.174C118.436 183.123 118.527 183.072 118.577 183.103Z" fill="#263238"/>
<path d="M122.279 177.451C122.279 177.451 123.016 179.149 123.248 179.983C123.269 180.064 123.077 180.156 122.804 180.247C122.794 180.257 122.784 180.268 122.774 180.257C121.381 180.898 119.765 180.806 118.544 179.861C118.463 179.8 118.544 179.678 118.634 179.708C119.947 180.207 121.209 180.074 122.511 179.729C122.501 179.485 121.158 176.872 121.28 176.821C121.724 176.658 122.693 176.709 123.279 176.719C121.845 173.141 119.866 169.827 118.493 166.248C118.443 166.116 118.624 166.024 118.695 166.136C121.027 169.461 122.754 173.548 124.329 177.197C124.531 177.634 122.653 177.492 122.279 177.451Z" fill="#263238"/>
<path d="M98.4141 179.09C101.746 179.08 101.615 171.424 101.615 171.424C101.615 171.424 115.264 167.236 114.992 155.646C114.992 155.646 118.313 162.63 126.037 164.979C126.037 164.979 123.947 152.505 113.77 151.346C113.77 151.346 100.948 148.438 95.3045 159.123C89.6609 169.798 96.1829 179.1 98.4141 179.09Z" fill="#263238"/>
<path d="M114.933 154.789C115.347 156.507 115.317 158.337 114.974 160.096C114.63 161.855 113.954 163.573 112.934 165.057C112.712 165.444 112.389 165.769 112.116 166.125L111.692 166.653C111.541 166.816 111.369 166.968 111.208 167.121C110.875 167.426 110.562 167.741 110.218 168.036C109.865 168.3 109.501 168.565 109.138 168.819C108.956 168.941 108.775 169.083 108.593 169.195L108.007 169.51L106.846 170.14C106.028 170.486 105.201 170.791 104.383 171.076C105.14 170.618 105.928 170.252 106.665 169.795L107.745 169.083L108.28 168.727C108.451 168.595 108.613 168.453 108.775 168.31C109.098 168.036 109.431 167.761 109.764 167.487C110.077 167.192 110.36 166.877 110.663 166.572L111.107 166.114L111.5 165.616C111.753 165.271 112.056 164.966 112.268 164.59C113.257 163.197 113.913 161.59 114.378 159.943C114.61 159.11 114.761 158.256 114.842 157.402C114.953 156.548 114.974 155.674 114.933 154.789Z" fill="#263238"/>
<path d="M99.8005 185.406C100.113 185.457 100.396 185.457 100.659 185.437C100.972 185.427 101.244 185.366 101.486 185.274C101.87 185.152 102.183 184.949 102.425 184.725C102.658 184.522 102.839 184.288 102.971 184.064C103.334 183.475 103.425 182.926 103.425 182.926L101.446 178.432C101.446 178.432 96.4385 173.776 94.2679 175.687C92.077 177.619 96.6606 184.959 99.8005 185.406Z" fill="#EB9481"/>
<path d="M95.6201 177.768C95.5696 177.778 95.5797 177.839 95.6201 177.849C97.8412 178.235 99.3253 179.903 100.496 181.712C99.7292 181.082 98.8105 180.848 97.9523 181.794C97.9119 181.845 97.9725 181.916 98.0331 181.895C98.8306 181.529 99.4667 181.55 100.173 182.099C100.678 182.485 101.082 183.034 101.486 183.522C101.617 183.685 101.93 183.512 101.809 183.319C101.799 183.309 101.789 183.288 101.779 183.278C101.284 180.645 98.4672 177.422 95.6201 177.768Z" fill="#263238"/>
<path d="M99.8948 184.614C100.077 185.041 100.571 185.224 100.985 185.041C101.409 184.858 101.591 184.36 101.409 183.943C101.227 183.516 100.733 183.333 100.319 183.516C99.8948 183.699 99.703 184.197 99.8948 184.614Z" fill="white"/>
<path d="M97.9555 183.752C98.0867 184.047 98.43 184.189 98.7228 184.057C99.0156 183.925 99.1569 183.579 99.0257 183.284C98.8944 182.989 98.5511 182.847 98.2584 182.979C97.9656 183.101 97.8242 183.457 97.9555 183.752Z" fill="white"/>
<path d="M116.121 202.095C116.121 202.095 115.182 210.015 108.63 210.757C102.067 211.499 91.2344 200.672 91.2344 200.672C91.2344 200.672 96.6559 195.375 104.228 195.66C110.326 195.873 116.121 202.095 116.121 202.095Z" fill="#EB9481"/>
<path d="M139.72 159.523V155.887H142V156.359H140.268V157.467H141.881V157.938H140.268V159.051H142.021V159.523H139.72ZM143.221 157.904V159.523H142.69V156.796H143.199V157.24H143.233C143.296 157.096 143.394 156.98 143.528 156.892C143.663 156.804 143.833 156.761 144.038 156.761C144.223 156.761 144.386 156.8 144.526 156.878C144.666 156.955 144.774 157.07 144.851 157.222C144.928 157.375 144.966 157.564 144.966 157.789V159.523H144.435V157.853C144.435 157.655 144.384 157.5 144.281 157.389C144.178 157.277 144.036 157.221 143.856 157.221C143.733 157.221 143.624 157.247 143.528 157.3C143.433 157.354 143.358 157.432 143.302 157.535C143.248 157.637 143.221 157.76 143.221 157.904ZM146.951 156.796V157.222H145.462V156.796H146.951ZM145.861 156.143H146.392V158.723C146.392 158.826 146.407 158.903 146.438 158.955C146.469 159.006 146.509 159.041 146.557 159.06C146.607 159.078 146.661 159.087 146.719 159.087C146.761 159.087 146.799 159.084 146.831 159.078C146.862 159.072 146.887 159.067 146.905 159.064L147.001 159.502C146.97 159.514 146.926 159.526 146.87 159.538C146.813 159.551 146.742 159.558 146.657 159.559C146.517 159.561 146.387 159.536 146.266 159.484C146.145 159.432 146.047 159.352 145.973 159.243C145.898 159.134 145.861 158.997 145.861 158.833V156.143ZM148.685 159.578C148.416 159.578 148.185 159.521 147.99 159.406C147.797 159.29 147.648 159.127 147.543 158.918C147.439 158.707 147.387 158.46 147.387 158.178C147.387 157.898 147.439 157.652 147.543 157.439C147.648 157.226 147.795 157.06 147.983 156.94C148.173 156.82 148.394 156.761 148.647 156.761C148.801 156.761 148.95 156.786 149.095 156.837C149.239 156.888 149.369 156.968 149.484 157.077C149.598 157.186 149.689 157.327 149.755 157.501C149.822 157.674 149.855 157.884 149.855 158.131V158.32H147.687V157.922H149.335C149.335 157.782 149.306 157.658 149.249 157.551C149.192 157.442 149.113 157.356 149.01 157.293C148.908 157.231 148.788 157.199 148.651 157.199C148.502 157.199 148.372 157.236 148.26 157.309C148.15 157.382 148.065 157.476 148.005 157.593C147.945 157.709 147.916 157.835 147.916 157.972V158.282C147.916 158.465 147.948 158.62 148.012 158.748C148.077 158.875 148.167 158.973 148.283 159.04C148.399 159.107 148.535 159.14 148.69 159.14C148.791 159.14 148.882 159.126 148.965 159.097C149.048 159.068 149.12 159.024 149.18 158.966C149.24 158.908 149.287 158.836 149.319 158.751L149.821 158.842C149.781 158.99 149.709 159.119 149.604 159.23C149.501 159.341 149.372 159.426 149.216 159.488C149.06 159.548 148.884 159.578 148.685 159.578ZM150.444 159.523V156.796H150.957V157.229H150.985C151.035 157.083 151.123 156.967 151.248 156.883C151.375 156.798 151.518 156.755 151.678 156.755C151.711 156.755 151.75 156.757 151.795 156.759C151.841 156.761 151.877 156.764 151.903 156.768V157.276C151.882 157.27 151.844 157.263 151.79 157.256C151.735 157.248 151.681 157.244 151.626 157.244C151.501 157.244 151.389 157.27 151.291 157.324C151.194 157.376 151.117 157.448 151.06 157.542C151.003 157.634 150.975 157.74 150.975 157.858V159.523H150.444ZM154.022 160.546C153.942 160.546 153.87 160.54 153.805 160.527C153.74 160.515 153.691 160.502 153.659 160.488L153.787 160.053C153.884 160.079 153.971 160.09 154.046 160.086C154.122 160.083 154.189 160.054 154.247 160.001C154.306 159.948 154.358 159.861 154.403 159.74L154.469 159.559L153.471 156.796H154.039L154.73 158.913H154.758L155.449 156.796H156.019L154.895 159.887C154.843 160.029 154.777 160.15 154.696 160.248C154.616 160.347 154.52 160.422 154.409 160.472C154.297 160.521 154.168 160.546 154.022 160.546ZM157.574 159.578C157.318 159.578 157.095 159.52 156.905 159.403C156.714 159.286 156.566 159.122 156.461 158.911C156.355 158.7 156.303 158.454 156.303 158.172C156.303 157.889 156.355 157.642 156.461 157.43C156.566 157.218 156.714 157.054 156.905 156.936C157.095 156.819 157.318 156.761 157.574 156.761C157.83 156.761 158.053 156.819 158.243 156.936C158.434 157.054 158.582 157.218 158.687 157.43C158.793 157.642 158.845 157.889 158.845 158.172C158.845 158.454 158.793 158.7 158.687 158.911C158.582 159.122 158.434 159.286 158.243 159.403C158.053 159.52 157.83 159.578 157.574 159.578ZM157.576 159.133C157.742 159.133 157.879 159.089 157.988 159.001C158.097 158.914 158.177 158.797 158.229 158.652C158.282 158.506 158.309 158.346 158.309 158.17C158.309 157.996 158.282 157.837 158.229 157.691C158.177 157.544 158.097 157.426 157.988 157.338C157.879 157.249 157.742 157.205 157.576 157.205C157.409 157.205 157.27 157.249 157.16 157.338C157.051 157.426 156.97 157.544 156.917 157.691C156.865 157.837 156.839 157.996 156.839 158.17C156.839 158.346 156.865 158.506 156.917 158.652C156.97 158.797 157.051 158.914 157.16 159.001C157.27 159.089 157.409 159.133 157.576 159.133ZM161.166 158.392V156.796H161.698V159.523H161.176V159.051H161.148C161.085 159.197 160.984 159.318 160.846 159.415C160.709 159.511 160.538 159.559 160.333 159.559C160.158 159.559 160.003 159.52 159.868 159.444C159.734 159.365 159.629 159.25 159.552 159.097C159.476 158.945 159.438 158.756 159.438 158.531V156.796H159.969V158.467C159.969 158.653 160.02 158.801 160.123 158.911C160.226 159.021 160.36 159.076 160.525 159.076C160.624 159.076 160.723 159.051 160.821 159.001C160.921 158.952 161.003 158.877 161.068 158.776C161.134 158.675 161.167 158.547 161.166 158.392ZM162.412 159.523V156.796H162.925V157.229H162.953C163.003 157.083 163.09 156.967 163.216 156.883C163.343 156.798 163.486 156.755 163.646 156.755C163.679 156.755 163.718 156.757 163.763 156.759C163.809 156.761 163.845 156.764 163.871 156.768V157.276C163.85 157.27 163.812 157.263 163.757 157.256C163.703 157.248 163.649 157.244 163.594 157.244C163.469 157.244 163.357 157.27 163.259 157.324C163.161 157.376 163.085 157.448 163.028 157.542C162.971 157.634 162.942 157.74 162.942 157.858V159.523H162.412ZM166.829 159.578C166.56 159.578 166.329 159.521 166.135 159.406C165.942 159.29 165.793 159.127 165.688 158.918C165.583 158.707 165.531 158.46 165.531 158.178C165.531 157.898 165.583 157.652 165.688 157.439C165.793 157.226 165.94 157.06 166.128 156.94C166.317 156.82 166.539 156.761 166.792 156.761C166.946 156.761 167.095 156.786 167.239 156.837C167.384 156.888 167.513 156.968 167.628 157.077C167.743 157.186 167.834 157.327 167.9 157.501C167.966 157.674 167.999 157.884 167.999 158.131V158.32H165.831V157.922H167.479C167.479 157.782 167.451 157.658 167.394 157.551C167.337 157.442 167.257 157.356 167.154 157.293C167.052 157.231 166.933 157.199 166.795 157.199C166.646 157.199 166.516 157.236 166.405 157.309C166.295 157.382 166.21 157.476 166.149 157.593C166.09 157.709 166.06 157.835 166.06 157.972V158.282C166.06 158.465 166.092 158.62 166.156 158.748C166.221 158.875 166.312 158.973 166.428 159.04C166.544 159.107 166.679 159.14 166.835 159.14C166.935 159.14 167.027 159.126 167.11 159.097C167.193 159.068 167.264 159.024 167.325 158.966C167.385 158.908 167.431 158.836 167.463 158.751L167.966 158.842C167.925 158.99 167.853 159.119 167.749 159.23C167.646 159.341 167.516 159.426 167.36 159.488C167.205 159.548 167.028 159.578 166.829 159.578ZM168.588 159.523V156.796H169.098V157.24H169.132C169.188 157.09 169.281 156.973 169.41 156.888C169.539 156.803 169.694 156.761 169.874 156.761C170.056 156.761 170.209 156.803 170.332 156.888C170.456 156.974 170.548 157.091 170.607 157.24H170.636C170.701 157.094 170.804 156.978 170.946 156.892C171.088 156.804 171.258 156.761 171.454 156.761C171.701 156.761 171.903 156.838 172.06 156.993C172.217 157.148 172.296 157.382 172.296 157.695V159.523H171.765V157.744C171.765 157.56 171.715 157.426 171.614 157.343C171.513 157.26 171.393 157.219 171.253 157.219C171.081 157.219 170.946 157.272 170.85 157.379C170.755 157.484 170.707 157.619 170.707 157.785V159.523H170.177V157.711C170.177 157.563 170.131 157.444 170.039 157.354C169.947 157.264 169.826 157.219 169.679 157.219C169.578 157.219 169.485 157.245 169.4 157.299C169.316 157.351 169.248 157.424 169.196 157.517C169.145 157.611 169.119 157.719 169.119 157.842V159.523H168.588ZM173.801 159.584C173.628 159.584 173.472 159.552 173.332 159.488C173.193 159.423 173.082 159.329 173 159.206C172.92 159.083 172.879 158.932 172.879 158.753C172.879 158.599 172.909 158.472 172.968 158.373C173.027 158.273 173.107 158.195 173.208 158.137C173.309 158.079 173.421 158.035 173.545 158.005C173.67 157.976 173.796 157.953 173.925 157.938C174.089 157.919 174.221 157.904 174.323 157.892C174.425 157.879 174.499 157.858 174.545 157.83C174.591 157.801 174.614 157.755 174.614 157.691V157.679C174.614 157.524 174.57 157.403 174.483 157.318C174.396 157.233 174.267 157.19 174.096 157.19C173.917 157.19 173.776 157.23 173.673 157.309C173.571 157.387 173.501 157.474 173.462 157.57L172.963 157.457C173.022 157.291 173.108 157.157 173.222 157.055C173.337 156.952 173.469 156.878 173.618 156.832C173.767 156.784 173.924 156.761 174.089 156.761C174.198 156.761 174.313 156.774 174.435 156.8C174.558 156.825 174.673 156.871 174.779 156.938C174.887 157.006 174.975 157.102 175.044 157.228C175.113 157.352 175.147 157.513 175.147 157.712V159.523H174.628V159.151H174.607C174.573 159.219 174.521 159.287 174.453 159.353C174.384 159.419 174.296 159.474 174.188 159.518C174.08 159.562 173.951 159.584 173.801 159.584ZM173.916 159.158C174.063 159.158 174.189 159.129 174.293 159.071C174.398 159.013 174.478 158.937 174.532 158.843C174.588 158.749 174.616 158.647 174.616 158.54V158.188C174.597 158.207 174.56 158.225 174.506 158.241C174.453 158.257 174.392 158.27 174.323 158.282C174.254 158.293 174.187 158.303 174.122 158.312C174.057 158.321 174.003 158.328 173.959 158.334C173.856 158.347 173.762 158.369 173.677 158.4C173.593 158.43 173.525 158.475 173.474 158.533C173.425 158.589 173.4 158.665 173.4 158.76C173.4 158.891 173.448 158.991 173.545 159.058C173.642 159.125 173.766 159.158 173.916 159.158ZM175.854 159.523V156.796H176.385V159.523H175.854ZM176.122 156.375C176.03 156.375 175.95 156.345 175.884 156.283C175.819 156.22 175.786 156.146 175.786 156.059C175.786 155.972 175.819 155.897 175.884 155.836C175.95 155.773 176.03 155.741 176.122 155.741C176.214 155.741 176.293 155.773 176.358 155.836C176.425 155.897 176.458 155.972 176.458 156.059C176.458 156.146 176.425 156.22 176.358 156.283C176.293 156.345 176.214 156.375 176.122 156.375ZM177.63 155.887V159.523H177.099V155.887H177.63ZM180.198 157.904V159.523H179.667V155.887H180.191V157.24H180.225C180.289 157.093 180.387 156.977 180.518 156.89C180.649 156.804 180.821 156.761 181.033 156.761C181.22 156.761 181.383 156.799 181.523 156.876C181.664 156.953 181.773 157.068 181.85 157.221C181.928 157.372 181.967 157.561 181.967 157.789V159.523H181.436V157.853C181.436 157.653 181.384 157.498 181.281 157.387C181.178 157.276 181.035 157.221 180.852 157.221C180.726 157.221 180.614 157.247 180.514 157.3C180.416 157.354 180.339 157.432 180.282 157.535C180.226 157.637 180.198 157.76 180.198 157.904ZM183.851 159.578C183.582 159.578 183.351 159.521 183.156 159.406C182.963 159.29 182.814 159.127 182.709 158.918C182.605 158.707 182.553 158.46 182.553 158.178C182.553 157.898 182.605 157.652 182.709 157.439C182.814 157.226 182.961 157.06 183.149 156.94C183.339 156.82 183.56 156.761 183.813 156.761C183.967 156.761 184.116 156.786 184.261 156.837C184.405 156.888 184.535 156.968 184.65 157.077C184.765 157.186 184.855 157.327 184.921 157.501C184.988 157.674 185.021 157.884 185.021 158.131V158.32H182.853V157.922H184.501C184.501 157.782 184.472 157.658 184.415 157.551C184.358 157.442 184.279 157.356 184.176 157.293C184.074 157.231 183.954 157.199 183.817 157.199C183.668 157.199 183.538 157.236 183.426 157.309C183.316 157.382 183.231 157.476 183.171 157.593C183.111 157.709 183.082 157.835 183.082 157.972V158.282C183.082 158.465 183.114 158.62 183.178 158.748C183.243 158.875 183.333 158.973 183.449 159.04C183.565 159.107 183.701 159.14 183.856 159.14C183.957 159.14 184.048 159.126 184.131 159.097C184.214 159.068 184.286 159.024 184.346 158.966C184.406 158.908 184.453 158.836 184.485 158.751L184.987 158.842C184.947 158.99 184.875 159.119 184.77 159.23C184.667 159.341 184.538 159.426 184.382 159.488C184.227 159.548 184.05 159.578 183.851 159.578ZM185.61 159.523V156.796H186.123V157.229H186.151C186.201 157.083 186.289 156.967 186.414 156.883C186.541 156.798 186.684 156.755 186.844 156.755C186.877 156.755 186.916 156.757 186.961 156.759C187.007 156.761 187.043 156.764 187.069 156.768V157.276C187.048 157.27 187.01 157.263 186.956 157.256C186.901 157.248 186.847 157.244 186.792 157.244C186.667 157.244 186.555 157.27 186.457 157.324C186.36 157.376 186.283 157.448 186.226 157.542C186.169 157.634 186.141 157.74 186.141 157.858V159.523H185.61ZM188.607 159.578C188.338 159.578 188.106 159.521 187.912 159.406C187.719 159.29 187.57 159.127 187.465 158.918C187.361 158.707 187.309 158.46 187.309 158.178C187.309 157.898 187.361 157.652 187.465 157.439C187.57 157.226 187.717 157.06 187.905 156.94C188.095 156.82 188.316 156.761 188.569 156.761C188.723 156.761 188.872 156.786 189.017 156.837C189.161 156.888 189.291 156.968 189.406 157.077C189.52 157.186 189.611 157.327 189.677 157.501C189.743 157.674 189.777 157.884 189.777 158.131V158.32H187.609V157.922H189.256C189.256 157.782 189.228 157.658 189.171 157.551C189.114 157.442 189.034 157.356 188.931 157.293C188.83 157.231 188.71 157.199 188.573 157.199C188.424 157.199 188.293 157.236 188.182 157.309C188.072 157.382 187.987 157.476 187.926 157.593C187.867 157.709 187.838 157.835 187.838 157.972V158.282C187.838 158.465 187.87 158.62 187.934 158.748C187.999 158.875 188.089 158.973 188.205 159.04C188.321 159.107 188.457 159.14 188.612 159.14C188.712 159.14 188.804 159.126 188.887 159.097C188.97 159.068 189.042 159.024 189.102 158.966C189.162 158.908 189.208 158.836 189.24 158.751L189.743 158.842C189.703 158.99 189.63 159.119 189.526 159.23C189.423 159.341 189.294 159.426 189.137 159.488C188.982 159.548 188.805 159.578 188.607 159.578Z" fill="#A6A6A6"/>
<path d="M154.609 187.276V193.094H153.802L150.844 188.827H150.79V193.094H149.913V187.276H150.725L153.685 191.548H153.739V187.276H154.609ZM157.702 193.182C157.272 193.182 156.902 193.09 156.591 192.906C156.282 192.721 156.044 192.46 155.875 192.125C155.708 191.788 155.625 191.393 155.625 190.94C155.625 190.493 155.708 190.099 155.875 189.759C156.044 189.418 156.278 189.152 156.58 188.96C156.883 188.769 157.237 188.673 157.642 188.673C157.888 188.673 158.127 188.714 158.358 188.795C158.589 188.877 158.796 189.005 158.98 189.179C159.164 189.353 159.309 189.58 159.415 189.858C159.521 190.134 159.574 190.471 159.574 190.866V191.168H156.105V190.531H158.741C158.741 190.308 158.696 190.11 158.605 189.938C158.514 189.763 158.386 189.626 158.222 189.526C158.059 189.425 157.867 189.375 157.648 189.375C157.409 189.375 157.201 189.434 157.023 189.551C156.847 189.667 156.71 189.818 156.614 190.006C156.519 190.191 156.472 190.393 156.472 190.611V191.108C156.472 191.4 156.523 191.648 156.625 191.852C156.729 192.057 156.874 192.213 157.06 192.321C157.245 192.427 157.462 192.48 157.71 192.48C157.871 192.48 158.018 192.457 158.151 192.412C158.283 192.365 158.398 192.295 158.494 192.202C158.591 192.109 158.665 191.994 158.716 191.858L159.52 192.003C159.455 192.24 159.34 192.447 159.173 192.625C159.009 192.801 158.801 192.938 158.551 193.037C158.303 193.134 158.02 193.182 157.702 193.182ZM161.085 188.73L162.048 190.429L163.02 188.73H163.949L162.588 190.912L163.96 193.094H163.031L162.048 191.463L161.068 193.094H160.136L161.494 190.912L160.153 188.73H161.085ZM166.858 188.73V189.412H164.474V188.73H166.858ZM165.114 187.685H165.963V191.812C165.963 191.977 165.988 192.101 166.037 192.185C166.086 192.266 166.15 192.322 166.227 192.352C166.307 192.381 166.393 192.395 166.486 192.395C166.554 192.395 166.614 192.39 166.665 192.381C166.716 192.371 166.756 192.364 166.784 192.358L166.938 193.06C166.888 193.079 166.818 193.098 166.727 193.116C166.636 193.137 166.523 193.149 166.386 193.151C166.163 193.154 165.955 193.115 165.761 193.031C165.568 192.948 165.412 192.819 165.293 192.645C165.173 192.471 165.114 192.252 165.114 191.989V187.685Z" fill="white"/>
</svg>
