<svg width="98" height="34" viewBox="0 0 98 34" fill="none" xmlns="http://www.w3.org/2000/svg">
<path d="M20.0865 11.484C22.1295 9.44455 24.7259 8.4248 27.8756 8.4248C31.0253 8.4248 33.6075 9.44455 35.6222 11.484C37.6653 13.5235 38.6868 16.0944 38.6868 19.1967C38.6868 22.299 37.6653 24.8699 35.6222 26.9094C33.6075 28.9489 31.0253 29.9686 27.8756 29.9686C24.7259 29.9686 22.1295 28.9489 20.0865 26.9094C18.0718 24.8699 17.0645 22.299 17.0645 19.1967C17.0645 16.0944 18.0718 13.5235 20.0865 11.484ZM23.7044 23.8933C24.8394 25.1285 26.2298 25.7461 27.8756 25.7461C29.5214 25.7461 30.8976 25.1285 32.0043 23.8933C33.1393 22.6294 33.7068 21.0639 33.7068 19.1967C33.7068 17.3296 33.1393 15.7784 32.0043 14.5433C30.8976 13.2794 29.5214 12.6474 27.8756 12.6474C26.2298 12.6474 24.8394 13.2794 23.7044 14.5433C22.5977 15.7784 22.0444 17.3296 22.0444 19.1967C22.0444 21.0639 22.5977 22.6294 23.7044 23.8933Z" fill="black"/>
<path d="M4.682 14.2847C4.682 14.888 5.00832 15.4337 5.66096 15.9221C6.31361 16.3817 7.09394 16.7982 8.00196 17.1716C8.90999 17.545 9.81801 17.9615 10.726 18.4211C11.6624 18.8807 12.457 19.5558 13.1096 20.4463C13.7622 21.3367 14.0886 22.3852 14.0886 23.5917C14.0886 25.6599 13.3082 27.2398 11.7476 28.3313C10.2153 29.4229 8.37085 29.9686 6.21429 29.9686C3.97261 29.9686 1.90118 29.5521 0 28.7191L0.425636 24.5396L0.851273 24.1087C2.44032 25.4875 4.19961 26.1769 6.12916 26.1769C8.34247 26.1769 9.44913 25.4588 9.44913 24.0225C9.44913 23.448 9.12281 22.9454 8.47016 22.5145C7.81752 22.0549 7.023 21.6384 6.0866 21.2649C5.17858 20.8915 4.25636 20.4606 3.31996 19.9723C2.41194 19.4553 1.63161 18.7371 0.978964 17.8179C0.326321 16.87 0 15.7497 0 14.4571C0 12.5038 0.766145 11.0101 2.29844 9.97596C3.83073 8.94186 5.49071 8.4248 7.27838 8.4248C9.20793 8.4248 11.1233 8.84132 13.0245 9.67435V14.0693L12.5988 14.5002C11.0382 12.9777 9.364 12.2165 7.57633 12.2165C6.75343 12.2165 6.05822 12.3889 5.49071 12.7336C4.95157 13.0783 4.682 13.5953 4.682 14.2847Z" fill="black"/>
<path d="M49.1365 25.6376L53.8384 8.97852H58.988L52.0659 29.4151H48.9313L49.1365 25.6376ZM45.7034 8.97852L50.4613 25.6753L50.6292 29.4151H47.476L40.5352 8.97852H45.7034Z" fill="black"/>
<path fill-rule="evenodd" clip-rule="evenodd" d="M62.8256 29.1743H68.1406V12.6743C68.1406 9.94642 66.5109 8.33008 64.0658 8.33008H62.8256V29.1743Z" fill="black"/>
<path fill-rule="evenodd" clip-rule="evenodd" d="M65.4339 0C66.2649 1.71891e-06 67.0618 0.334165 67.6494 0.928978C68.237 1.52379 68.5671 2.33053 68.5671 3.17172C68.5671 3.79903 68.3833 4.41225 68.0391 4.93384C67.6948 5.45543 67.2055 5.86196 66.6329 6.10202C66.0604 6.34209 65.4305 6.4049 64.8227 6.28252C64.2149 6.16013 63.6566 5.85806 63.2185 5.41448C62.7803 4.97091 62.4819 4.40576 62.361 3.7905C62.2401 3.17525 62.3021 2.53752 62.5393 1.95796C62.7764 1.3784 63.178 0.883044 63.6933 0.53453C64.2085 0.186017 64.8143 -1.28184e-06 65.4339 0Z" fill="#FFD302"/>
<path d="M75.4323 11.4154C77.4644 9.38455 80.0475 8.36914 83.1817 8.36914C86.3159 8.36914 88.8858 9.38455 90.8915 11.4154C92.9253 13.4462 93.9429 16.0061 93.9443 19.0953C93.9456 22.1844 92.9303 24.7444 90.8982 26.7752C88.8943 28.806 86.3253 29.8214 83.1911 29.8214C80.0569 29.8214 77.4729 28.806 75.439 26.7752C73.4334 24.7444 72.4299 22.1844 72.4285 19.0953C72.4272 16.0061 73.4284 13.4462 75.4323 11.4154ZM79.0378 23.7719C80.1678 25.0018 81.5516 25.6167 83.1893 25.6167C84.8269 25.6167 86.1961 25.0018 87.2968 23.7719C88.4257 22.5133 88.9897 20.9545 88.9889 19.0953C88.9881 17.2361 88.4227 15.6915 87.2927 14.4616C86.191 13.203 84.8212 12.5738 83.1836 12.5738C81.5459 12.5738 80.1626 13.203 79.0337 14.4616C77.933 15.6915 77.3831 17.2361 77.3839 19.0953C77.3847 20.9545 77.936 22.5133 79.0378 23.7719Z" fill="black"/>
</svg>
