<svg version="1.1" xmlns="http://www.w3.org/2000/svg" width="512px" height="512px" transform="rotate(0) scale(1, 1)">
<path d="M0 0 C2.38038149 0.00747237 4.76076918 0.01316059 7.14115906 0.01715088 C13.36694714 0.03232868 19.59235425 0.07154226 25.81799316 0.1159668 C32.18655242 0.15708974 38.555174 0.17519809 44.92382812 0.1953125 C57.3908182 0.23804465 69.857427 0.30832968 82.32421875 0.390625 C82.32421875 7.650625 82.32421875 14.910625 82.32421875 22.390625 C79.25641113 22.3999707 76.18860352 22.40931641 73.02783203 22.41894531 C62.86968127 22.45277598 52.71173236 22.50835898 42.55374336 22.57452774 C36.39747202 22.61396601 30.24134293 22.64617259 24.08496094 22.66162109 C18.13903134 22.67681141 12.19349296 22.71129994 6.24773788 22.75893402 C3.98409305 22.77372319 1.72039236 22.78166459 -0.54330063 22.78250885 C-3.72443662 22.7848876 -6.90449943 22.81204159 -10.08544922 22.84472656 C-11.01262253 22.8396962 -11.93979584 22.83466583 -12.89506531 22.82948303 C-22.20049879 22.97653446 -30.07835041 25.92374636 -36.91796875 32.3203125 C-41.75927059 38.02229022 -44.80188194 45.0744426 -44.79882908 52.53868389 C-44.80082013 53.61057608 -44.80281118 54.68246827 -44.80486256 55.78684205 C-44.80194972 56.9687337 -44.79903688 58.15062536 -44.79603577 59.36833191 C-44.79689019 60.62046221 -44.79774462 61.8725925 -44.79862493 63.16266614 C-44.80086644 66.64478118 -44.79685329 70.12686559 -44.79184687 73.60897672 C-44.78753764 77.36151529 -44.78898913 81.11405206 -44.78974915 84.86659241 C-44.79027408 91.37032164 -44.78713046 97.87404085 -44.78151131 104.37776756 C-44.77339219 113.78112164 -44.77078066 123.18447087 -44.76952332 132.58782808 C-44.76733345 147.84330415 -44.76067512 163.09877488 -44.7512207 178.35424805 C-44.74204491 193.17553684 -44.73496489 207.99682418 -44.73071289 222.81811523 C-44.73045017 223.73134771 -44.73018744 224.64458019 -44.72991676 225.58548637 C-44.72861174 230.16680027 -44.72734803 234.74811417 -44.72610486 239.32942808 C-44.71573427 277.34983079 -44.69811771 315.37022754 -44.67578125 353.390625 C-42.31929901 350.89279927 -39.96604109 348.39195685 -37.61328125 345.890625 C-36.62811523 344.84648438 -36.62811523 344.84648438 -35.62304688 343.78125 C-31.73625671 339.64555209 -27.93433404 335.45305206 -24.22018433 331.16146851 C-21.8050724 328.39225278 -19.30441262 325.70461693 -16.80078125 323.015625 C-13.21090106 319.14370278 -9.63892658 315.25887141 -6.11328125 311.328125 C-5.40171875 310.53664063 -4.69015625 309.74515625 -3.95703125 308.9296875 C-2.75395305 307.59064499 -1.5512266 306.25128178 -0.3515625 304.90917969 C12.65469553 290.38188167 24.67629837 280.33649065 44.875 278.109375 C58.87634867 277.55940386 72.72045455 282.30650854 83.32421875 291.390625 C92.09673855 299.77013591 99.61401637 309.37139769 107.04321289 318.93286133 C111.2586521 324.34907562 115.61605532 329.64173392 119.98950195 334.93066406 C125.60570406 341.72306219 131.16505415 348.5604393 136.71533203 355.40673828 C138.33258424 357.40094032 139.9511754 359.39404687 141.5703125 361.38671875 C142.1080127 362.04849121 142.64571289 362.71026367 143.19970703 363.39208984 C144.27450817 364.71435045 145.34969751 366.03629561 146.42529297 367.35791016 C149.28165856 370.86909473 152.12777982 374.38802169 154.9609375 377.91796875 C155.55519531 378.65595703 156.14945313 379.39394531 156.76171875 380.15429688 C157.90657497 381.57642296 159.04862093 383.00081713 160.1875 384.42773438 C162.82951023 387.90163776 162.82951023 387.90163776 166.32421875 390.390625 C172.36925364 385.59336284 178.19481879 380.66456352 183.82421875 375.390625 C188.56176498 370.95322318 193.4390996 366.79733362 198.51171875 362.7421875 C201.16049106 360.52751954 203.66082449 358.22314254 206.16113281 355.84570312 C218.82179159 343.81696214 232.34414924 335.74899237 250.13671875 335.078125 C264.02995979 335.45242785 276.61965417 339.75745335 286.82519531 349.24926758 C287.3381226 349.72621724 287.85104988 350.2031669 288.37952042 350.69456959 C294.79182508 356.70000445 300.98573279 362.927423 307.18359375 369.15234375 C308.46659623 370.43721717 309.74982401 371.72186565 311.03326416 373.00630188 C314.36934269 376.34615241 317.70240431 379.68899721 321.03479004 383.03253174 C324.4523224 386.46039422 327.87277765 389.88533755 331.29296875 393.31054688 C337.9728734 400.00109475 344.64958616 406.69481789 351.32421875 413.390625 C356.65038683 405.93398969 357.62260961 400.17084078 357.64306641 391.25439453 C357.65311203 390.2489006 357.66315765 389.24340668 357.67350769 388.20744324 C357.70430775 384.89611361 357.72136618 381.58486472 357.73828125 378.2734375 C357.75699543 375.97272041 357.77656903 373.67201016 357.79696655 371.37130737 C357.8482672 365.32482948 357.88790414 359.27832935 357.92510986 353.23175049 C357.96516235 347.05809027 358.01624905 340.88452243 358.06640625 334.7109375 C358.16314119 322.60422515 358.24653382 310.49747459 358.32421875 298.390625 C365.58421875 298.390625 372.84421875 298.390625 380.32421875 298.390625 C380.39209756 312.16897941 380.44709449 325.94722206 380.47965527 339.7257061 C380.49528576 346.12416694 380.51647645 352.52250706 380.55053711 358.92089844 C380.58322352 365.10007025 380.60109144 371.27912622 380.60885048 377.45837784 C380.61437731 379.81139066 380.62516976 382.16439741 380.64140892 384.51736069 C380.66330622 387.82274643 380.66618049 391.12765843 380.66479492 394.43310547 C380.68097366 395.87996986 380.68097366 395.87996986 380.69747925 397.35606384 C380.63046888 412.20855542 374.39227909 424.22540317 364.15234375 434.6875 C355.17471763 443.26832496 343.71258545 448.50778681 331.2064724 448.52205276 C329.94368599 448.52589391 328.68089959 448.52973505 327.37984693 448.5336926 C325.97575524 448.53291235 324.5716636 448.53203357 323.16757202 448.53106689 C321.67806821 448.53365053 320.1885651 448.53666368 318.69906294 448.5400703 C314.60003328 448.54814393 310.50102113 448.54993007 306.40198445 448.55066776 C301.98327619 448.55251771 297.56457703 448.56006481 293.14587402 448.56680298 C283.48045969 448.58038994 273.8150495 448.58641173 264.14962721 448.59081364 C258.11448675 448.59357574 252.0793479 448.59781307 246.04420853 448.60231781 C229.33513934 448.61451151 212.62607145 448.62481026 195.91699791 448.6281929 C194.84737874 448.62841247 193.77775957 448.62863203 192.6757277 448.62885825 C191.60354352 448.62907653 190.53135935 448.62929481 189.42668474 448.6295197 C187.25402029 448.62996317 185.08135585 448.63040973 182.90869141 448.63085938 C181.83097397 448.6310808 180.75325653 448.63130223 179.64288099 448.63153037 C162.18378369 448.63547756 144.72472815 448.6529287 127.26564698 448.6762189 C109.3412137 448.69993684 91.41680136 448.71239497 73.49235213 448.71356082 C63.42827241 448.71447739 53.36424708 448.7202251 43.30018234 448.73838043 C34.72934001 448.75378746 26.15856887 448.75889836 17.58771531 448.75064233 C13.21586974 448.74673782 8.84416753 448.74765568 4.47233963 448.76169968 C0.46634343 448.77445058 -3.53940189 448.77323069 -7.5453978 448.76110896 C-8.99094025 448.75915401 -10.43650054 448.76222108 -11.88201793 448.77095333 C-20.01262593 448.81694105 -27.05039461 448.31701587 -34.67578125 445.390625 C-35.58070312 445.060625 -36.485625 444.730625 -37.41796875 444.390625 C-49.70358441 438.63033634 -59.76455274 428.11004388 -64.82589293 415.53259277 C-67.65307329 406.97955661 -68.24469408 399.12457608 -68.18371582 390.171875 C-68.18833513 388.6767364 -68.19469491 387.18160236 -68.2026248 385.68647766 C-68.21920008 381.61345152 -68.21112611 377.54080409 -68.19867992 373.46777725 C-68.18958297 369.06141955 -68.20362207 364.65512435 -68.21459961 360.2487793 C-68.23234008 351.63076404 -68.22856484 343.01288852 -68.21694905 334.3948679 C-68.20789735 327.38774537 -68.20669822 320.38066186 -68.21104431 313.37353516 C-68.21165724 312.37436915 -68.21227018 311.37520315 -68.21290168 310.34575939 C-68.21418065 308.31565983 -68.2154775 306.28556028 -68.21679205 304.25546074 C-68.22818475 285.24125534 -68.21510472 266.22712722 -68.19359058 247.21293449 C-68.1757208 230.91535515 -68.17882528 214.61788979 -68.19726562 198.3203125 C-68.2186955 179.37185288 -68.22708623 160.4234609 -68.21481657 141.47499084 C-68.21354244 139.45256552 -68.21228496 137.43014019 -68.21104431 135.40771484 C-68.21042721 134.41277102 -68.20981011 133.41782721 -68.20917431 132.39273357 C-68.20572776 125.39803627 -68.21153473 118.40338204 -68.22096252 111.40869141 C-68.23220743 102.87874195 -68.2290902 94.34893963 -68.20783955 85.81900692 C-68.19736259 81.47100163 -68.19314971 77.12324124 -68.20643616 72.77523804 C-68.2184359 68.78786128 -68.2116741 64.80095431 -68.19052595 60.81361961 C-68.18609174 59.37839403 -68.18825373 57.94312799 -68.1980291 56.50792885 C-68.29957021 40.34861821 -64.09277468 27.06276347 -52.92578125 15.140625 C-37.06117877 0.28088218 -20.5714221 -0.19061591 0 0 Z M18.32421875 317.390625 C17.45603516 318.36322266 17.45603516 318.36322266 16.5703125 319.35546875 C15.47026479 320.60925807 14.37804157 321.86994742 13.29296875 323.13671875 C10.73443339 326.06583562 8.09373009 328.91420913 5.44921875 331.765625 C1.12649101 336.42981415 -3.15395024 341.12756942 -7.3984375 345.86328125 C-9.973879 348.72144703 -12.57263889 351.55772761 -15.17578125 354.390625 C-19.26250002 358.83853831 -23.31493853 363.31558455 -27.34765625 367.8125 C-29.05793099 369.7064284 -30.77552354 371.5914891 -32.50390625 373.46875 C-32.98923828 373.99597656 -33.47457031 374.52320313 -33.97460938 375.06640625 C-35.34766282 376.5558828 -36.72260307 378.04361937 -38.09765625 379.53125 C-38.9484375 380.47484375 -39.79921875 381.4184375 -40.67578125 382.390625 C-41.1442749 382.87692383 -41.61276855 383.36322266 -42.09545898 383.86425781 C-45.39168674 387.4528976 -46.33972238 389.79531921 -46.23828125 394.640625 C-45.80607857 404.39289067 -42.65526421 411.32220029 -35.96875 418.41015625 C-29.31573551 424.15645667 -21.93266078 426.54627567 -13.29170227 426.51087952 C-12.53368181 426.51173394 -11.77566135 426.51258837 -10.99467057 426.51346868 C-8.44735096 426.51511959 -5.90009678 426.50960846 -3.3527832 426.50415039 C-1.52970379 426.50386841 0.29337573 426.50402647 2.11645508 426.5045929 C7.07274083 426.50488044 12.02900251 426.49899059 16.98528266 426.49201894 C22.16229109 426.48577831 27.33930004 426.48518104 32.51631165 426.48399353 C42.32289842 426.48088231 52.12947408 426.47267174 61.93605596 426.46264404 C73.09915226 426.45147641 84.26224909 426.44597081 95.42534959 426.44094861 C118.39164548 426.43048896 141.35793149 426.41289356 164.32421875 426.390625 C163.38690769 425.13419934 162.44865053 423.87847946 161.51000977 422.62304688 C160.98762222 421.92369019 160.46523468 421.2243335 159.92701721 420.50378418 C157.44866134 417.2362739 154.86014432 414.06289642 152.26171875 410.890625 C151.11454219 409.48440857 149.96740797 408.07815759 148.8203125 406.671875 C148.24007324 405.96160156 147.65983398 405.25132812 147.06201172 404.51953125 C144.31001184 401.14815742 141.56741089 397.7691659 138.82421875 394.390625 C137.74093449 393.0572518 136.65760105 391.72391854 135.57421875 390.390625 C103.07421875 350.390625 103.07421875 350.390625 101.44824219 348.3894043 C100.36818859 347.06012005 99.28811058 345.73085563 98.20800781 344.40161133 C94.88597993 340.31323151 91.56475377 336.22420277 88.24462891 332.13427734 C87.14101811 330.77581343 86.03654156 329.41805235 84.93115234 328.06103516 C82.52262456 325.10387783 80.12119647 322.1426541 77.75390625 319.15234375 C70.58118082 310.16820122 63.75880748 302.48627146 51.8359375 300.9375 C36.8373627 300.26340675 27.99826533 306.52644966 18.32421875 317.390625 Z M225.87890625 368.9765625 C223.3500574 371.36620866 220.73164275 373.53506964 218.01171875 375.703125 C213.79025012 379.11483378 209.78331796 382.68363824 205.82421875 386.390625 C200.98769869 390.91843101 196.01479231 395.19185768 190.84765625 399.34375 C187.25193282 402.26040491 183.78035274 405.3108036 180.32421875 408.390625 C183.05601934 415.76181811 186.13244355 422.55735052 193.32421875 426.390625 C202.68256401 428.68410152 212.72978876 427.94743656 222.30576682 427.70874619 C226.14379775 427.62695858 229.98198711 427.61980299 233.820755 427.60441589 C241.07481372 427.56415803 248.32629709 427.45769456 255.57922632 427.32687253 C263.84256198 427.18109139 272.10602684 427.10997268 280.37033021 427.04483187 C297.35644451 426.90928624 314.34005857 426.68093109 331.32421875 426.390625 C327.64432363 422.01235958 323.86998447 417.80265659 319.84472656 413.73413086 C319.33322052 413.21605362 318.82171448 412.69797638 318.29470825 412.16419983 C316.62509845 410.47511004 314.95169834 408.78985459 313.27734375 407.10546875 C312.69956932 406.52361879 312.12179489 405.94176884 311.52651215 405.34228706 C308.47049716 402.26552387 305.41129516 399.19196934 302.34960938 396.12084961 C299.20994532 392.97011537 296.08214277 389.8078727 292.9568367 386.64290524 C290.53040671 384.19019361 288.09500166 381.74654008 285.65718842 379.30514717 C284.5009257 378.14405227 283.34800637 376.97961683 282.19870758 375.81162834 C272.89641321 366.36746861 264.53424393 358.36955014 250.69921875 358.078125 C239.77467154 358.21383366 233.68099583 361.51475097 225.87890625 368.9765625 Z " fill="#6b7280" transform="translate(99.67578125,31.609375)"/>
<path d="M0 0 C2.1980588 0.01611552 4.3942803 0.00001064 6.59228516 -0.01904297 C20.18246704 -0.03990882 33.42759411 1.9810201 46.44775391 5.95361328 C47.26719482 6.20336914 48.08663574 6.453125 48.9309082 6.71044922 C71.02195625 13.78863126 89.68492861 25.87741545 106.69775391 41.39111328 C107.44541016 42.06658203 108.19306641 42.74205078 108.96337891 43.43798828 C126.38942214 60.01398063 139.00937636 82.53785246 146.01025391 105.39111328 C146.24059326 106.13643311 146.47093262 106.88175293 146.70825195 107.6496582 C150.52103573 120.85378316 152.20766807 133.98861134 152.08886719 147.69335938 C152.07275167 149.89141818 152.08885655 152.08763968 152.10791016 154.28564453 C152.16732638 194.06991603 134.04183759 230.27356966 106.69775391 258.39111328 C78.03171295 286.63997693 38.69414544 299.99916961 -0.95996094 299.74243164 C-10.97291731 299.54733874 -20.5443546 298.64388393 -30.30224609 296.39111328 C-31.53950439 296.10905029 -31.53950439 296.10905029 -32.80175781 295.82128906 C-70.45762173 286.8988723 -103.66869383 263.28981848 -124.43408203 230.60986328 C-144.92192143 197.38433549 -153.44588147 157.19100311 -144.84570312 118.65673828 C-138.81194385 93.50252171 -128.46759949 70.91368071 -111.30224609 51.39111328 C-110.54943359 50.51712891 -109.79662109 49.64314453 -109.02099609 48.74267578 C-81.9398965 17.85909303 -40.97356464 -0.35518316 0 0 Z M-54.30224609 35.39111328 C-55.32705078 35.89255859 -56.35185547 36.39400391 -57.40771484 36.91064453 C-86.12168675 51.55922996 -108.44574923 78.0692053 -118.67724609 108.57861328 C-129.47847705 142.31118706 -126.74728949 176.66469193 -111.29541016 208.46386719 C-95.88707335 238.363919 -68.39257683 261.41290692 -36.49121094 271.74609375 C-2.39393601 281.79349508 33.17165645 278.46049075 64.56542969 261.60302734 C70.30290934 258.34211036 75.55127069 254.50829985 80.69775391 250.39111328 C81.27283691 249.93414062 81.84791992 249.47716797 82.44042969 249.00634766 C89.11107432 243.65799604 95.47111667 238.20229665 100.69775391 231.39111328 C101.45314453 230.42173828 102.20853516 229.45236328 102.98681641 228.45361328 C124.49845883 200.05554472 133.76028718 165.55216298 128.9284668 130.12646484 C123.43056594 96.54285631 104.40431191 65.83052105 76.94775391 45.76611328 C75.21505098 44.61465092 73.46291215 43.49217703 71.69775391 42.39111328 C71.14168457 42.04338867 70.58561523 41.69566406 70.01269531 41.33740234 C55.38519969 32.32082792 39.67970591 26.19270435 22.69775391 23.39111328 C21.66908203 23.20806641 20.64041016 23.02501953 19.58056641 22.83642578 C-5.9598391 19.90724447 -31.32993148 23.78859837 -54.30224609 35.39111328 Z " fill="#6b7280" transform="translate(328.30224609375,31.60888671875)"/>
<path d="M0 0 C8.15234383 5.35363071 15.03971018 13.91360398 21.90625 20.80859375 C23.2398113 22.14402327 24.57359588 23.47922985 25.90759277 24.81422424 C29.39496648 28.30539128 32.8793249 31.79955234 36.36303711 35.29437256 C39.92768783 38.86930632 43.49521917 42.44136294 47.0625 46.01367188 C54.04446878 53.00632174 61.02325147 60.00214201 68 67 C67.0542569 68.11228972 66.107228 69.22348623 65.15966797 70.33422852 C64.36881302 71.26260277 64.36881302 71.26260277 63.5619812 72.20973206 C61.51461082 74.5563298 59.34333058 76.75278049 57.125 78.9375 C56.34382812 79.70964844 55.56265625 80.48179687 54.7578125 81.27734375 C54.17773438 81.84582031 53.59765625 82.41429687 53 83 C34.44318035 73.72159017 22.67045406 54.67045406 8 40 C7.67 79.93 7.34 119.86 7 161 C-0.26 161 -7.52 161 -15 161 C-15.33 120.74 -15.66 80.48 -16 39 C-30.52 53.52 -45.04 68.04 -60 83 C-64.30442383 80.84778808 -66.94149234 78.46001825 -70.3125 75.125 C-70.87517578 74.59519531 -71.43785156 74.06539063 -72.01757812 73.51953125 C-73.61328125 71.9453125 -73.61328125 71.9453125 -76 69 C-75.55265018 64.41154995 -72.29006916 61.87653726 -69.16674805 58.79443359 C-68.55855225 58.18258713 -67.95035645 57.57074066 -67.32373047 56.94035339 C-65.31039289 54.91890703 -63.28639273 52.90852445 -61.26171875 50.8984375 C-59.85974386 49.4969812 -58.45828692 48.09500658 -57.05732727 46.6925354 C-54.11884182 43.75413969 -51.17525334 40.82098414 -48.2277832 37.89160156 C-44.44965274 34.13614761 -40.68268247 30.36973408 -36.91925335 26.59955406 C-34.02603113 23.70299025 -31.12784321 20.81143786 -28.22803688 17.92146683 C-26.83723599 16.53451569 -25.44778173 15.14621282 -24.0596981 13.75654221 C-22.11849634 11.8149696 -20.17092443 9.88002422 -18.22143555 7.94677734 C-17.64829117 7.37115555 -17.07514679 6.79553375 -16.4846344 6.20246887 C-11.53286154 1.31637546 -7.20332424 -1.65589275 0 0 Z " fill="#6b7280" transform="translate(335,85)"/>
</svg>