<svg width="136" height="107" viewBox="0 0 136 107" fill="none" xmlns="http://www.w3.org/2000/svg">
<path d="M115.639 71.2969H105.199C106.263 74.5429 106.845 78.0459 106.845 81.6969V125.657C106.845 127.179 106.607 128.641 106.174 130H123.433C129.88 130 135.125 124.156 135.125 116.973V93.0079C135.125 81.0366 126.383 71.2969 115.639 71.2969Z" fill="url(#paint0_linear_6417_9207)"/>
<path d="M28.417 81.6969C28.417 78.0456 28.9984 74.5429 30.0625 71.2969H19.623C8.87827 71.2969 0.136719 81.0366 0.136719 93.0082V116.973C0.136719 124.156 5.38149 130 11.8285 130H29.0875C28.6549 128.64 28.417 127.179 28.417 125.657V81.6969Z" fill="url(#paint1_linear_6417_9207)"/>
<path d="M79.5399 59.957H55.6738C44.9291 59.957 36.1875 69.6967 36.1875 81.6684V125.629C36.1875 128.027 37.9323 129.971 40.0848 129.971H95.1289C97.2813 129.971 99.0262 128.027 99.0262 125.629V81.6684C99.0262 69.6967 90.2846 59.957 79.5399 59.957Z" fill="url(#paint2_linear_6417_9207)"/>
<path d="M68.0988 -0.00390625C55.1768 -0.00390625 44.6641 11.7092 44.6641 26.107C44.6641 35.8729 49.5018 44.402 56.6461 48.88C60.0348 51.0039 63.9416 52.2176 68.0988 52.2176C72.256 52.2176 76.1628 51.0039 79.5514 48.88C86.6961 44.402 91.5335 35.8726 91.5335 26.107C91.5335 11.7095 81.0208 -0.00390625 68.0988 -0.00390625Z" fill="url(#paint3_linear_6417_9207)"/>
<path d="M26.4597 26.7422C16.7956 26.7422 8.93359 35.5019 8.93359 46.2695C8.93359 57.0371 16.7956 65.7968 26.4597 65.7968C28.9111 65.7968 31.2454 65.231 33.366 64.2141C37.0323 62.4554 40.0553 59.3421 41.9259 55.4426C43.2388 52.7056 43.9858 49.5833 43.9858 46.2695C43.9858 35.5022 36.1237 26.7422 26.4597 26.7422Z" fill="url(#paint4_linear_6417_9207)"/>
<path d="M108.764 26.7422C99.1003 26.7422 91.2383 35.5019 91.2383 46.2695C91.2383 49.5836 91.9852 52.7059 93.2982 55.4426C95.1688 59.3424 98.1918 62.4556 101.858 64.2141C103.979 65.231 106.313 65.7968 108.764 65.7968C118.428 65.7968 126.29 57.0371 126.29 46.2695C126.29 35.5019 118.428 26.7422 108.764 26.7422Z" fill="url(#paint5_linear_6417_9207)"/>
<defs>
<linearGradient id="paint0_linear_6417_9207" x1="119.858" y1="-1.21726" x2="119.858" y2="192.729" gradientUnits="userSpaceOnUse">
<stop offset="0.287143" stop-color="white"/>
<stop offset="0.659769" stop-color="#1F4EAD"/>
</linearGradient>
<linearGradient id="paint1_linear_6417_9207" x1="14.7958" y1="-1.21762" x2="14.7958" y2="192.73" gradientUnits="userSpaceOnUse">
<stop offset="0.287143" stop-color="white"/>
<stop offset="0.659769" stop-color="#1F4EAD"/>
</linearGradient>
<linearGradient id="paint2_linear_6417_9207" x1="66.9689" y1="-26.5297" x2="66.9689" y2="204.788" gradientUnits="userSpaceOnUse">
<stop offset="0.287143" stop-color="white"/>
<stop offset="0.659769" stop-color="#1F4EAD"/>
</linearGradient>
<linearGradient id="paint3_linear_6417_9207" x1="67.623" y1="-64.5121" x2="67.623" y2="108.022" gradientUnits="userSpaceOnUse">
<stop offset="0.287143" stop-color="white"/>
<stop offset="0.659769" stop-color="#1F4EAD"/>
</linearGradient>
<linearGradient id="paint4_linear_6417_9207" x1="26.1038" y1="-21.5011" x2="26.1038" y2="107.531" gradientUnits="userSpaceOnUse">
<stop offset="0.287143" stop-color="white"/>
<stop offset="0.659769" stop-color="#1F4EAD"/>
</linearGradient>
<linearGradient id="paint5_linear_6417_9207" x1="108.409" y1="-21.5011" x2="108.409" y2="107.531" gradientUnits="userSpaceOnUse">
<stop offset="0.287143" stop-color="white"/>
<stop offset="0.659769" stop-color="#1F4EAD"/>
</linearGradient>
</defs>
</svg>
