<svg width="8" height="8" viewBox="0 0 8 8" fill="none" xmlns="http://www.w3.org/2000/svg">
<path d="M7.0625 8H2.8125C2.29551 8 1.875 7.57949 1.875 7.0625V2.8125C1.875 2.29551 2.29551 1.875 2.8125 1.875H7.0625C7.57949 1.875 8 2.29551 8 2.8125V7.0625C8 7.57949 7.57949 8 7.0625 8ZM2.8125 2.5C2.64019 2.5 2.5 2.64019 2.5 2.8125V7.0625C2.5 7.23481 2.64019 7.375 2.8125 7.375H7.0625C7.23481 7.375 7.375 7.23481 7.375 7.0625V2.8125C7.375 2.64019 7.23481 2.5 7.0625 2.5H2.8125ZM1.25 5.5H0.9375C0.765186 5.5 0.625 5.35981 0.625 5.1875V0.9375C0.625 0.765186 0.765186 0.625 0.9375 0.625H5.1875C5.35981 0.625 5.5 0.765186 5.5 0.9375V1.23438H6.125V0.9375C6.125 0.420508 5.70449 0 5.1875 0H0.9375C0.420508 0 0 0.420508 0 0.9375V5.1875C0 5.70449 0.420508 6.125 0.9375 6.125H1.25V5.5Z" fill="#74717F"/>
</svg>
