<svg xmlns="http://www.w3.org/2000/svg" width="17" height="21" fill="none" viewBox="0 0 17 21">
  <path fill="#FF0002" d="M11.225 7.46a.483.483 0 0 0-.483.484v9.126a.483.483 0 1 0 .966 0V7.944a.483.483 0 0 0-.483-.483Zm-5.695 0a.483.483 0 0 0-.483.484v9.126a.483.483 0 0 0 .966 0V7.944a.483.483 0 0 0-.483-.483Z"/>
  <path fill="#FF0002" d="M1.371 6.138v11.897c0 .704.258 1.364.709 1.838a2.378 2.378 0 0 0 1.725.746h9.136a2.377 2.377 0 0 0 1.725-.746c.45-.474.709-1.134.709-1.838V6.138a1.845 1.845 0 0 0-.473-3.627h-2.473v-.604A1.897 1.897 0 0 0 10.517 0H6.229a1.897 1.897 0 0 0-1.912 1.907v.604H1.845a1.845 1.845 0 0 0-.474 3.627Zm11.57 13.515H3.805c-.826 0-1.468-.71-1.468-1.618V6.181H14.41v11.854c0 .909-.642 1.618-1.468 1.618ZM5.283 1.907a.93.93 0 0 1 .946-.941h4.288a.93.93 0 0 1 .947.941v.604H5.282v-.604Zm-3.438 1.57H14.9a.87.87 0 1 1 0 1.738H1.846a.87.87 0 1 1 0-1.738Z"/>
  <path fill="#FF0002" d="M8.373 7.46a.483.483 0 0 0-.482.484v9.126a.483.483 0 0 0 .965 0V7.944a.483.483 0 0 0-.482-.483Z"/>
</svg>
