<svg width="306" height="307" viewBox="0 0 306 307" fill="none" xmlns="http://www.w3.org/2000/svg">
<path fill-rule="evenodd" clip-rule="evenodd" d="M43.4398 267.446H85.0512V139.734C85.0512 118.62 72.2918 106.11 53.1493 106.11H43.4398V267.446Z" fill="black"/>
<path fill-rule="evenodd" clip-rule="evenodd" d="M63.8633 41.6296C70.369 41.6297 76.6082 44.2161 81.2083 48.82C85.8085 53.4239 88.3929 59.6681 88.3929 66.179C88.3929 71.0345 86.9543 75.7808 84.2589 79.818C81.5636 83.8551 77.7326 87.0017 73.2504 88.8598C68.7682 90.7179 63.8361 91.2041 59.0778 90.2568C54.3195 89.3096 49.9487 86.9715 46.5182 83.5382C43.0877 80.1049 40.7514 75.7306 39.805 70.9684C38.8585 66.2063 39.3442 61.2702 41.2008 56.7844C43.0574 52.2986 46.2015 48.4645 50.2354 45.7669C54.2692 43.0694 59.0118 41.6296 63.8633 41.6296Z" fill="#FFD302"/>
<path d="M122.927 124.981C138.837 109.263 159.06 101.403 183.598 101.403C208.136 101.403 228.256 109.263 243.958 124.981C259.881 140.7 267.848 160.514 267.859 184.424C267.869 208.335 259.92 228.149 244.011 243.868C228.322 259.586 208.209 267.445 183.671 267.445C159.134 267.445 138.903 259.586 122.98 243.868C107.278 228.149 99.4211 208.335 99.4105 184.424C99.3999 160.514 107.239 140.7 122.927 124.981ZM151.155 220.622C160.001 230.141 170.835 234.901 183.657 234.901C196.479 234.901 207.198 230.141 215.815 220.622C224.653 210.88 229.069 198.815 229.063 184.424C229.056 170.034 224.63 158.079 215.783 148.559C207.157 138.818 196.434 133.948 183.612 133.948C170.791 133.948 159.961 138.818 151.123 148.559C142.506 158.079 138.2 170.034 138.207 184.424C138.213 198.815 142.529 210.88 151.155 220.622Z" fill="black"/>
</svg>
