<svg width="650" height="189" viewBox="0 0 650 189" fill="none" xmlns="http://www.w3.org/2000/svg">
<g clip-path="url(#clip0_1_41)">
<path d="M280.899 39.2074C285.974 34.1974 292.424 31.6934 300.249 31.6934C308.073 31.6934 314.488 34.1974 319.493 39.2074C324.568 44.2164 327.105 50.5294 327.105 58.1494C327.105 65.7674 324.568 72.0824 319.493 77.0904C314.488 82.0994 308.073 84.6044 300.249 84.6044C292.424 84.6044 285.974 82.0994 280.899 77.0904C275.894 72.0814 273.391 65.7674 273.391 58.1494C273.391 50.5304 275.894 44.2164 280.899 39.2074ZM289.887 69.6844C292.707 72.7174 296.16 74.2354 300.25 74.2354C304.338 74.2354 307.757 72.7174 310.506 69.6844C313.325 66.5804 314.735 62.7364 314.735 58.1504C314.735 53.5634 313.325 49.7544 310.506 46.7204C307.757 43.6164 304.339 42.0644 300.25 42.0644C296.161 42.0644 292.707 43.6174 289.887 46.7204C287.137 49.7544 285.763 53.5634 285.763 58.1504C285.763 62.7364 287.137 66.5794 289.887 69.6844Z" fill="white"/>
<path d="M242.632 46.0854C242.632 47.5664 243.443 48.9074 245.064 50.1064C246.686 51.2354 248.624 52.2584 250.879 53.1754C253.135 54.0924 255.39 55.1144 257.646 56.2444C259.972 57.3724 261.946 59.0304 263.567 61.2174C265.189 63.4044 265.998 65.9794 265.998 68.9424C265.998 74.0224 264.06 77.9024 260.184 80.5844C256.377 83.2654 251.795 84.6054 246.438 84.6054C240.87 84.6054 235.724 83.5834 231 81.5364L232.058 71.2724L233.115 70.2124C237.062 73.6004 241.433 75.2934 246.226 75.2934C251.725 75.2934 254.474 73.5284 254.474 70.0014C254.474 68.5904 253.663 67.3554 252.042 66.2984C250.421 65.1694 248.447 64.1464 246.121 63.2294C243.865 62.3124 241.574 61.2544 239.248 60.0544C236.992 58.7844 235.054 57.0204 233.433 54.7634C231.811 52.4354 231.001 49.6844 231.001 46.5094C231.001 41.7114 232.904 38.0434 236.711 35.5044C240.517 32.9634 244.641 31.6934 249.082 31.6934C253.875 31.6934 258.634 32.7164 263.357 34.7624V45.5554L262.299 46.6154C258.422 42.8764 254.263 41.0064 249.822 41.0064C247.778 41.0064 246.051 41.4294 244.641 42.2764C243.302 43.1224 242.632 44.3934 242.632 46.0854Z" fill="white"/>
<path d="M353.068 73.9677L364.748 33.0547H377.541L360.345 83.2457H352.558L353.068 73.9677ZM344.539 33.0547L356.358 74.0617L356.775 83.2467H348.942L331.699 33.0557L344.539 33.0547Z" fill="white"/>
<path d="M387.07 82.6539H400.274V42.1309C400.274 35.4309 396.224 31.4609 390.152 31.4609H387.07V82.6539Z" fill="white"/>
<path d="M393.548 11C395.612 11 397.593 11.821 399.052 13.282C400.512 14.743 401.331 16.724 401.331 18.79C401.331 20.331 400.875 21.837 400.02 23.117C399.165 24.399 397.95 25.396 396.526 25.986C395.105 26.576 393.539 26.73 392.03 26.429C390.52 26.129 389.132 25.387 388.045 24.298C386.956 23.208 386.216 21.82 385.915 20.309C385.614 18.798 385.769 17.232 386.358 15.808C386.947 14.385 387.944 13.168 389.224 12.313C390.504 11.458 392.009 11 393.548 11Z" fill="#FFD302"/>
<path d="M418.377 39.0386C423.426 34.0506 429.842 31.5566 437.627 31.5566C445.412 31.5566 451.799 34.0506 456.781 39.0386C461.832 44.0246 464.361 50.3126 464.365 57.8996C464.369 65.4856 461.845 71.7736 456.797 76.7596C451.82 81.7476 445.438 84.2416 437.652 84.2416C429.865 84.2416 423.447 81.7476 418.392 76.7596C413.41 71.7736 410.918 65.4856 410.914 57.8996C410.911 50.3136 413.399 44.0256 418.377 39.0386ZM427.334 69.3856C430.141 72.4066 433.578 73.9156 437.647 73.9156C441.716 73.9156 445.116 72.4056 447.852 69.3856C450.655 66.2936 452.057 62.4656 452.055 57.9006C452.053 53.3346 450.649 49.5406 447.84 46.5196C445.104 43.4286 441.701 41.8826 437.633 41.8826C433.563 41.8826 430.129 43.4286 427.322 46.5196C424.59 49.5406 423.222 53.3336 423.224 57.9006C423.226 62.4656 424.598 66.2936 427.334 69.3856Z" fill="white"/>
<path d="M645.656 52.8027H482.582V62.8027H645.656V52.8027Z" fill="#FFD302"/>
<path d="M274.931 165.008V174.235L273.928 175.238H232.003L231 174.235V101.017L232.003 100.014H271.922L272.925 101.017V110.244L271.922 111.247H244.64V130.906H267.91L268.914 131.909V141.237L267.91 142.24H244.64V164.005H273.928L274.931 165.008Z" fill="white"/>
<path d="M331.905 95V174.236L330.901 175.239H320.069L319.066 174.236V171.729C315.322 174.738 310.909 176.242 305.826 176.242C298.672 176.242 292.921 173.902 288.575 169.222C284.295 164.541 282.156 158.523 282.156 151.168C282.156 143.812 284.295 137.794 288.575 133.114C292.921 128.433 298.672 126.093 305.826 126.093C313.315 126.093 319.468 129.436 324.282 136.123L319.066 126.093V96.5045L331.905 95ZM307.431 165.611C312.112 165.611 315.99 163.605 319.066 159.593V142.742C315.99 138.73 312.112 136.724 307.431 136.724C303.954 136.724 301.145 138.062 299.007 140.737C296.867 143.344 295.797 146.821 295.797 151.168C295.797 155.514 296.867 159.024 299.007 161.699C301.145 164.307 303.954 165.611 307.431 165.611Z" fill="white"/>
<path d="M387.338 128.099V174.236L386.336 175.239H375.503L374.501 174.236L379.716 164.206C373.765 172.23 366.778 176.242 358.754 176.242C352.936 176.242 348.824 174.738 346.416 171.729C344.076 168.72 342.906 164.006 342.906 157.587V128.099L343.909 127.096H354.741L355.744 128.099V157.587C355.744 160.328 356.18 162.334 357.048 163.605C357.985 164.808 359.656 165.41 362.063 165.41C364.537 165.41 366.677 164.808 368.482 163.605C370.355 162.401 372.361 160.629 374.501 158.289V128.099L375.503 127.096H386.336L387.338 128.099Z" fill="white"/>
<path d="M434.773 110.947C427.819 110.947 422.102 113.455 417.622 118.47C413.141 123.485 410.902 129.87 410.902 137.627C410.902 145.383 413.141 151.769 417.622 156.784C422.102 161.799 427.819 164.307 434.773 164.307C438.919 164.307 442.463 163.872 445.405 163.003C448.347 162.133 451.991 160.562 456.338 158.289L457.341 159.292V171.328C449.852 174.604 442.329 176.242 434.773 176.242C424.074 176.242 415.014 172.631 407.592 165.41C400.236 158.188 396.559 148.927 396.559 137.627C396.559 126.327 400.236 117.066 407.592 109.844C415.014 102.622 424.074 99.0117 434.773 99.0117C442.73 99.0117 450.253 100.65 457.341 103.926V115.962L456.338 116.965C451.991 114.692 448.347 113.12 445.405 112.251C442.463 111.382 438.919 110.947 434.773 110.947Z" fill="white"/>
<path d="M481.537 128.098L476.321 139.532C478.929 135.721 482.306 132.544 486.452 130.003C490.597 127.396 494.844 126.092 499.19 126.092L497.686 138.328L496.683 139.331C490.53 138.997 485.482 141.337 481.537 146.352V174.236L480.534 175.238H469.702L468.699 174.236V128.098L469.702 127.095H480.534L481.537 128.098Z" fill="white"/>
<path d="M526.51 126.092C528.985 126.092 531.325 126.426 533.531 127.095C535.738 127.763 537.845 128.833 539.851 130.304C541.923 131.775 543.562 133.915 544.765 136.723C545.968 139.465 546.571 142.741 546.571 146.553C546.571 148.492 546.437 150.297 546.17 151.969L545.066 152.972H515.277C515.612 156.85 516.948 159.926 519.289 162.2C521.629 164.473 524.605 165.61 528.216 165.61C533.231 165.61 537.944 164.272 542.358 161.598L543.36 162.601V173.333C538.881 175.272 533.699 176.241 527.814 176.241C520.259 176.241 514.14 173.901 509.459 169.221C504.846 164.473 502.539 158.455 502.539 151.167C502.539 143.878 504.746 137.894 509.158 133.213C513.639 128.466 519.423 126.092 526.51 126.092ZM525.808 136.222C523.201 136.222 521.028 137.058 519.289 138.73C517.551 140.334 516.347 142.675 515.678 145.75L534.133 144.748C534.066 142.006 533.264 139.9 531.726 138.429C530.188 136.958 528.216 136.222 525.808 136.222Z" fill="white"/>
<path d="M604.003 95V174.236L603 175.239H592.168L591.164 174.236V171.729C587.42 174.738 583.006 176.242 577.925 176.242C570.77 176.242 565.019 173.902 560.673 169.222C556.394 164.541 554.254 158.523 554.254 151.168C554.254 143.812 556.394 137.794 560.673 133.114C565.019 128.433 570.77 126.093 577.925 126.093C585.414 126.093 591.565 129.436 596.379 136.123L591.164 126.093V96.5045L604.003 95ZM579.529 165.611C584.21 165.611 588.088 163.605 591.164 159.593V142.742C588.088 138.73 584.21 136.724 579.529 136.724C576.053 136.724 573.244 138.062 571.104 140.737C568.964 143.344 567.894 146.821 567.894 151.168C567.894 155.514 568.964 159.024 571.104 161.699C573.244 164.307 576.053 165.611 579.529 165.611Z" fill="white"/>
<path d="M627.746 139.933C627.746 141.204 628.481 142.34 629.953 143.343C631.424 144.346 633.229 145.282 635.369 146.152C637.508 147.021 639.648 148.024 641.788 149.161C643.928 150.231 645.733 151.802 647.204 153.875C648.675 155.948 649.41 158.388 649.41 161.197C649.41 166.212 647.539 169.99 643.794 172.53C640.116 175.004 635.637 176.241 630.354 176.241C624.803 176.241 619.789 175.272 615.309 173.333L616.311 162.801L617.314 161.798C621.059 165.008 625.205 166.613 629.751 166.613C634.567 166.613 636.974 165.175 636.974 162.3C636.974 161.163 636.238 160.127 634.767 159.191C633.296 158.188 631.491 157.252 629.351 156.382C627.211 155.513 625.071 154.477 622.932 153.273C620.792 152.069 618.987 150.364 617.516 148.158C616.044 145.951 615.309 143.343 615.309 140.334C615.309 137.125 616.278 134.417 618.218 132.21C620.223 129.937 622.496 128.365 625.038 127.496C627.579 126.56 630.187 126.092 632.861 126.092C637.743 126.092 642.423 127.061 646.903 129.001V140.033L645.9 141.036C642.222 137.493 638.277 135.721 634.065 135.721C629.852 135.721 627.746 137.125 627.746 139.933Z" fill="white"/>
<path d="M189 94.4908C189 146.676 146.691 188.981 94.5 188.981C42.3089 188.981 0 146.676 0 94.4908C0 42.3051 42.3089 0 94.5 0C146.691 0 189 42.3051 189 94.4908ZM16.0651 94.4908C16.0651 137.805 51.1819 172.918 94.5 172.918C137.818 172.918 172.935 137.805 172.935 94.4908C172.935 51.1766 137.818 16.0634 94.5 16.0634C51.1819 16.0634 16.0651 51.1766 16.0651 94.4908Z" fill="#FFD302"/>
<path d="M153.011 30.8568C156.014 27.591 155.818 22.4795 152.309 19.7659C139.717 10.0291 124.83 3.60272 109.015 1.14472C90.5456 -1.72571 71.6407 0.944328 54.6897 8.81723C37.739 16.6901 23.5036 29.4121 13.7838 45.3747C4.06408 61.3369 -0.70353 79.8238 0.0839373 98.4956C0.871432 117.167 7.17861 135.186 18.2079 150.274C29.2372 165.362 44.4935 176.84 62.0474 183.258C79.6007 189.676 98.6632 190.745 116.825 186.33C132.377 182.549 146.67 174.893 158.397 164.131C161.666 161.131 161.43 156.022 158.163 153.02C154.897 150.018 149.841 150.268 146.52 153.211C136.982 161.663 125.493 167.692 113.03 170.722C97.9551 174.386 82.1336 173.498 67.5642 168.172C52.9943 162.845 40.332 153.318 31.1775 140.795C22.0232 128.272 16.7882 113.316 16.1347 97.8186C15.481 82.3205 19.4382 66.9773 27.5057 53.7282C35.573 40.4796 47.3888 29.9202 61.4572 23.3856C75.5269 16.8512 91.2186 14.6351 106.547 17.0175C119.221 18.9874 131.177 24.0276 141.394 31.6472C144.95 34.2993 150.009 34.123 153.011 30.8568Z" fill="white"/>
<mask id="mask0_1_41" style="mask-type:luminance" maskUnits="userSpaceOnUse" x="99" y="81" width="53" height="66">
<path d="M151.867 90.8854L112.68 81.6797L99.708 136.898L138.895 146.103L151.867 90.8854Z" fill="white"/>
</mask>
<g mask="url(#mask0_1_41)">
<path fill-rule="evenodd" clip-rule="evenodd" d="M135.111 92.8055L127.673 123.98C120.207 122.61 111.26 125.065 101.609 130.971C111.031 126.967 120.604 126.436 130.33 129.378L140.315 88.1738C128.917 88.4513 118.012 91.5539 109.144 97.9338C120.839 94.2572 123.174 92.6102 135.111 92.8055ZM129.773 100.229C124.574 99.2267 117.364 100.094 108.144 102.831C115.718 98.4975 123.125 96.7929 130.363 97.7192L129.773 100.229ZM124.947 120.772C119.887 119.291 112.704 119.431 103.397 121.193C111.172 117.718 118.551 116.75 125.531 118.287L124.947 120.772ZM126.477 114.261C121.416 112.78 114.234 112.92 104.927 114.683C112.702 111.207 120.081 110.239 127.06 111.776L126.477 114.261ZM128.006 107.752C122.945 106.271 115.763 106.411 106.456 108.173C114.231 104.698 121.61 103.73 128.589 105.267L128.006 107.752ZM149.991 98.8673L138.137 145.927C130.376 138.73 118.261 134.241 103.147 132.856C114.493 131.504 126.268 133.701 136.608 139.612L146.407 101.475L140.378 100.219L141.163 96.8753C147.048 98.2037 149.991 98.8673 149.991 98.8673Z" fill="white"/>
<mask id="mask1_1_41" style="mask-type:luminance" maskUnits="userSpaceOnUse" x="101" y="88" width="49" height="58">
<path d="M135.111 92.8055L127.673 123.98C120.207 122.61 111.26 125.065 101.609 130.971C111.031 126.967 120.604 126.436 130.33 129.378L140.315 88.1738C128.917 88.4513 118.012 91.5539 109.144 97.9338C120.839 94.2572 123.174 92.6102 135.111 92.8055ZM129.773 100.229C124.574 99.2267 117.364 100.094 108.144 102.831C115.718 98.4975 123.125 96.7929 130.363 97.7192L129.773 100.229ZM124.947 120.772C119.887 119.291 112.704 119.431 103.397 121.193C111.172 117.718 118.551 116.75 125.531 118.287L124.947 120.772ZM126.477 114.261C121.416 112.78 114.234 112.92 104.927 114.683C112.702 111.207 120.081 110.239 127.06 111.776L126.477 114.261ZM128.006 107.752C122.945 106.271 115.763 106.411 106.456 108.173C114.231 104.698 121.61 103.73 128.589 105.267L128.006 107.752ZM149.991 98.8673L138.137 145.927C130.376 138.73 118.261 134.241 103.147 132.856C114.493 131.504 126.268 133.701 136.608 139.612L146.407 101.475L140.378 100.219L141.163 96.8753C147.048 98.2037 149.991 98.8673 149.991 98.8673Z" fill="white"/>
</mask>
<g mask="url(#mask1_1_41)">
<path d="M151.866 90.8873L112.679 81.6816L99.707 136.9L138.894 146.105L151.866 90.8873Z" fill="white"/>
<mask id="mask2_1_41" style="mask-type:luminance" maskUnits="userSpaceOnUse" x="99" y="81" width="53" height="66">
<path d="M151.869 90.8853L112.683 81.6797L99.7109 136.898L138.898 146.103L151.869 90.8853Z" fill="white"/>
</mask>
<g mask="url(#mask2_1_41)">
<path d="M139.069 146.368L99.5 137.072L112.545 81.5421L152.114 90.8375L139.069 146.368Z" fill="#FFD302"/>
</g>
</g>
</g>
<path d="M129.296 67.9571C127.836 66.2868 125.779 65.2696 123.574 65.1267C121.37 64.984 119.199 65.728 117.54 67.196C110.634 73.3369 98.5578 91.9305 90.9672 112.038C89.2141 116.684 87.676 121.45 86.4596 126.221C80.721 117.23 75.9227 111.831 70.1426 105.316C66.1651 100.838 61.6834 95.7878 55.9099 88.3252C55.2416 87.4539 54.409 86.7229 53.4605 86.1755C52.5115 85.628 51.4656 85.2751 50.3802 85.135C49.2956 84.9953 48.1949 85.0721 47.14 85.3611C46.0845 85.6505 45.0968 86.1457 44.2321 86.8194C42.485 88.1806 41.3465 90.1847 41.0669 92.3903C40.7877 94.5971 41.3893 96.8241 42.7402 98.584C48.7543 106.361 53.5005 111.706 57.7108 116.45C66.4603 126.3 72.7206 133.358 84.7454 157.561C86.177 161.132 89.9244 163.359 93.8531 162.7C96.0354 162.333 97.9834 161.109 99.2693 159.296C100.556 157.483 101.074 155.231 100.712 153.033C99.0588 143.031 101.944 130.218 106.555 118.002C113.236 100.313 123.129 84.6044 128.539 79.7913C130.198 78.3231 131.209 76.2515 131.351 74.032C131.493 71.8125 130.754 69.6277 129.296 67.9571Z" fill="white"/>
<path d="M83.4758 103.102C92.6023 101.812 98.5908 90.7911 96.8515 78.4865C95.1122 66.182 86.3037 57.253 77.1773 58.543C68.0508 59.8331 62.0623 70.8537 63.8016 83.1583C65.5409 95.4628 74.3494 104.392 83.4758 103.102Z" fill="white"/>
<path d="M52.6706 68.1137L49.4299 51.3932L75.2784 56.9819L102.566 38.279L70.0283 31L42.5664 49.9091L46.0695 50.6667L45.7777 73.0842L52.6706 68.1137Z" fill="#FFD302"/>
<path d="M49.4332 51.3925L52.6742 68.113L45.7812 73.0837L46.0731 50.666L49.4332 51.3925Z" fill="white"/>
<path d="M64.8986 70.7382C64.8986 70.7382 70.7103 72.539 78.8028 71.151C86.9112 70.1756 91.9616 66.1692 91.9616 66.1692L93.4384 45.8047L75.5808 58.0926L54.4258 53.3665L64.8986 70.7382Z" fill="#FFD302"/>
<path d="M84 97C80.4642 97.6995 77.2163 95.6258 77.1696 95.6022C76.8667 95.4498 76.7615 95.0945 76.9342 94.8074C77.1076 94.5208 77.4947 94.4119 77.7961 94.5628C78.057 94.6923 84.2025 97.6676 88.7898 91.8258C88.9984 91.5597 89.3955 91.4955 89.6748 91.6818C89.9549 91.8686 90.0126 92.2357 89.8035 92.5019C87.9055 94.9181 85.9922 96.6059 84 97Z" fill="white"/>
</g>
<defs>
<clipPath id="clip0_1_41">
<rect width="650" height="189" fill="white"/>
</clipPath>
</defs>
</svg>
