<svg width="619" height="123" viewBox="0 0 619 123" fill="none" xmlns="http://www.w3.org/2000/svg">
<path d="M121.583 61.5002C121.583 95.018 94.4115 122.19 60.8932 122.19C27.3749 122.19 0.203125 95.018 0.203125 61.5002C0.203125 27.982 27.3749 0.810059 60.8932 0.810059C94.4115 0.810059 121.583 27.982 121.583 61.5002ZM10.5205 61.5002C10.5205 89.3203 33.0733 111.873 60.8932 111.873C88.7133 111.873 111.266 89.3203 111.266 61.5002C111.266 33.6801 88.7133 11.1274 60.8932 11.1274C33.0733 11.1274 10.5205 33.6801 10.5205 61.5002Z" fill="#25AFE1"/>
<path d="M98.6813 20.614C100.614 18.5163 100.488 15.2333 98.2293 13.4904C90.1251 7.23652 80.544 3.10898 70.3652 1.53024C58.4786 -0.313395 46.3113 1.40153 35.4016 6.45819C24.4921 11.5148 15.3301 19.6861 9.07442 29.9385C2.81878 40.1909 -0.249668 52.0648 0.257147 64.0575C0.763984 76.0497 4.8233 87.623 11.9218 97.3139C19.0203 107.005 28.8393 114.377 40.137 118.499C51.4343 122.621 63.703 123.308 75.3919 120.472C85.401 118.044 94.6003 113.126 102.148 106.214C104.252 104.287 104.1 101.005 101.997 99.0778C99.8952 97.1494 96.6413 97.3103 94.504 99.2C88.3649 104.629 80.9706 108.501 72.9494 110.447C63.2473 112.801 53.0645 112.231 43.6877 108.809C34.3104 105.388 26.1609 99.2689 20.2691 91.2256C14.3773 83.1822 11.0081 73.5763 10.5874 63.6225C10.1668 53.6684 12.7136 43.8137 17.9058 35.3039C23.098 26.7945 30.7027 20.0123 39.7572 15.8153C48.8125 11.6183 58.9116 10.1949 68.7769 11.7251C76.9342 12.9903 84.6288 16.2277 91.2048 21.1216C93.4933 22.825 96.7493 22.7117 98.6813 20.614Z" fill="#1F4EAD"/>
<path d="M88.5309 37.1025C87.5949 36.0414 86.2761 35.3951 84.8627 35.3045C83.4495 35.2138 82.0579 35.6864 80.9944 36.619C76.567 40.5201 68.8257 52.3321 63.9597 65.1056C62.8358 68.0574 61.8498 71.0851 61.07 74.116C57.3913 68.4039 54.3153 64.9744 50.6099 60.8352C48.0601 57.9905 45.1869 54.7825 41.4859 50.0417C41.0574 49.4882 40.5237 49.0238 39.9156 48.6761C39.3073 48.3283 38.6368 48.1041 37.9409 48.0151C37.2457 47.9263 36.5401 47.9751 35.8639 48.1588C35.1872 48.3426 34.5541 48.6572 33.9997 49.0851C32.8798 49.9498 32.1499 51.2229 31.9706 52.6242C31.7916 54.026 32.1772 55.4407 33.0433 56.5588C36.8987 61.4991 39.9413 64.8951 42.6403 67.9088C48.2494 74.1663 52.2625 78.6499 59.9712 94.0249C60.8889 96.2938 63.2912 97.7085 65.8096 97.2895C67.2086 97.0566 68.4574 96.2789 69.2817 95.1271C70.1064 93.9757 70.439 92.5446 70.2067 91.1485C69.1468 84.7946 70.9961 76.6547 73.9527 68.8945C78.2355 57.6574 84.5774 47.6781 88.0455 44.6203C89.1092 43.6877 89.7574 42.3716 89.848 40.9616C89.9393 39.5517 89.4655 38.1637 88.5309 37.1025Z" fill="#1F4EAD"/>
<path d="M52.7298 30.1899C51.1907 30.5789 51.6094 32.5314 52.8747 31.8835C52.8972 31.8835 60.2213 29.3464 65.0215 37.2084C65.6112 38.1742 66.3996 36.924 66.0795 36.2383C65.0692 34.0696 60.7098 28.1725 52.7298 30.1899ZM49.2495 46.451C48.3412 40.438 50.7858 36.4522 53.8264 35.6446C61.0651 33.7207 64.6463 42.919 64.6463 47.7575C64.6463 52.4786 61.3778 54.5581 59.0481 54.3474C55.1335 53.9928 53.2903 49.7725 52.7214 46.4858C52.5824 45.6849 51.504 39.5207 56.3378 39.4833C59.6291 39.4584 61.4797 45.331 61.264 47.5937C61.1229 49.0726 60.4496 50.6169 58.9261 50.4789C56.8949 50.2955 56.1501 47.2863 56.0474 46.0974C56.0249 45.9084 55.6089 43.5768 56.7154 43.7743C57.4779 43.91 57.6648 45.3738 57.691 45.4697C57.7971 45.8211 57.8696 46.262 57.913 46.6696C57.9596 47.0152 57.8836 47.4118 58.0184 47.7968C58.1509 48.2433 58.5304 48.4948 58.8589 48.5247C59.1279 48.5487 59.6409 48.2656 59.6583 47.8323C59.693 45.5279 58.7572 41.4281 56.1198 41.6692C54.6366 41.8047 53.8543 43.5548 54.2767 46.3766C54.6883 49.1244 56.0766 52.1458 58.8204 52.3939C61.8369 52.6673 63.0517 49.8323 63.0517 47.6954C63.0517 41.6035 59.055 36.0124 54.3315 37.6861C51.6187 38.6474 49.9727 41.6912 50.8992 46.6556C51.8591 51.8021 54.8134 56.5245 59.0997 56.3964C66.9466 56.1619 66.4014 47.5468 66.4014 47.5468C66.4014 39.6304 60.1789 30.471 52.1987 34.0376C48.909 35.5081 46.3359 40.4668 47.3072 46.5163C49.7713 61.8634 60.5309 60.1006 61.0338 60.0204L61.071 60.0253C62.7882 59.7689 62.4368 57.7956 61.1808 58.017C54.0566 59.2747 50.2106 52.8187 49.2495 46.451Z" fill="#1F4EAD"/>
<path d="M196.239 30.6249C188.208 30.6249 181.541 33.5125 176.237 39.2877C170.932 45.0629 168.28 52.4671 168.28 61.5001C168.28 70.5332 170.932 77.9373 176.237 83.7125C181.541 89.4878 188.208 92.3754 196.239 92.3754C200.806 92.3754 204.711 91.8941 207.953 90.9316C211.194 89.969 215.136 88.2291 219.777 85.7116L220.882 86.8223V98.817C212.852 102.445 204.637 104.259 196.239 104.259C184.672 104.259 174.837 100.261 166.733 92.2643C158.703 84.2678 154.688 74.0131 154.688 61.5001C154.688 48.9871 158.703 38.7324 166.733 30.7359C174.837 22.7394 184.672 18.7412 196.239 18.7412C204.858 18.7412 213.073 20.5552 220.882 24.1833V36.178L219.777 37.2886C215.136 34.7712 211.194 33.0312 207.953 32.0687C204.711 31.1061 200.806 30.6249 196.239 30.6249Z" fill="white"/>
<path d="M269.746 61.9444C272.177 63.4992 274.829 66.5719 277.702 71.1625C280.649 75.679 283.891 81.2321 287.427 87.8218C290.963 94.4115 293.652 99.1502 295.494 102.038V103.148H281.349C279.728 100.557 277.15 95.8183 273.613 88.9324C270.151 82.0466 267.02 76.5305 264.22 72.3842C261.494 68.2379 258.953 65.9426 256.595 65.4983H248.418V102.038L247.312 103.148H236.593L235.488 102.038V20.9625L236.593 19.8518H258.584C266.762 19.8518 273.282 21.962 278.144 26.1824C283.007 30.3287 285.438 35.8448 285.438 42.7306C285.438 47.4693 284.038 51.5045 281.239 54.8364C278.513 58.0942 274.682 60.4635 269.746 61.9444ZM248.418 54.2811H258.142C262.415 54.2811 265.767 53.2445 268.199 51.1713C270.63 49.0241 271.845 46.2106 271.845 42.7306C271.845 39.1766 270.63 36.3631 268.199 34.2899C265.767 32.1427 262.415 31.0691 258.142 31.0691H248.418V54.2811Z" fill="white"/>
<path d="M351.206 93.0417V102.038L350.101 103.148H305.013L303.908 102.038V20.9625L305.013 19.8518H347.891L348.996 20.9625V29.9585L347.891 31.0691H316.838V54.5032H343.47L344.575 55.6138V64.6099L343.47 65.7205H316.838V91.9311H350.101L351.206 93.0417Z" fill="white"/>
<path d="M364.692 19.8518H391.767C403.333 19.8518 413.132 23.702 421.162 31.4023C429.266 39.1026 433.318 49.1352 433.318 61.5001C433.318 73.865 429.266 83.8976 421.162 91.5979C413.132 99.2982 403.333 103.148 391.767 103.148H364.692L363.587 102.038V20.9625L364.692 19.8518ZM376.517 91.9311H391.767C399.871 91.9311 406.538 89.1175 411.769 83.4904C417.073 77.7892 419.725 70.4591 419.725 61.5001C419.725 52.5411 417.073 45.248 411.769 39.6209C406.538 33.9197 399.871 31.0691 391.767 31.0691H376.517V91.9311Z" fill="white"/>
<path d="M493.011 93.0417V102.038L491.905 103.148H446.818L445.713 102.038V20.9625L446.818 19.8518H489.695L490.8 20.9625V29.9585L489.695 31.0691H458.642V54.5032H485.275L486.38 55.6138V64.6099L485.275 65.7205H458.642V91.9311H491.905L493.011 93.0417Z" fill="white"/>
<path d="M545.285 59.1678C555.673 62.5737 560.867 69.2745 560.867 79.27C560.867 87.4146 558.178 93.449 552.8 97.3732C547.495 101.223 540.423 103.148 531.582 103.148H506.497L505.392 102.038V20.9625L506.497 19.8518H528.488C536.518 19.8518 543.002 21.8509 547.938 25.8492C552.874 29.8474 555.342 35.2524 555.342 42.0642C555.342 50.1348 551.99 55.8359 545.285 59.1678ZM541.86 42.5085C541.86 39.0285 540.644 36.252 538.213 34.1788C535.782 32.1057 532.466 31.0691 528.267 31.0691H518.321V54.5032H528.267C532.54 54.5032 535.855 53.4296 538.213 51.2824C540.644 49.1352 541.86 46.2106 541.86 42.5085ZM518.321 91.9311H531.14C541.97 91.9311 547.385 87.6367 547.385 79.0479C547.385 74.5314 545.838 71.1995 542.744 69.0523C539.723 66.8311 535.561 65.7205 530.256 65.7205H518.321V91.9311Z" fill="white"/>
<path d="M618.139 93.0417V102.038L617.034 103.148H574.378L573.272 102.038V20.9625L574.378 19.8518H585.097L586.202 20.9625V91.9311H617.034L618.139 93.0417Z" fill="white"/>
</svg>
