<svg width="156" height="125" viewBox="0 0 156 125" fill="none" xmlns="http://www.w3.org/2000/svg">
<path d="M86.0742 8.56171C69.4992 13.2234 52.1625 18.0984 47.6227 19.3781L39.3047 21.7242V37.2023V52.7109H55.7578H72.2109V99.7852V146.859H67.6406H63.0703V104.355V61.8516L43.9664 61.9125L24.832 62.0039L24.7406 104.416L24.6797 146.859H15.3867H6.09375V151.43V156H78H149.906V151.43V146.859H145.184H140.461V90.7969V34.7344H133.148H125.836V90.7969V146.859H121.266H116.695V73.4297C116.695 33.0281 116.604 -1.52588e-05 116.482 0.0304565C116.33 0.0609283 102.68 3.86952 86.0742 8.56171ZM98.8711 51.9492V61.0898L94.3922 61.1812L89.8828 61.2727V51.9492V42.6258L94.3922 42.7172L98.8711 42.8086V51.9492ZM48.4453 85.6172V94.7578H43.875H39.3047V85.6172V76.4766H43.875H48.4453V85.6172ZM99.0234 85.6172V94.7578H94.4531H89.8828V85.6172V76.4766H94.4531H99.0234V85.6172ZM48.4453 119.133V128.273H43.875H39.3047V119.133V109.992H43.875H48.4453V119.133ZM99.0234 119.133V128.273H94.4531H89.8828V119.133V109.992H94.4531H99.0234V119.133Z" fill="url(#paint0_linear_6417_9102)"/>
<defs>
<linearGradient id="paint0_linear_6417_9102" x1="76.5401" y1="348.666" x2="76.5401" y2="-166.639" gradientUnits="userSpaceOnUse">
<stop offset="0.443541" stop-color="#1F4EAD"/>
<stop offset="0.75795" stop-color="white"/>
</linearGradient>
</defs>
</svg>
