<svg width="300" height="400" viewBox="0 0 332 329" fill="none" xmlns="http://www.w3.org/2000/svg">
<path d="M260 200C252.383 200 244.841 201.494 237.804 204.396C230.768 207.298 224.374 211.552 218.988 216.915C213.602 222.277 209.33 228.644 206.415 235.65C203.5 242.657 202 250.166 202 257.75C202 265.334 203.5 272.844 206.415 279.85C209.33 286.857 213.602 293.223 218.988 298.586C224.374 303.948 230.768 308.202 237.804 311.104C244.841 314.006 252.383 315.5 260 315.5C267.617 315.5 275.159 314.006 282.196 311.104C289.233 308.202 295.627 303.948 301.012 298.586C306.398 293.223 310.67 286.857 313.585 279.85C316.5 272.844 318 265.334 318 257.75C318 250.166 316.5 242.657 313.585 235.65C310.67 228.644 306.398 222.277 301.012 216.915C295.627 211.552 289.233 207.298 282.196 204.396C275.159 201.494 267.617 200 260 200V200Z" fill="#1F4EAD"/>
<path fill-rule="evenodd" clip-rule="evenodd" d="M291.758 230.615C292.88 231.437 293.119 233.009 292.293 234.125L256.988 281.832C256.581 282.382 255.967 282.743 255.286 282.832C254.606 282.921 253.919 282.73 253.383 282.303L228.165 262.216C227.078 261.35 226.901 259.77 227.771 258.687C228.641 257.604 230.228 257.429 231.316 258.295L254.484 276.75L288.232 231.147C289.058 230.03 290.637 229.792 291.758 230.615Z" fill="white"/>
<path d="M191.557 298.741C179.763 301.751 167.406 303.352 154.676 303.352C72.5644 303.352 6 236.787 6 154.676C6 72.5644 72.5644 6 154.676 6C236.787 6 303.352 72.5644 303.352 154.676C303.352 167.406 301.751 179.763 298.741 191.557" stroke="#1F4EAD" stroke-width="12" stroke-linecap="round"/>
<path d="M120.57 126.093C140.353 126.093 156.39 110.056 156.39 90.273C156.39 70.4902 140.353 54.4531 120.57 54.4531C100.787 54.4531 84.75 70.4902 84.75 90.273C84.75 110.056 100.787 126.093 120.57 126.093Z" fill="#1F4EAD"/>
<path d="M216.087 126.09C216.104 121.1 214.781 116.198 212.256 111.894C209.731 107.59 206.096 104.043 201.732 101.625C197.367 99.2059 192.433 98.0038 187.445 98.1438C182.457 98.2838 177.599 99.7609 173.377 102.421C169.155 105.08 165.725 108.825 163.445 113.264C161.165 117.703 160.119 122.672 160.417 127.653C160.714 132.634 162.344 137.444 165.136 141.58C167.927 145.716 171.779 149.026 176.287 151.164V193.75L188.227 205.69L208.127 185.79L196.187 173.85L208.127 161.91L198.256 152.04C203.499 150.017 208.007 146.456 211.189 141.825C214.371 137.194 216.078 131.709 216.087 126.09ZM188.227 126.09C186.653 126.09 185.114 125.623 183.805 124.749C182.496 123.874 181.475 122.631 180.873 121.177C180.27 119.722 180.113 118.122 180.42 116.577C180.727 115.033 181.485 113.615 182.598 112.502C183.712 111.389 185.13 110.63 186.674 110.323C188.218 110.016 189.819 110.174 191.273 110.776C192.728 111.379 193.971 112.399 194.845 113.708C195.72 115.017 196.187 116.556 196.187 118.13C196.187 120.241 195.348 122.266 193.855 123.759C192.363 125.252 190.338 126.09 188.227 126.09Z" fill="#1F4EAD"/>
<path d="M151.929 142.17C145.817 139.445 139.199 138.035 132.507 138.031H108.627C95.9603 138.031 83.8124 143.063 74.8557 152.02C65.899 160.976 60.8672 173.124 60.8672 185.791V201.711H164.347V157.852C158.979 153.728 154.713 148.341 151.929 142.17V142.17Z" fill="#1F4EAD"/>
</svg>
