<svg width="546" height="401" viewBox="0 0 546 401" fill="none" xmlns="http://www.w3.org/2000/svg">
<g clip-path="url(#clip0_5163_11454)">
<path d="M36.6268 74.1116C39.0799 72.602 41.7218 71.4697 44.458 70.7149L46.0619 62.9781L59.1768 62.7422L61.0638 70.4319C63.8 71.0923 66.489 72.1302 68.9893 73.5455L75.5939 69.2053L85.029 78.3102L80.9248 85.0563C82.4344 87.5566 83.5666 90.1513 84.3214 92.8875L92.0582 94.4915L92.2941 107.606L84.6045 109.493C83.944 112.23 82.9061 114.919 81.4909 117.419L85.831 124.023L76.7261 133.459L69.98 129.354C67.4797 130.864 64.885 131.996 62.1488 132.751L60.5449 140.488L47.43 140.724L45.543 133.034C42.8068 132.374 40.1178 131.336 37.6175 129.92L31.0129 134.261L21.5778 125.156L25.6821 118.41C24.1724 115.956 23.0402 113.315 22.2854 110.578L14.5014 108.974L14.2656 95.8596L21.9552 93.9725C22.6156 91.2363 23.6535 88.5473 25.0688 86.047L20.7286 79.4424L29.8335 70.0073L36.6268 74.1116ZM43.6088 91.5194C38.2308 97.0861 38.3723 106.002 43.939 111.38C49.5058 116.758 58.422 116.617 63.8 111.05C69.178 105.483 69.0365 96.5672 63.4698 91.1892C57.903 85.8111 48.9868 85.9527 43.6088 91.5194Z" fill="#25AFE1"/>
<path d="M358.127 23.595C362.184 21.1419 366.477 19.302 370.912 18.0283L373.554 5.38521L394.924 5.00781L397.991 17.5565C402.472 18.6416 406.812 20.3399 410.964 22.6515L421.767 15.5752L437.146 30.4355L430.447 41.4746C432.9 45.5317 434.74 49.8247 436.014 54.2592L448.657 56.901L449.035 78.2716L436.486 81.338C435.401 85.8197 433.702 90.1599 431.391 94.3113L438.467 105.115L423.607 120.494L412.568 113.795C408.511 116.248 404.218 118.088 399.783 119.362L397.141 132.005L375.771 132.382L372.704 119.833C368.223 118.748 363.882 117.05 359.731 114.738L348.928 121.815L333.549 106.955L340.247 95.9153C337.794 91.8582 335.955 87.5652 334.681 83.1307L322.038 80.4889L321.66 59.1183L334.209 56.0519C335.294 51.5702 336.992 47.23 339.304 43.0786L332.228 32.2753L347.088 16.8961L358.127 23.595ZM369.496 52.0419C360.722 61.1468 360.958 75.6769 370.063 84.4516C379.167 93.2263 393.698 92.9904 402.472 83.8855C411.247 74.7806 411.011 60.2505 401.906 51.4758C392.801 42.7012 378.318 42.937 369.496 52.0419Z" fill="#25AFE1"/>
<path d="M230.848 399.767C341.241 399.767 430.731 310.276 430.731 199.883C430.731 89.4908 341.241 0 230.848 0C120.456 0 30.9648 89.4908 30.9648 199.883C30.9648 310.276 120.456 399.767 230.848 399.767Z" fill="#F1F4F5"/>
<mask id="mask0_5163_11454" style="mask-type:luminance" maskUnits="userSpaceOnUse" x="30" y="0" width="401" height="400">
<path d="M230.848 399.767C341.241 399.767 430.731 310.276 430.731 199.883C430.731 89.4908 341.241 0 230.848 0C120.456 0 30.9648 89.4908 30.9648 199.883C30.9648 310.276 120.456 399.767 230.848 399.767Z" fill="white"/>
</mask>
<g mask="url(#mask0_5163_11454)">
<path opacity="0.9" d="M164.425 366.988C79.9336 353.354 61.2992 343.871 52.7132 326.558C40.2117 301.413 49.3166 260.701 70.7343 235.65C89.5102 213.667 113.004 209.326 112.296 194.042C111.73 181.493 95.6431 179.889 83.8491 156.301C80.4053 149.413 73.7064 136.063 76.6313 119.976C80.8771 96.435 102.625 84.0278 104.418 83.0843C127.156 70.5827 140.177 84.9713 157.349 73.7435C178.766 59.6852 169.001 30.2004 189.192 21.6616C203.864 15.4344 222.64 25.2941 227.546 27.8416C243.916 36.4276 242.171 45.155 255.993 50.4859C272.221 56.7603 279.958 46.8062 298.876 50.769C314.491 54.0241 325.766 64.8273 335.012 75.6777C355.77 100.068 345.438 114.551 360.77 144.696C382.377 187.107 415.022 182.2 420.778 216.261C423.797 234.047 416.013 242.114 422.004 269.428C426.061 287.874 431.109 291.176 432.005 301.979C434.6 333.163 397.237 360.43 390.255 365.195C346.004 395.576 284.865 386.471 164.425 366.988Z" fill="url(#paint0_linear_5163_11454)"/>
<path opacity="0.3" d="M301.66 285.563C244.719 281.459 206.318 332.739 191.08 320.002C176.692 307.925 217.404 267.165 203.487 219.47C189.854 172.672 136.356 162.954 140.555 136.583C145.32 106.768 217.074 98.9835 215.376 76.9996C214.385 64.0263 189.004 61.2901 183.909 40.6744C182.541 35.1077 183.013 29.5409 184.428 24.3516C170.464 35.2964 176.833 60.8656 157.255 73.6502C140.083 84.878 127.11 70.4894 104.324 82.991C102.579 83.9816 80.8305 96.3417 76.5375 119.882C73.6126 135.969 80.3115 149.32 83.7554 156.208C95.5493 179.796 111.636 181.399 112.202 193.948C112.91 209.186 89.4165 213.526 70.6406 235.557C49.2229 260.655 40.1179 301.32 52.6194 326.465C61.2526 343.778 79.8398 353.26 164.332 366.894C284.818 386.378 345.958 395.483 390.256 365.054C407.428 353.26 427.713 333.022 432.101 315.001C423.42 322.691 414.882 326.418 406.956 327.786C370.065 334.39 352.987 289.243 301.66 285.563Z" fill="url(#paint1_linear_5163_11454)"/>
<path d="M95.9736 375.007C84.5099 357.788 91.4919 330.898 92.9543 325.237C98.7098 303.111 112.249 289.477 117.155 284.571C151.074 251.171 202.826 251.501 242.029 251.737C281.138 251.973 303.027 252.114 326.851 265.607C369.875 289.996 399.454 346.702 382.188 374.535C371.432 391.849 376.385 452.375 252.549 456.715C172.256 459.593 110.315 396.661 95.9736 375.007Z" fill="#1F4EAD"/>
<path d="M221.461 185.453C221.461 185.453 229.717 244.753 187.872 256.5C183.06 257.868 181.55 263.953 185.23 267.397L236.84 315.941C239.954 318.866 244.907 318.677 247.785 315.516L294.63 263.718C297.697 260.321 296.376 254.896 292.083 253.339C277.034 247.819 250.144 231.733 255.758 188.331L221.461 185.453Z" fill="#EC996F"/>
<path d="M195.799 152.576C195.799 153.237 207.074 211.074 236.04 211.074C263.496 211.074 273.922 168.475 277.319 148.566C277.696 145.17 278.026 141.82 278.404 138.424C276.517 139.037 271.894 140.264 266.374 138.754C265.1 138.424 257.175 136.254 254.203 129.696C250.9 122.384 256.986 116.581 253.495 110.165C251.514 106.439 247.457 104.74 244.39 103.844C246.419 106.863 250.429 113.562 248.164 119.648C246.655 123.752 242.409 127.668 233.021 130.026C206.036 136.867 195.516 139.462 195.799 152.576Z" fill="#EC996F"/>
<path d="M202.875 159.46C202.875 159.46 187.968 146.817 186.647 154.553C183.911 170.64 196.695 179.557 203.63 174.745C210.565 169.933 202.875 159.46 202.875 159.46Z" fill="#EC996F"/>
<path d="M268.684 159.46C268.684 159.46 283.591 146.817 284.912 154.553C287.648 170.64 274.864 179.557 267.929 174.745C260.994 169.933 268.684 159.46 268.684 159.46Z" fill="#EC996F"/>
<path d="M222.266 187.344C222.266 187.344 234.154 201.497 249.911 188.24C249.911 188.24 227.078 188.287 222.266 187.344Z" fill="white"/>
<path fill-rule="evenodd" clip-rule="evenodd" d="M329.828 237.312V284.63H282.463V293.263H338.461V237.312H329.828ZM329.828 133.998V86.6331H282.511V78H338.461V133.951H329.828V133.998ZM124 293.263V237.312L132.633 241.134V284.63H179.951V293.263H124ZM124 78H179.951V86.6331H132.633V133.951H124V78Z" fill="white"/>
</g>
<path d="M466.398 399.673C466.398 399.767 365.961 399.862 242.078 399.862C118.148 399.862 17.7578 399.767 17.7578 399.673C17.7578 399.579 118.195 399.484 242.078 399.484C365.914 399.484 466.398 399.579 466.398 399.673Z" fill="#192E35"/>
<path d="M513.51 36.9844L314.398 117.781L345.812 195.197L544.925 114.4L513.51 36.9844Z" fill="white"/>
<path d="M513.491 36.9922L314.379 117.789L321.102 134.356L520.214 53.5594L513.491 36.9922Z" fill="#1F4EAD" stroke="#192E35" stroke-width="1.13415" stroke-miterlimit="10"/>
<path d="M369.462 129.484L349.922 137.413L357.851 156.953L377.391 149.024L369.462 129.484Z" fill="#E1E1E1"/>
<path d="M386.129 136.562L366.59 144.492L374.519 164.031L394.058 156.102L386.129 136.562Z" fill="#E1E1E1"/>
<path d="M416.071 110.57L396.531 118.499L404.46 138.039L424 130.11L416.071 110.57Z" fill="#E1E1E1"/>
<path d="M432.738 117.648L413.199 125.577L421.128 145.117L440.667 137.188L432.738 117.648Z" fill="white"/>
<path d="M440.688 137.151C440.641 137.151 440.405 136.632 439.981 135.689C439.509 134.651 438.943 133.33 438.235 131.726C436.773 128.329 434.697 123.517 432.338 117.762L432.857 117.998C427.149 120.357 420.45 123.093 413.326 125.971C413.279 126.112 413.845 124.791 413.609 125.357V125.404L413.657 125.499L413.704 125.688L413.845 126.018L414.128 126.678L414.647 127.999C415.025 128.895 415.355 129.745 415.685 130.594C416.393 132.339 417.053 133.99 417.714 135.642C419.035 138.944 420.261 142.01 421.393 144.888L420.874 144.652C426.677 142.341 431.536 140.454 435.027 139.133C436.678 138.519 437.999 138 439.084 137.623C440.075 137.34 440.641 137.151 440.688 137.151C440.735 137.151 440.264 137.387 439.414 137.765C438.377 138.189 437.103 138.755 435.546 139.463C432.149 140.925 427.243 143.001 421.346 145.454L420.969 145.596L420.827 145.218C419.648 142.388 418.374 139.274 417.053 136.019C416.393 134.368 415.685 132.67 414.977 130.971C414.647 130.122 414.27 129.226 413.892 128.377L413.374 127.056L413.09 126.395L412.949 126.065L412.902 125.876L412.855 125.782V125.735C412.619 126.301 413.185 124.98 413.138 125.121C420.308 122.244 427.007 119.555 432.716 117.243L433.093 117.102L433.234 117.479C435.593 123.423 437.527 128.424 438.848 131.868C439.462 133.472 439.933 134.792 440.358 135.83C440.547 136.727 440.688 137.198 440.688 137.151Z" fill="#E1E1E1"/>
<path d="M504.33 88.5469L496.637 91.6688L499.759 99.3622L507.452 96.2404L504.33 88.5469Z" fill="#FAFBFB"/>
<path d="M544.899 114.41C544.899 114.41 544.663 113.938 544.285 113.042C543.908 112.099 543.342 110.778 542.634 109.032C541.172 105.494 539.049 100.352 536.313 93.7C530.84 80.3493 522.962 61.1016 513.15 37.1364L513.574 37.3251C463.615 57.6578 392.852 86.3878 314.54 118.279L314.823 117.665C325.815 144.744 336.429 170.879 346.195 195.081L345.582 194.845C403.183 171.54 452.953 151.443 488.335 137.149C506.026 130.025 520.131 124.364 529.85 120.449C534.709 118.514 538.436 117.005 540.983 116.014C542.257 115.495 543.2 115.118 543.861 114.882C544.568 114.505 544.899 114.41 544.899 114.41C544.899 114.41 544.616 114.552 543.955 114.835C543.295 115.118 542.351 115.495 541.125 116.014C538.577 117.052 534.897 118.562 530.133 120.543C520.462 124.506 506.451 130.261 488.807 137.432C453.425 151.868 403.608 172.153 345.959 195.647L345.534 195.835L345.346 195.411C335.533 171.21 324.919 145.074 313.927 117.996L313.738 117.571L314.163 117.382C392.568 85.6329 463.332 56.9501 513.338 36.7118L513.668 36.5703L513.81 36.9005C523.481 61.0073 531.312 80.3965 536.69 93.7943C539.332 100.446 541.408 105.588 542.823 109.127C543.531 110.872 544.05 112.193 544.38 113.089C544.757 113.938 544.899 114.41 544.899 114.41Z" fill="#1195A8"/>
<path d="M544.899 114.41C544.899 114.41 544.663 113.938 544.285 113.042C543.908 112.099 543.342 110.778 542.634 109.032C541.172 105.494 539.049 100.352 536.313 93.7C530.84 80.3493 522.962 61.1016 513.15 37.1364L513.574 37.3251C463.615 57.6578 392.852 86.3878 314.54 118.279L314.823 117.665C325.815 144.744 336.429 170.879 346.195 195.081L345.582 194.845C403.183 171.54 452.953 151.443 488.335 137.149C506.026 130.025 520.131 124.364 529.85 120.449C534.709 118.514 538.436 117.005 540.983 116.014C542.257 115.495 543.2 115.118 543.861 114.882C544.568 114.505 544.899 114.41 544.899 114.41ZM544.899 114.41C544.899 114.41 544.616 114.552 543.955 114.835C543.295 115.118 542.351 115.495 541.125 116.014C538.577 117.052 534.897 118.562 530.133 120.543C520.462 124.506 506.451 130.261 488.807 137.432C453.425 151.868 403.608 172.153 345.959 195.647L345.534 195.835L345.346 195.411C335.533 171.21 324.919 145.074 313.927 117.996L313.738 117.571L314.163 117.382C392.568 85.6329 463.332 56.9501 513.338 36.7118L513.668 36.5703L513.81 36.9005C523.481 61.0073 531.312 80.3965 536.69 93.7943C539.332 100.446 541.408 105.588 542.823 109.127C543.531 110.872 544.05 112.193 544.38 113.089C544.757 113.938 544.899 114.41 544.899 114.41Z" stroke="#1F4EAD" stroke-width="1.13415" stroke-miterlimit="10"/>
<path d="M466.585 113.178C465.878 111.008 452.102 104.593 440.969 108.272C429.836 111.952 422.571 125.303 423.278 127.426C423.986 129.596 437.761 136.012 448.895 132.332C460.028 128.699 467.293 115.349 466.585 113.178ZM454.556 117.141C455.405 119.689 455.169 122.472 453.99 124.878C452.763 127.284 450.64 129.077 448.093 129.926C445.545 130.775 442.762 130.539 440.356 129.36C437.95 128.133 436.157 126.01 435.308 123.463C434.459 120.915 434.695 118.132 435.874 115.726C437.101 113.32 439.224 111.527 441.771 110.678C444.319 109.829 447.102 110.065 449.508 111.244C451.914 112.471 453.706 114.594 454.556 117.141ZM425.778 126.624C426.25 125.161 428.751 120.349 432.996 116.245C432.053 118.84 432.053 121.67 432.902 124.312C433.751 126.954 435.497 129.218 437.761 130.728C431.911 129.926 427.052 127.52 425.778 126.624ZM456.867 124.406C457.811 121.812 457.811 118.981 456.962 116.339C456.112 113.697 454.367 111.433 452.103 109.923C457.952 110.725 462.811 113.084 464.085 114.028C463.613 115.49 461.113 120.302 456.867 124.406Z" fill="#1F4EAD"/>
<path d="M447.29 127.566C449.225 126.952 450.781 125.584 451.678 123.744C452.574 121.952 452.763 119.876 452.102 117.942C450.498 118.461 448.706 118.178 447.385 117.14C446.064 116.102 445.309 114.451 445.451 112.753C443.186 112.564 440.969 113.413 439.365 115.064C437.808 116.715 437.053 118.98 437.289 121.244C437.572 123.509 438.846 125.537 440.78 126.764C442.762 127.943 445.12 128.273 447.29 127.566Z" fill="#1F4EAD"/>
<path d="M132.441 238.616L73.8957 217.906L15.8696 238.333C8.46307 241.777 2 243.806 2 250.599V284.424C2 307.917 8.22719 331.175 21.1061 351.696C31.9094 368.963 48.6567 386.795 74.4618 398.117C98.144 390.522 115.882 370.331 126.685 353.017C139.517 332.496 145.791 309.191 145.791 285.745V255.317C145.744 245.646 140.555 240.928 132.441 238.616Z" fill="#25AFE1" stroke="#1F4EAD" stroke-width="3.06647" stroke-miterlimit="10"/>
<path d="M93.3319 297.775C93.3319 288.812 86.0669 281.547 77.1035 281.547C68.1401 281.547 60.875 288.812 60.875 297.775C60.875 305.182 65.8757 311.362 72.669 313.296V337.544H81.538V313.296C88.3313 311.362 93.3319 305.182 93.3319 297.775Z" fill="#1F4EAD"/>
<path d="M47.8546 156.674C33.7962 156.486 22.191 167.713 22.0023 181.772C21.8136 195.83 33.0414 207.435 47.0998 207.624C59.1296 207.813 69.3195 199.604 72.15 188.423L79.2264 188.518L84.2742 181.441L88.52 188.659L97.389 188.801L102.437 181.725L106.683 188.942L114.325 189.037L117.391 184.744L119.986 189.131L124.421 189.178L130.27 183.753L123.76 173.374L71.0178 172.62C67.3853 163.373 58.4219 156.816 47.8546 156.674ZM28.89 181.866C28.9371 177.809 32.2866 174.601 36.2965 174.648C40.3536 174.695 43.5616 178.045 43.5144 182.055C43.4672 186.112 40.1178 189.32 36.1078 189.273C32.0507 189.225 28.8428 185.923 28.89 181.866Z" fill="#F15A4B"/>
<path d="M47.8546 156.674C33.7963 156.486 22.191 167.713 22.0023 181.772C21.8136 195.83 33.0414 207.435 47.0998 207.624C59.1296 207.813 69.3195 199.604 72.1501 188.423L79.2264 188.518L84.2742 181.441L88.52 188.659L97.389 188.801L102.437 181.725L106.682 188.942L114.325 189.037L117.391 184.744L119.986 189.131L124.42 189.178L130.27 183.753L123.76 173.374L71.0179 172.62C67.3853 163.373 58.422 156.816 47.8546 156.674ZM28.89 181.866C28.9372 177.809 32.2866 174.601 36.2966 174.648C40.3537 174.695 43.5616 178.045 43.5144 182.055C43.4673 186.112 40.1178 189.32 36.1079 189.273C32.0508 189.225 28.8428 185.923 28.89 181.866Z" fill="url(#paint2_linear_5163_11454)"/>
<path d="M28.8913 181.866C28.9385 181.866 28.9385 182.527 29.2215 183.612C29.5046 184.697 30.2122 186.301 31.8634 187.528C33.4202 188.754 36.0148 189.462 38.5151 188.565C41.0154 187.763 43.1855 185.122 43.2327 182.055C43.327 178.989 41.2041 176.3 38.7038 175.403C36.2035 174.413 33.6089 175.073 32.0049 176.253C30.3537 177.432 29.5989 179.036 29.2687 180.074C28.9385 181.206 28.9385 181.866 28.8913 181.866C28.8913 181.866 28.8441 181.725 28.8441 181.395C28.8441 181.064 28.8913 180.64 29.0328 180.074C29.2687 178.942 30.0235 177.243 31.7218 175.922C33.373 174.601 36.1563 173.847 38.8925 174.884C40.2135 175.356 41.4872 176.3 42.3835 177.573C43.327 178.847 43.7988 180.451 43.7988 182.102C43.7516 183.753 43.1855 185.357 42.242 186.584C41.2985 187.811 40.0248 188.707 38.6567 189.179C35.9205 190.122 33.1371 189.273 31.5331 187.905C29.8348 186.537 29.1744 184.839 28.9385 183.706C28.8441 183.14 28.7969 182.668 28.7969 182.338C28.8441 182.055 28.8441 181.866 28.8913 181.866Z" fill="#1F4EAD"/>
<path d="M47.852 156.684C47.852 156.684 48.0407 156.684 48.3709 156.684C48.7483 156.684 49.2201 156.731 49.8805 156.731C51.2015 156.872 53.1828 157.108 55.5888 157.863C57.9948 158.665 60.9197 160.033 63.7974 162.392C66.6279 164.751 69.4584 168.1 71.2983 172.535L71.1096 172.393C84.7434 172.582 102.859 172.771 123.852 173.054H123.993L124.088 173.195C126.116 176.45 128.334 179.989 130.598 183.574L130.74 183.763L130.551 183.951C128.711 185.65 126.73 187.489 124.701 189.376L124.607 189.471H124.465C123.097 189.471 121.54 189.424 120.031 189.424H119.842L119.748 189.282C118.946 187.914 118.049 186.404 117.153 184.895H117.672C116.728 186.263 115.643 187.725 114.605 189.188L114.511 189.329H114.37C111.964 189.282 109.369 189.282 106.727 189.235H106.538L106.444 189.093C105.123 186.829 103.661 184.376 102.198 181.876L102.717 181.923C101.113 184.14 99.3678 186.546 97.6695 188.999L97.5751 189.141H97.3864C96.6316 189.141 95.8296 189.141 95.0277 189.093C92.8576 189.046 90.6875 189.046 88.5174 188.999H88.3287L88.2344 188.858C86.8191 186.452 85.4038 184.046 83.9885 181.64L84.5075 181.687C82.8092 184.046 81.1108 186.404 79.4597 188.763L79.3653 188.905H79.2238C76.8178 188.858 74.4591 188.858 72.1475 188.81L72.4305 188.575C71.3927 192.584 69.4584 196.264 66.7694 199.236C65.4485 200.746 63.9861 202.067 62.3821 203.199C60.8253 204.378 59.0798 205.275 57.3343 206.03C50.2108 209.002 42.2381 208.435 36.0581 205.322C29.7837 202.255 25.3492 196.783 23.2735 191.075C21.1506 185.319 21.4336 179.375 22.9432 174.516C24.5472 169.61 27.3306 165.741 30.397 163.147C33.4162 160.458 36.577 158.901 39.266 158.052C39.5963 157.958 39.9265 157.816 40.2567 157.722C40.5869 157.627 40.87 157.58 41.2002 157.486C41.8135 157.344 42.3796 157.203 42.8985 157.108C43.9836 156.967 44.8799 156.825 45.5876 156.778C46.2952 156.778 46.8613 156.731 47.2387 156.731C47.6633 156.637 47.852 156.684 47.852 156.684C47.852 156.684 47.6633 156.731 47.2859 156.731C46.9085 156.731 46.3424 156.778 45.6347 156.825C44.9271 156.872 44.0308 157.061 42.9457 157.203C42.4268 157.297 41.8607 157.439 41.2474 157.58C40.9643 157.674 40.6341 157.722 40.3039 157.816C39.9737 157.91 39.6906 158.052 39.3604 158.146C36.7657 158.995 33.6521 160.599 30.68 163.241C27.708 165.883 24.9718 169.704 23.415 174.516C21.9526 179.328 21.7167 185.178 23.8396 190.792C25.8681 196.406 30.2555 201.737 36.3883 204.709C42.474 207.728 50.258 208.294 57.1928 205.369C58.8911 204.614 60.5894 203.765 62.1462 202.586C63.703 201.501 65.1183 200.18 66.4392 198.717C69.0339 195.792 70.9209 192.207 71.9588 188.291L72.0059 188.056H72.2418C74.6006 188.103 76.9594 188.103 79.3182 188.15L79.0823 188.291C80.7334 185.98 82.4317 183.621 84.1301 181.215L84.4131 180.838L84.649 181.262C86.0643 183.621 87.4795 186.027 88.8948 188.48L88.6118 188.339C90.7818 188.386 92.9519 188.386 95.122 188.433C95.924 188.433 96.726 188.433 97.4808 188.48L97.1977 188.622C98.9432 186.216 100.641 183.81 102.245 181.545L102.528 181.168L102.764 181.593C104.227 184.046 105.689 186.499 107.01 188.81L106.727 188.669C109.369 188.716 111.964 188.763 114.37 188.763L114.134 188.905C115.219 187.442 116.257 185.933 117.2 184.612L117.483 184.234L117.719 184.659C118.615 186.169 119.512 187.678 120.314 189.046L120.031 188.905C121.587 188.905 123.097 188.952 124.465 188.952L124.276 189.046C126.305 187.159 128.334 185.319 130.173 183.621L130.126 183.998C127.862 180.413 125.692 176.875 123.616 173.62L123.852 173.761C102.859 173.431 84.7434 173.148 71.1096 172.912H70.9681L70.9209 172.771C69.1754 168.383 66.392 165.081 63.6087 162.722C60.7781 160.363 57.9004 158.995 55.4944 158.193C53.0885 157.391 51.1071 157.108 49.8334 156.967C49.1729 156.92 48.7012 156.872 48.3237 156.872C48.0407 156.684 47.852 156.684 47.852 156.684Z" fill="#1F4EAD"/>
<path d="M74.5561 343.815C97.6924 343.815 116.448 325.059 116.448 301.923C116.448 278.787 97.6924 260.031 74.5561 260.031C51.4198 260.031 32.6641 278.787 32.6641 301.923C32.6641 325.059 51.4198 343.815 74.5561 343.815Z" fill="#1F4EAD"/>
<mask id="mask1_5163_11454" style="mask-type:luminance" maskUnits="userSpaceOnUse" x="32" y="260" width="85" height="84">
<path d="M74.5561 343.823C97.6924 343.823 116.448 325.067 116.448 301.931C116.448 278.795 97.6924 260.039 74.5561 260.039C51.4198 260.039 32.6641 278.795 32.6641 301.931C32.6641 325.067 51.4198 343.823 74.5561 343.823Z" fill="white"/>
</mask>
<g mask="url(#mask1_5163_11454)">
<path d="M81.3979 309.293C88.0968 306.462 92.8615 299.574 92.9087 291.413C92.9559 280.751 84.8889 272.071 74.8876 272.024C64.8864 271.977 56.7722 280.563 56.725 291.224C56.6778 299.433 61.4897 306.415 68.283 309.245C40.4494 313.444 41.676 343.731 41.676 343.731L107.533 344.014C107.533 344.108 108.996 313.491 81.3979 309.293Z" fill="white"/>
</g>
<path d="M488.239 98.0344C493.789 98.0344 498.287 93.5356 498.287 87.986C498.287 82.4364 493.789 77.9375 488.239 77.9375C482.689 77.9375 478.191 82.4364 478.191 87.986C478.191 93.5356 482.689 98.0344 488.239 98.0344Z" fill="#1F4EAD"/>
<path d="M516.876 87.5533C515.319 83.5434 510.79 81.5148 506.733 83.0716C502.723 84.6284 500.694 89.1573 502.251 93.2144C503.336 96.0449 505.978 97.9791 508.997 98.1678L513.385 109.301L517.725 111.188L520.886 103.923L516.545 102.036L518.432 97.6961L514.847 96.1393C517.253 93.9692 518.055 90.5254 516.876 87.5533ZM509.611 90.3838C508.478 90.8556 507.157 90.2895 506.733 89.1101C506.261 87.9779 506.827 86.657 508.007 86.2324C509.139 85.7606 510.46 86.3267 510.884 87.5061C511.309 88.6383 510.743 89.9593 509.611 90.3838Z" fill="#1F4EAD"/>
<path d="M501.732 98.3127C499.845 98.2184 497.958 98.5486 496.213 99.2091L489.985 101.662C483.098 104.351 479.701 112.135 482.39 119.07L484.041 123.221L511.12 112.607L506.638 101.143C504.799 100.624 503.1 99.6808 501.732 98.3127Z" fill="#1F4EAD"/>
<path d="M410.115 374.023L407.661 400.346L393.414 399.309L395.867 372.938L410.115 374.023Z" fill="#25AFE1"/>
<path d="M400.729 398.812C400.588 398.812 401.154 393.057 401.909 385.933C402.663 378.857 403.371 373.102 403.513 373.102C403.654 373.102 403.088 378.857 402.333 385.98C401.531 393.057 400.824 398.812 400.729 398.812Z" fill="#25AFE1"/>
<path d="M407.803 398.491L393.603 397.406L393.414 399.293L407.661 400.331L407.803 398.491Z" fill="#192E35"/>
<path d="M394.219 390.858C394.219 390.858 394.361 390.622 394.644 390.339C394.927 390.009 395.399 389.585 396.059 389.113C396.672 388.641 397.521 388.169 398.512 387.792C399.503 387.414 400.682 387.226 401.909 387.367C404.362 387.603 406.296 389.018 407.192 390.339C407.664 391 407.947 391.566 408.089 391.991C408.23 392.415 408.277 392.651 408.23 392.651C408.136 392.698 407.9 391.707 406.957 390.528C406.013 389.349 404.173 388.075 401.862 387.839C399.55 387.603 397.521 388.594 396.248 389.396C394.927 390.198 394.266 390.905 394.219 390.858Z" fill="#25AFE1"/>
<g opacity="0.3">
<path d="M395.162 380.43L394.926 383.307L409.173 384.298L409.362 382.128L395.162 380.43Z" fill="black"/>
</g>
<path d="M467.341 372.156L469.039 398.527L454.84 399.754L453.047 373.336L467.341 372.156Z" fill="#25AFE1"/>
<path d="M461.963 398.172C461.821 398.172 461.444 392.417 461.067 385.293C460.689 378.17 460.5 372.367 460.595 372.367C460.736 372.367 461.114 378.123 461.491 385.246C461.869 392.37 462.057 398.172 461.963 398.172Z" fill="#25AFE1"/>
<path d="M468.895 396.75L454.695 397.882L454.837 399.769L469.036 398.543L468.895 396.75Z" fill="#192E35"/>
<path d="M454.273 391.332C454.273 391.332 454.367 391.096 454.603 390.718C454.839 390.341 455.216 389.869 455.782 389.303C456.349 388.737 457.056 388.124 458 387.605C458.896 387.086 460.028 386.708 461.255 386.614C463.708 386.472 465.878 387.557 466.963 388.69C467.529 389.256 467.907 389.775 468.095 390.152C468.284 390.53 468.378 390.765 468.378 390.765C468.284 390.813 467.907 389.916 466.774 388.878C465.689 387.841 463.661 386.897 461.302 386.991C458.99 387.133 457.103 388.407 456.018 389.444C454.839 390.577 454.32 391.379 454.273 391.332Z" fill="#25AFE1"/>
<g opacity="0.3">
<path d="M453.566 380.847L453.755 383.772L468.002 382.498L467.861 380.281L453.566 380.847Z" fill="black"/>
</g>
<path d="M427.053 139.04L407.475 141.965L406.579 125.218C406.579 125.218 405.164 125.171 403.89 118C402.616 110.829 400.305 98.7522 400.305 98.7522C408.325 93.7987 418.42 93.3741 426.723 97.7143L427.95 98.3747L427.053 139.04Z" fill="#FBBD9D"/>
<path d="M427.102 107.496C427.196 107.402 431.961 105.232 432.574 110.138C433.187 115.044 427.951 114.714 427.951 114.573C427.904 114.431 427.102 107.496 427.102 107.496Z" fill="#FBBD9D"/>
<path d="M403.087 110.349C402.945 110.302 398.228 109.878 399.171 114.737C400.115 119.596 404.974 117.614 404.974 117.473C405.021 117.331 403.087 110.349 403.087 110.349Z" fill="#FBBD9D"/>
<path d="M428.657 106.709C428.562 110.954 429.081 113.077 428.798 115.908C428.374 120.437 426.675 124.116 422.995 126.947C419.316 129.778 413.796 130.627 409.881 128.221C407.144 126.57 405.069 124.541 404.172 121.522C403.323 118.503 402.097 113.077 401.531 110.011C400.587 104.444 399.312 99.1605 399.312 99.1605L415.4 93.5938L425.685 97.4622L428.657 106.709Z" fill="#192E35"/>
<path d="M415.023 130.77C415.023 130.865 416.391 131.006 417.948 130.535C419.552 130.11 420.637 129.308 420.59 129.214C420.542 129.119 419.363 129.685 417.853 130.063C416.344 130.535 415.023 130.629 415.023 130.77Z" fill="#192E35"/>
<path d="M428.985 113.777C428.797 109.484 428.325 104.625 428.278 100.096C428.278 98.3975 428.466 95.8972 428.042 94.2461C427.617 92.5949 427.193 90.8966 426.155 89.4813C424.881 87.7358 422.758 86.6036 420.541 86.5564C418.324 86.5093 416.059 87.4528 414.644 89.1511C413.182 87.5943 410.634 87.0754 408.606 87.8773C406.577 88.6793 405.162 90.8022 405.209 92.9251C403.841 92.0288 401.859 92.1232 400.633 93.2082C399.359 94.2461 398.935 96.1331 399.642 97.5484C398.463 97.9258 397.566 98.9165 397.236 100.049C396.906 101.181 397.236 102.455 398.038 103.351C398.982 104.389 400.491 104.766 401.482 105.71C402.661 106.795 403.039 108.587 402.473 110.097" fill="#192E35"/>
<path d="M403.559 102.322C403.559 102.322 403.607 102.511 403.795 102.747C403.984 102.983 404.361 103.36 404.927 103.643C405.494 103.926 406.296 104.115 407.192 103.973C408.088 103.832 409.032 103.266 409.645 102.322L409.268 102.275C409.598 103.313 410.636 104.115 411.862 104.351C413.089 104.634 414.551 104.209 415.542 103.313C416.438 102.464 417.004 101.379 417.193 100.293L416.816 100.388C417.948 101.567 419.552 101.945 420.873 101.756C422.241 101.567 423.279 100.765 423.845 100.01C424.411 99.2086 424.647 98.4537 424.694 97.9348C424.741 97.4159 424.694 97.1328 424.647 97.1328C424.6 97.1328 424.6 97.4159 424.505 97.8876C424.411 98.3594 424.175 99.067 423.609 99.8218C423.043 100.529 422.099 101.237 420.826 101.379C419.599 101.52 418.137 101.143 417.146 100.105L416.863 99.7747L416.769 100.199C416.58 101.19 416.061 102.181 415.212 102.935C414.315 103.784 413.089 104.162 411.957 103.879C410.872 103.69 409.928 102.935 409.645 102.086L409.504 101.709L409.268 102.086C408.749 102.935 407.9 103.407 407.098 103.596C406.296 103.784 405.541 103.643 405.022 103.407C403.937 102.935 403.607 102.275 403.559 102.322Z" fill="#454545"/>
<path d="M403.275 100.39C403.369 100.39 403.133 99.588 403.699 98.503C403.983 97.984 404.501 97.4179 405.256 97.0877C406.011 96.7575 407.002 96.7575 407.851 97.1349L408.276 97.3707L408.134 96.899C408.04 96.4272 407.992 95.9555 408.087 95.4837C408.275 94.3987 408.936 93.408 409.738 92.889C410.587 92.3229 411.531 92.1814 412.285 92.2758C413.842 92.4173 414.597 93.1721 414.644 93.0778C414.644 93.0778 414.503 92.8419 414.125 92.606C413.748 92.3701 413.135 92.0399 412.333 91.9455C411.531 91.8512 410.446 91.9455 409.502 92.5588C408.559 93.1721 407.804 94.21 407.615 95.4365C407.521 96.0026 407.568 96.5216 407.709 97.0405L408.04 96.8046C407.049 96.3329 405.917 96.4272 405.068 96.8046C404.218 97.182 403.652 97.8425 403.416 98.4558C403.133 99.0691 403.086 99.588 403.133 99.9654C403.181 100.201 403.228 100.39 403.275 100.39Z" fill="#454545"/>
<path d="M413.842 98.8252C413.889 98.778 413.795 98.5422 413.748 98.1647C413.7 97.7873 413.795 97.2212 414.031 96.6551C414.267 96.089 414.597 95.5229 414.785 95.1927C415.021 94.9096 415.257 95.0511 415.304 95.004C415.352 95.004 415.304 94.9096 415.163 94.8153C415.021 94.7681 414.738 94.7681 414.55 94.9568C414.361 95.1455 414.219 95.3814 414.078 95.6173C413.936 95.8531 413.748 96.1362 413.606 96.4664C413.323 97.1269 413.276 97.7873 413.417 98.2119C413.559 98.6365 413.795 98.8252 413.842 98.8252Z" fill="#454545"/>
<path d="M422.665 91.0363C422.712 90.9891 422.618 90.6588 422.193 90.1871C422.005 89.9512 421.722 89.7153 421.297 89.5266C420.92 89.3379 420.401 89.2908 419.929 89.4795C418.938 89.7625 418.419 90.5173 418.136 91.0363C417.853 91.5552 417.712 91.8854 417.759 91.9326C417.806 91.9798 418.042 91.6967 418.419 91.225C418.75 90.8004 419.316 90.1871 420.071 89.9512C420.873 89.7153 421.58 90.0927 421.958 90.4701C422.382 90.8004 422.618 91.0834 422.665 91.0363Z" fill="#454545"/>
<path d="M423.421 112.272C423.516 112.319 424.318 110.857 424.648 108.875C425.025 106.894 424.837 105.243 424.695 105.29C424.554 105.29 424.554 106.894 424.176 108.828C423.893 110.715 423.327 112.178 423.421 112.272Z" fill="#454545"/>
<path d="M421.392 113.774C421.534 113.821 421.958 112.736 422.241 111.368C422.525 110 422.572 108.82 422.43 108.82C422.289 108.82 422.053 109.905 421.77 111.273C421.534 112.641 421.298 113.726 421.392 113.774Z" fill="#454545"/>
<path d="M407.523 116.376C407.428 116.376 407.523 118.452 408.797 120.574C410.07 122.744 411.863 123.877 411.91 123.782C412.005 123.688 410.401 122.461 409.221 120.386C407.995 118.31 407.664 116.329 407.523 116.376Z" fill="#454545"/>
<path d="M404.736 113.173C404.642 113.126 404.264 115.013 405.019 117.088C405.774 119.211 407.236 120.438 407.331 120.343C407.425 120.249 406.198 118.975 405.491 116.947C404.736 114.965 404.877 113.173 404.736 113.173Z" fill="#454545"/>
<path d="M406.625 138.555L406.814 134.355L427.288 130.062L427.995 133.507L406.625 138.555Z" fill="white"/>
<path d="M342.561 189.409C342.561 189.409 341.57 189.928 342.278 190.683C342.986 191.438 352.279 199.693 353.553 200.495C354.827 201.297 358.554 202.288 358.554 202.288L361.007 201.816L362.469 195.872L364.215 193.042L363.79 192.381L365.441 186.06C365.441 186.06 364.026 185.494 363.366 186.484C362.469 187.947 361.196 190.258 361.196 190.258C361.196 190.258 358.648 190.636 357.705 189.551C356.761 188.418 351.336 179.266 350.675 179.125C350.015 178.983 349.024 179.172 349.543 180.634C350.062 182.097 353.553 187.286 353.412 187.569C353.27 187.852 352.751 188.23 352.515 187.994C352.279 187.758 346.713 180.446 345.863 180.304C344.92 180.163 344.259 180.918 345.109 182.333C345.958 183.748 350.487 188.89 350.251 189.22C350.062 189.551 349.449 189.173 349.449 189.173C349.449 189.173 344.307 183.795 343.552 183.89C342.75 183.984 342.608 184.786 343.033 185.494C343.458 186.154 348.647 191.202 348.741 191.626C348.788 191.909 348.6 192.947 348.175 192.57C347.75 192.193 342.986 189.079 342.561 189.409Z" fill="#FBBD9D"/>
<path d="M395.163 242.961L394.078 313.3L391.672 386.281L411.486 387.696L418.185 313.253L425.78 260.416L427.478 260.322L442.48 315.329L451.821 385.904C453 385.621 470.55 384.205 470.55 384.205L458.378 241.31L456.35 229.422L404.173 230.601L395.163 242.961Z" fill="#1F4EAD"/>
<path d="M453.848 205.075L452.338 164.409L449.838 136.34H432.713L428.326 132.094L406.389 136.34L404.36 142.472C404.36 142.472 386.764 148.086 385.773 149.785C385.773 149.785 391.953 174.174 394.878 187.855C396.859 197.243 398.982 206.867 398.982 206.867L393.416 251.778C393.18 251.778 427.288 250.269 427.288 250.269L460.264 246.683L453.848 205.075Z" fill="#25AFE1"/>
<path d="M471.635 123.504C471.635 123.504 466.634 123.882 466.304 123.882C466.021 123.882 460.831 124.353 460.831 124.353C460.831 124.353 461.067 123.127 462.247 122.561C463.426 122.042 465.691 121.192 465.926 120.768C466.162 120.343 466.681 119.777 466.209 119.117C465.738 118.456 457.057 109.682 456.774 109.21C456.491 108.738 456.02 107.842 456.774 107.653C457.529 107.464 458.52 108.314 459.133 108.832C459.794 109.351 463.143 112.229 463.52 112.04C463.898 111.852 463.568 111.569 463.568 111.569C463.568 111.569 457.859 105.672 457.765 105.483C457.718 105.294 457.01 103.549 458.661 103.832C459.463 103.973 465.407 110.059 465.643 109.823C465.879 109.587 460.643 102.888 461.114 102.322C461.586 101.803 462.105 101.237 463.096 102.322C464.039 103.407 468.144 108.88 468.427 108.927C468.71 108.974 469.087 108.691 468.946 108.266C468.804 107.842 466.398 103.596 466.398 103.124C466.398 102.652 466.87 102.511 467.342 102.464C467.813 102.417 472.908 109.776 472.908 109.776C472.908 109.776 476.824 116.098 477.249 116.852C477.72 117.701 478.381 120.06 478.381 120.06L471.635 123.504Z" fill="#FBBD9D"/>
<path d="M470.409 123.833L473.853 137.042L466.022 139.967L449.18 136.287V161.196L451.586 167.659C451.586 167.659 486.874 150.629 489.232 148.742C493.62 145.251 486.638 133.174 486.638 133.174L480.222 119.398L470.409 123.833Z" fill="#25AFE1"/>
<path d="M385.774 149.734L381.811 157.613L371.857 190.636L360.724 193.608L358.648 203.798C358.648 203.798 376.056 207.902 379.311 206.487C384.783 204.081 393.983 181.389 393.983 181.389L392.756 161.953L385.774 149.734Z" fill="#25AFE1"/>
<path d="M484.891 142.428C484.797 142.522 482.815 140.399 479.702 138.843C476.588 137.239 473.71 136.908 473.758 136.767C473.758 136.72 474.465 136.72 475.645 136.956C476.777 137.192 478.334 137.663 479.938 138.465C481.542 139.267 482.815 140.258 483.665 141.06C484.467 141.815 484.938 142.381 484.891 142.428Z" fill="#192E35"/>
<path d="M481.542 136.951C481.494 137.092 479.654 136.479 477.296 136.62C474.937 136.762 473.191 137.611 473.097 137.47C473.003 137.375 474.795 136.29 477.249 136.149C479.749 136.007 481.636 136.856 481.542 136.951Z" fill="#192E35"/>
<path d="M432.712 136.289C432.712 136.336 432.382 136.572 431.768 136.95C431.438 137.138 431.061 137.374 430.589 137.657C430.117 137.893 429.598 138.223 428.985 138.506C427.806 139.12 426.296 139.733 424.645 140.299C422.946 140.865 421.107 141.431 419.078 141.856C415.068 142.752 411.341 143.082 408.699 143.177C407.379 143.224 406.293 143.224 405.539 143.224C404.784 143.177 404.359 143.177 404.359 143.13C404.359 143.082 404.784 143.082 405.539 143.035C406.293 142.988 407.379 142.941 408.699 142.847C411.341 142.658 415.021 142.28 419.031 141.384C421.012 140.96 422.899 140.393 424.55 139.874C426.202 139.308 427.711 138.742 428.891 138.176C429.504 137.94 430.023 137.657 430.495 137.421C430.966 137.185 431.391 136.997 431.721 136.808C432.334 136.478 432.712 136.289 432.712 136.289Z" fill="#192E35"/>
<path d="M437.902 206.821C437.902 206.869 437.477 206.963 436.628 207.152C435.826 207.34 434.6 207.529 433.137 207.765C430.165 208.19 426.014 208.425 421.485 208.095C416.909 207.765 412.852 206.869 410.021 206.019C408.606 205.595 407.426 205.217 406.672 204.887C405.87 204.604 405.445 204.415 405.492 204.368C405.492 204.321 405.964 204.463 406.766 204.699C407.568 204.934 408.7 205.265 410.163 205.689C413.04 206.444 417.05 207.246 421.579 207.623C426.108 207.954 430.212 207.765 433.184 207.435C434.647 207.293 435.873 207.104 436.675 207.01C437.43 206.869 437.855 206.821 437.902 206.821Z" fill="#192E35"/>
<path d="M371.246 193.7C371.104 193.652 372.331 189.124 373.982 183.51C375.633 177.943 377.049 173.414 377.143 173.461C377.284 173.508 376.058 178.037 374.407 183.651C372.803 189.218 371.387 193.7 371.246 193.7Z" fill="#192E35"/>
<path d="M424.741 220.023C424.883 220.023 425.071 225.071 425.26 231.346C425.402 237.62 425.449 242.668 425.307 242.668C425.166 242.668 424.977 237.62 424.788 231.346C424.647 225.118 424.6 220.023 424.741 220.023Z" fill="#192E35"/>
<path d="M437.244 258.571C437.244 258.712 432.857 259.609 427.337 260.599C421.865 261.59 417.383 262.298 417.336 262.203C417.336 262.062 421.723 261.166 427.243 260.175C432.762 259.184 437.197 258.477 437.244 258.571Z" fill="#25AFE1"/>
<path d="M457.339 311.924C457.339 312.065 454.745 311.876 451.631 312.678C448.517 313.433 446.3 314.801 446.253 314.66C446.206 314.613 446.725 314.188 447.668 313.716C448.612 313.197 449.98 312.631 451.537 312.254C453.093 311.876 454.603 311.735 455.641 311.782C456.726 311.782 457.339 311.876 457.339 311.924Z" fill="#25AFE1"/>
<path d="M409.645 315.367C409.598 315.508 407.994 315.178 406.012 315.272C404.031 315.367 402.427 315.838 402.38 315.697C402.333 315.602 403.889 314.895 405.965 314.8C408.041 314.706 409.692 315.225 409.645 315.367Z" fill="#25AFE1"/>
<path d="M398.983 206.816C398.983 206.816 398.936 206.674 398.842 206.391C398.747 206.061 398.653 205.637 398.511 205.118C398.228 203.938 397.851 202.287 397.379 200.353C396.436 196.249 395.209 190.682 393.841 184.549C392.473 178.416 391.246 172.849 390.303 168.745C389.878 166.764 389.501 165.16 389.218 163.933C389.123 163.414 389.029 162.99 388.935 162.612C388.887 162.329 388.84 162.141 388.887 162.141C388.887 162.141 388.935 162.282 389.029 162.565C389.123 162.895 389.265 163.32 389.406 163.839C389.689 164.971 390.114 166.575 390.633 168.604C391.624 172.614 392.897 178.227 394.313 184.407C395.681 190.587 396.907 196.201 397.709 200.259C398.087 202.24 398.417 203.891 398.7 205.07C398.794 205.589 398.889 206.014 398.936 206.391C398.983 206.627 398.983 206.816 398.983 206.816Z" fill="#192E35"/>
<path d="M451.488 150.398C451.488 150.398 451.488 150.492 451.535 150.633C451.535 150.822 451.582 151.058 451.582 151.341C451.629 152.002 451.724 152.945 451.771 154.172C451.959 156.625 452.148 160.163 452.337 164.55C452.761 173.325 453.28 185.402 453.799 198.753C453.894 200.923 453.941 203.046 454.035 205.027V204.98C455.828 216.727 457.385 227.152 458.517 234.653C459.083 238.38 459.508 241.352 459.791 243.475C459.932 244.466 460.026 245.268 460.121 245.834C460.168 246.07 460.168 246.306 460.215 246.447C460.215 246.589 460.215 246.636 460.215 246.683C460.215 246.683 460.168 246.636 460.168 246.494C460.121 246.353 460.121 246.117 460.074 245.881C459.979 245.315 459.838 244.513 459.649 243.522C459.319 241.447 458.847 238.427 458.234 234.748C457.054 227.247 455.45 216.868 453.611 205.121C453.516 203.093 453.469 200.97 453.375 198.847C452.337 172.429 451.582 152.851 451.488 150.398Z" fill="#192E35"/>
<g opacity="0.3">
<path d="M430.45 137.852C422.195 141.154 414.08 143.23 405.211 143.23C406.344 144.456 408.089 145.117 409.835 145.258C411.58 145.4 413.326 145.164 415.024 144.834C419.317 143.984 423.563 142.805 427.62 141.295C428.988 140.776 430.639 139.22 430.45 137.852Z" fill="black"/>
</g>
<g opacity="0.3">
<path d="M389.359 163.516C389.501 166.676 389.123 170.498 389.831 173.611C390.491 176.725 391.718 179.744 393.794 182.15C392.284 176.159 390.963 169.601 389.359 163.516Z" fill="black"/>
</g>
<g opacity="0.3">
<path d="M414.974 211.344L414.691 211.297C417.38 214.316 421.768 214.646 425.825 214.693C429.882 214.741 434.269 214.458 436.958 211.486C429.74 212.901 422.192 212.901 414.974 211.344Z" fill="black"/>
</g>
<g opacity="0.7">
<path d="M347.562 148.462C347.562 148.415 347.609 148.415 347.656 148.368C347.656 148.273 347.562 148.415 347.562 148.462Z" fill="#1F4EAD"/>
<path d="M353.505 160.065C353.505 160.019 353.458 159.927 353.505 160.065Z" fill="#1F4EAD"/>
<path d="M350.769 138.46C351.193 138.177 351.665 137.941 352.137 137.752C354.543 136.667 357.137 136.054 359.826 135.912C363.978 135.724 368.129 136.762 371.856 138.649C372.281 138.837 372.375 139.451 372.186 139.781C371.951 140.205 371.479 140.3 371.054 140.064C368.931 138.979 366.573 138.177 364.214 137.752C361.147 137.281 358.034 137.516 355.156 138.366C354.637 138.507 354.118 138.696 353.646 138.885C353.552 138.932 353.458 138.979 353.411 138.979C353.411 138.979 353.363 138.979 353.363 139.026C353.316 139.026 353.269 139.073 353.316 139.026C353.269 139.073 353.127 139.12 353.127 139.12C352.939 139.215 352.797 139.309 352.609 139.356C352.231 139.545 351.901 139.687 351.571 139.922C351.193 140.158 350.674 139.97 350.438 139.592C350.25 139.215 350.391 138.743 350.769 138.46ZM357.326 170.304C355.439 168.511 353.929 166.341 352.939 163.935V163.888C352.467 162.755 352.137 161.576 351.948 160.397C351.618 158.321 351.712 156.198 352.514 154.217C353.788 151.245 356.902 149.074 360.109 148.744C363.412 148.32 367.139 149.641 369.262 152.33C370.63 154.028 371.526 156.151 371.479 158.274C371.479 159.406 369.828 159.359 369.733 158.321C369.733 158.085 369.733 157.755 369.686 157.472C369.686 157.377 369.639 157.094 369.686 157.377C369.686 157.283 369.639 157.189 369.639 157.094C369.545 156.623 369.403 156.151 369.262 155.726C369.214 155.632 369.167 155.443 369.12 155.349C369.026 155.16 369.167 155.443 369.073 155.255C369.073 155.16 369.026 155.16 368.978 155.066C368.884 154.783 368.743 154.547 368.601 154.311C368.224 153.698 367.941 153.32 367.469 152.849C366.573 151.905 365.44 151.245 364.167 150.82C362.421 150.254 360.581 150.16 358.836 150.726C358.081 150.962 357.42 151.339 356.76 151.764C356.288 152.141 355.911 152.377 355.439 152.849C354.496 153.792 353.882 155.066 353.599 156.434C353.458 157.142 353.411 157.849 353.411 158.557C353.411 158.887 353.458 159.264 353.505 159.595C353.505 159.689 353.552 159.831 353.552 159.972V160.019C353.599 160.066 353.599 160.114 353.599 160.161C353.646 160.397 353.694 160.633 353.741 160.916C354.448 164.076 356.241 166.86 358.553 169.124C359.307 169.879 358.128 171.058 357.326 170.304ZM372.375 167.237C370.63 167.379 368.931 167.473 367.233 166.907C365.063 166.199 363.223 164.642 362.091 162.614C361.289 161.246 360.723 159.642 360.723 158.038C360.723 156.953 362.374 157 362.421 158.038C362.421 158.274 362.421 158.462 362.421 158.698V158.745C362.421 158.698 362.468 158.887 362.468 158.934C362.563 159.264 362.61 159.595 362.751 159.925C362.846 160.114 362.846 160.302 362.94 160.491C362.987 160.585 363.034 160.68 363.034 160.774C363.034 160.774 363.034 160.821 363.082 160.821C363.082 160.774 363.034 160.774 363.034 160.727C363.082 160.868 363.082 160.821 363.082 160.821C363.082 160.821 363.082 160.821 363.082 160.868C363.27 161.293 363.459 161.67 363.695 162.001C363.836 162.189 363.978 162.425 364.119 162.614C364.119 162.661 364.355 162.897 364.214 162.803C364.308 162.897 364.355 162.991 364.45 163.086C364.733 163.463 365.11 163.84 365.487 164.124C365.487 164.171 365.535 164.171 365.582 164.218C365.629 164.265 365.676 164.312 365.723 164.312C365.818 164.359 365.912 164.407 366.006 164.501C366.242 164.595 366.431 164.784 366.667 164.878C367.091 165.114 367.516 165.256 368.129 165.397C369.45 165.727 370.913 165.633 372.328 165.539C372.8 165.492 373.177 165.963 373.177 166.388C373.224 166.86 372.847 167.19 372.375 167.237ZM374.97 161.482C373.649 163.086 371.196 163.605 369.214 162.944C368.082 162.614 367.091 161.906 366.384 161.01C366.195 160.774 366.006 160.491 365.912 160.208C365.818 159.972 365.676 159.689 365.582 159.406C365.535 159.312 365.535 159.17 365.487 159.029C365.487 158.934 365.44 158.84 365.44 158.745C365.44 158.793 365.487 158.887 365.44 158.698C365.299 157.849 365.346 157.047 364.874 156.34C364.497 155.726 363.884 155.302 363.27 155.019C361.572 154.311 359.543 154.547 358.553 156.245C358.081 157.047 357.939 157.991 358.081 158.887C358.081 158.981 358.128 159.123 358.128 159.217C358.175 159.264 358.175 159.312 358.175 159.359C358.222 159.595 358.27 159.783 358.317 160.066C358.458 160.633 358.6 161.199 358.789 161.718C358.836 161.859 358.883 162.001 358.93 162.142C358.93 162.189 358.977 162.236 359.024 162.331V162.378C359.024 162.378 359.024 162.378 359.024 162.425C359.166 162.708 359.307 163.038 359.496 163.322C360.251 164.642 361.1 165.68 362.28 166.624C363.695 167.803 365.535 168.7 367.327 169.313C368.365 169.643 367.941 171.294 366.903 170.917C365.912 170.587 364.921 170.209 363.978 169.69C361.053 168.228 358.694 165.822 357.42 162.803C356.288 160.208 355.675 156.811 357.609 154.547C360.157 151.528 365.959 152.849 366.856 156.953C366.903 157.283 366.997 157.566 366.997 157.896C367.044 158.085 366.95 158.321 367.044 158.51C366.903 158.179 366.997 158.462 367.044 158.604C367.044 158.698 367.091 158.84 367.139 158.981C367.233 159.217 367.233 159.264 367.327 159.406C367.705 160.114 368.224 160.633 368.931 161.01C369.875 161.482 370.96 161.576 371.903 161.293C372.328 161.199 372.8 161.01 373.13 160.727C373.224 160.68 373.319 160.585 373.413 160.491C373.507 160.397 373.507 160.397 373.602 160.302C373.602 160.302 373.649 160.255 373.696 160.208C374.121 159.642 374.262 159.217 374.357 158.462V158.415C374.357 158.368 374.357 158.368 374.357 158.321C374.357 158.227 374.357 158.132 374.357 158.085C374.357 157.896 374.357 157.755 374.357 157.613C374.357 157.283 374.357 157 374.309 156.67C374.309 156.623 374.262 156.292 374.309 156.528C374.309 156.434 374.262 156.387 374.262 156.292C374.215 156.151 374.215 156.009 374.168 155.868C374.121 155.632 374.073 155.443 374.026 155.207C373.932 154.924 373.885 154.688 373.743 154.405C373.696 154.358 373.649 154.264 373.743 154.405C373.649 154.122 373.46 153.886 373.366 153.603C373.13 153.132 372.847 152.613 372.611 152.188C372.139 151.386 371.573 150.584 370.913 149.924C369.686 148.603 368.129 147.659 366.478 146.999C364.355 146.15 362.091 145.819 359.874 146.008C357.798 146.15 355.816 146.904 354.118 147.989C353.411 148.414 352.844 148.886 352.278 149.452C351.759 149.924 351.335 150.443 351.005 150.962C350.203 152.094 349.778 153.179 349.448 154.5C349.353 154.783 349.306 155.113 349.259 155.443C349.212 155.585 349.212 155.726 349.212 155.868C349.212 155.868 349.212 155.915 349.212 155.962C349.212 155.962 349.212 155.962 349.212 155.915C349.212 156.009 349.212 156.009 349.212 155.962C349.212 156.009 349.212 156.104 349.212 156.151C349.165 156.764 349.118 157.377 349.118 157.944C349.118 158.557 349.118 159.076 349.212 159.642C349.212 159.783 349.259 159.925 349.259 160.066C349.306 160.161 349.306 160.161 349.306 160.255C349.353 160.491 349.401 160.727 349.448 160.963C349.636 162.048 349.872 163.086 350.344 164.076C350.533 164.501 350.203 165.02 349.967 165.067C349.495 165.209 349.118 164.926 348.929 164.454C348.929 164.359 348.882 164.312 348.834 164.218C348.268 162.755 347.985 161.199 347.797 159.642C347.466 157.047 347.749 154.405 348.693 152.094C349.92 149.027 352.467 146.716 355.392 145.395C359.685 143.461 364.733 143.791 368.978 146.055C370.63 146.904 372.045 148.178 373.177 149.593C374.215 150.867 375.111 152.33 375.677 153.934C376.338 156.575 376.574 159.5 374.97 161.482ZM376.762 149.499C376.385 149.735 375.866 149.546 375.63 149.169C373.555 146.385 370.677 144.074 367.469 142.942C366.384 142.564 365.299 142.281 364.167 142.092C364.119 142.045 364.072 142.045 363.978 142.045C363.742 141.998 364.167 142.092 363.931 142.045C363.836 142.045 363.695 141.998 363.6 141.998C363.412 141.951 363.176 141.904 362.987 141.904C362.657 141.904 362.28 141.857 361.949 141.857C361.289 141.809 360.581 141.809 359.874 141.809C358.27 141.904 356.76 142.234 355.298 142.706C354.071 143.13 352.844 143.744 351.712 144.498C350.769 145.112 350.061 145.678 349.212 146.48C348.693 147.046 348.127 147.612 347.655 148.178C347.655 148.225 347.608 148.225 347.608 148.272C347.608 148.272 347.561 148.32 347.514 148.367C347.466 148.461 347.466 148.508 347.372 148.603C347.278 148.697 347.278 148.697 347.23 148.791C346.664 149.688 345.202 148.839 345.815 147.942C346.57 146.716 347.608 145.678 348.646 144.734C350.769 142.894 353.222 141.479 355.911 140.772C357.987 140.205 360.251 140.064 362.421 140.205C364.685 140.347 366.95 140.866 369.073 141.857C372.234 143.272 374.875 145.536 376.951 148.367C377.281 148.744 377.093 149.263 376.762 149.499Z" fill="#1F4EAD"/>
</g>
</g>
<defs>
<linearGradient id="paint0_linear_5163_11454" x1="423" y1="-92.5" x2="-36.5" y2="621.5" gradientUnits="userSpaceOnUse">
<stop offset="0.143683" stop-color="#25AFE1"/>
<stop offset="0.6976" stop-color="#1F4EAD"/>
</linearGradient>
<linearGradient id="paint1_linear_5163_11454" x1="366.49" y1="-2.93601" x2="265.584" y2="194.672" gradientUnits="userSpaceOnUse">
<stop stop-color="#262626"/>
<stop offset="0.9964" stop-color="#060606"/>
</linearGradient>
<linearGradient id="paint2_linear_5163_11454" x1="22" y1="182" x2="130" y2="182" gradientUnits="userSpaceOnUse">
<stop offset="0.186864" stop-color="#1F4EAD"/>
<stop offset="1" stop-color="#25AFE1"/>
</linearGradient>
<clipPath id="clip0_5163_11454">
<rect width="546" height="401" fill="white"/>
</clipPath>
</defs>
</svg>
