<svg width="129" height="107" viewBox="0 0 129 107" fill="none" xmlns="http://www.w3.org/2000/svg">
<path fill-rule="evenodd" clip-rule="evenodd" d="M1.77626 77.5087C0.63072 79.4848 -0.00426882 81.7756 2.16008e-05 84.1593C2.16008e-05 88.8293 2.4413 93.1405 6.3842 95.4312C18.1528 102.268 35.6106 112.41 47.8727 119.534C58.1225 125.485 70.6332 125.485 80.8831 119.534C93.1451 112.41 110.599 102.272 122.367 95.4356C126.31 93.1449 128.751 88.8338 128.751 84.1593C128.751 81.7756 128.116 79.4893 126.971 77.5132C125.872 79.4096 124.298 81.018 122.367 82.1434C110.599 88.98 93.1451 99.1176 80.8831 106.242C70.6332 112.193 58.1225 112.193 47.8727 106.242C35.6106 99.1176 18.1528 88.9756 6.3842 82.1389C4.44922 81.0135 2.8789 79.4095 1.77626 77.5087ZM1.77626 55.355C0.63072 57.3311 -0.00426882 59.6218 2.16008e-05 62.0056C2.16008e-05 66.6756 2.4413 70.9867 6.3842 73.2774C18.1528 80.1141 35.6106 90.2561 47.8727 97.3807C58.1225 103.331 70.6332 103.331 80.8831 97.3807C93.1451 90.2561 110.599 80.1185 122.367 73.2819C126.31 70.9912 128.751 66.68 128.751 62.0056C128.751 59.6218 128.116 57.3356 126.971 55.3594C125.872 57.2558 124.298 58.8642 122.367 59.9896C110.599 66.8263 93.1451 76.9638 80.8831 84.0885C70.6332 90.039 58.1225 90.039 47.8727 84.0885C35.6106 76.9638 18.1528 66.8218 6.3842 59.9852C4.44922 58.8598 2.8789 57.2558 1.77626 55.355ZM80.8531 4.4634C70.6033 -1.49153 58.0838 -1.48704 47.8382 4.47232C35.5805 11.597 18.1399 21.7388 6.37988 28.5755C2.43698 30.8662 -0.00426882 35.1774 2.16008e-05 39.8518C2.16008e-05 44.5218 2.4413 48.833 6.3842 51.1237C18.1528 57.9603 35.6106 68.1023 47.8727 75.227C58.1225 81.1775 70.6332 81.1775 80.8831 75.227C93.1451 68.1023 110.599 57.9648 122.367 51.1281C126.31 48.8374 128.751 44.5262 128.751 39.8518C128.751 35.1774 126.31 30.8662 122.367 28.5755L80.8531 4.4634Z" fill="url(#paint0_linear_6429_9297)"/>
<defs>
<linearGradient id="paint0_linear_6429_9297" x1="61.258" y1="-209.024" x2="53.6869" y2="262.271" gradientUnits="userSpaceOnUse">
<stop offset="0.367021" stop-color="white"/>
<stop offset="0.653734" stop-color="#25AFE1"/>
</linearGradient>
</defs>
</svg>
