<svg width="703" height="242" viewBox="0 0 703 242" fill="none" xmlns="http://www.w3.org/2000/svg">
<path d="M144.532 82.2158C159.167 67.7724 177.766 60.5508 200.328 60.5508C222.89 60.5508 241.387 67.7724 255.819 82.2158C270.454 96.6591 277.771 114.866 277.771 136.836C277.771 158.806 270.454 177.013 255.819 191.456C241.387 205.899 222.89 213.121 200.328 213.121C177.766 213.121 159.167 205.899 144.532 191.456C130.101 177.013 122.885 158.806 122.885 136.836C122.885 114.866 130.101 96.6591 144.532 82.2158ZM170.448 170.096C178.579 178.844 188.539 183.217 200.328 183.217C212.117 183.217 221.975 178.844 229.903 170.096C238.033 161.145 242.098 150.059 242.098 136.836C242.098 123.613 238.033 112.628 229.903 103.881C221.975 94.93 212.117 90.4546 200.328 90.4546C188.539 90.4546 178.579 94.93 170.448 103.881C162.521 112.628 158.557 123.613 158.557 136.836C158.557 150.059 162.521 161.145 170.448 170.096Z" fill="white"/>
<path d="M34.1927 102.05C34.1927 106.322 36.5302 110.187 41.2053 113.645C45.8803 116.9 51.47 119.85 57.9745 122.495C64.4789 125.139 70.9833 128.089 77.4877 131.344C84.1954 134.598 89.8867 139.379 94.5618 145.685C99.2368 151.991 101.574 159.417 101.574 167.961C101.574 182.607 95.9846 193.796 84.8052 201.526C73.829 209.256 60.6169 213.121 45.1689 213.121C29.1111 213.121 14.2729 210.172 0.654297 204.272L3.70324 174.674L6.75219 171.622C18.1349 181.387 30.7372 186.269 44.5591 186.269C60.4136 186.269 68.3409 181.183 68.3409 171.012C68.3409 166.943 66.0033 163.383 61.3283 160.332C56.6532 157.077 50.9619 154.127 44.2542 151.483C37.7498 148.838 31.1437 145.787 24.4361 142.329C17.9316 138.667 12.3419 133.581 7.66687 127.072C2.99182 120.359 0.654297 112.425 0.654297 103.271C0.654297 89.4377 6.1424 78.8595 17.1186 71.5361C28.0948 64.2127 39.9857 60.551 52.7913 60.551C66.6131 60.551 80.3334 63.5007 93.952 69.4001V100.524L90.9031 103.576C79.7236 92.7942 67.7311 87.4034 54.9255 87.4034C49.0309 87.4034 44.0509 88.624 39.9857 91.0651C36.1237 93.5062 34.1927 97.1679 34.1927 102.05Z" fill="white"/>
<path d="M352.641 182.448L386.322 64.4714H423.21L373.625 209.2H351.171L352.641 182.448ZM328.049 64.4714L362.131 182.716L363.333 209.2H340.746L291.027 64.4714H328.049Z" fill="white"/>
<path fill-rule="evenodd" clip-rule="evenodd" d="M450.683 207.492H488.756V90.6417C488.756 71.3231 477.082 59.8765 459.567 59.8765H450.683V207.492Z" fill="white"/>
<path fill-rule="evenodd" clip-rule="evenodd" d="M469.369 0.879883C475.322 0.879895 481.03 3.24639 485.239 7.45876C489.448 11.6711 491.813 17.3844 491.813 23.3416C491.813 27.7841 490.497 32.1268 488.031 35.8206C485.564 39.5144 482.059 42.3934 477.958 44.0935C473.857 45.7936 469.345 46.2384 464.991 45.3717C460.637 44.505 456.638 42.3658 453.499 39.2244C450.361 36.0831 448.223 32.0808 447.357 27.7236C446.491 23.3665 446.936 18.8502 448.634 14.7459C450.333 10.6415 453.21 7.13347 456.9 4.66535C460.591 2.19722 464.931 0.879874 469.369 0.879883Z" fill="#FFD302"/>
<path d="M540.953 81.7269C555.509 67.345 574.013 60.1541 596.464 60.1541C618.915 60.1541 637.324 67.345 651.691 81.7269C666.26 96.1088 673.549 114.238 673.559 136.115C673.569 157.992 666.295 176.121 651.739 190.503C637.385 204.885 618.982 212.076 596.531 212.076C574.08 212.076 555.57 204.885 541.001 190.503C526.634 176.121 519.446 157.992 519.436 136.115C519.426 114.238 526.599 96.1088 540.953 81.7269ZM566.78 169.234C574.874 177.944 584.787 182.299 596.518 182.299C608.249 182.299 618.057 177.944 625.941 169.234C634.028 160.321 638.068 149.281 638.062 136.115C638.056 122.948 634.006 112.01 625.912 103.3C618.02 94.387 608.208 89.9307 596.477 89.9307C584.746 89.9307 574.837 94.387 566.751 103.3C558.866 112.01 554.927 122.948 554.933 136.115C554.939 149.281 558.888 160.321 566.78 169.234Z" fill="white"/>
</svg>
