<svg xmlns="http://www.w3.org/2000/svg" width="342" height="365" fill="none" viewBox="0 0 342 365">
  <path stroke="#1F4EAD" stroke-width="7" d="M171.662 307.976c64.288 0 116.404-52.105 116.404-116.379S235.95 75.219 171.662 75.219 55.258 127.323 55.258 191.597s52.116 116.379 116.404 116.379Z"/>
  <path fill="#1F4EAD" d="M143.907 162.91c-.566-1.302-1.372-2.314-2.4-3.016-1.029-.703-2.263-1.063-3.652-1.063-1.406 0-2.623.36-3.668 1.063-1.046.702-1.852 1.714-2.4 3.016-.566 1.303-.858 2.846-.858 4.645v.035c0 1.782.275 3.325.858 4.645.565 1.32 1.371 2.314 2.4 3.034 1.028.72 2.262 1.08 3.685 1.08s2.657-.36 3.686-1.08c1.029-.72 1.817-1.731 2.383-3.051.566-1.303.84-2.863.84-4.628v-.035c-.034-1.799-.309-3.342-.874-4.645Zm10.337 37.11c-.737-1.731-1.8-3.051-3.154-3.976-1.355-.926-2.966-1.406-4.818-1.406-1.851 0-3.462.463-4.817 1.406-1.371.925-2.434 2.245-3.171 3.959-.737 1.714-1.115 3.754-1.115 6.119v.052c0 2.348.378 4.388 1.115 6.102.737 1.731 1.8 3.051 3.154 3.994 1.372.943 2.983 1.405 4.834 1.405 1.886 0 3.498-.48 4.852-1.422 1.354-.943 2.4-2.28 3.137-4.011.737-1.714 1.097-3.754 1.097-6.085v-.052c0-2.331-.36-4.371-1.114-6.085Zm0 0c-.737-1.731-1.8-3.051-3.154-3.976-1.355-.926-2.966-1.406-4.818-1.406-1.851 0-3.462.463-4.817 1.406-1.371.925-2.434 2.245-3.171 3.959-.737 1.714-1.115 3.754-1.115 6.119v.052c0 2.348.378 4.388 1.115 6.102.737 1.731 1.8 3.051 3.154 3.994 1.372.943 2.983 1.405 4.834 1.405 1.886 0 3.498-.48 4.852-1.422 1.354-.943 2.4-2.28 3.137-4.011.737-1.714 1.097-3.754 1.097-6.085v-.052c0-2.331-.36-4.371-1.114-6.085Zm-10.337-37.11c-.566-1.302-1.372-2.314-2.4-3.016-1.029-.703-2.263-1.063-3.652-1.063-1.406 0-2.623.36-3.668 1.063-1.046.702-1.852 1.714-2.4 3.016-.566 1.303-.858 2.846-.858 4.645v.035c0 1.782.275 3.325.858 4.645.565 1.32 1.371 2.314 2.4 3.034 1.028.72 2.262 1.08 3.685 1.08s2.657-.36 3.686-1.08c1.029-.72 1.817-1.731 2.383-3.051.566-1.303.84-2.863.84-4.628v-.035c-.034-1.799-.309-3.342-.874-4.645Zm0 0c-.566-1.302-1.372-2.314-2.4-3.016-1.029-.703-2.263-1.063-3.652-1.063-1.406 0-2.623.36-3.668 1.063-1.046.702-1.852 1.714-2.4 3.016-.566 1.303-.858 2.846-.858 4.645v.035c0 1.782.275 3.325.858 4.645.565 1.32 1.371 2.314 2.4 3.034 1.028.72 2.262 1.08 3.685 1.08s2.657-.36 3.686-1.08c1.029-.72 1.817-1.731 2.383-3.051.566-1.303.84-2.863.84-4.628v-.035c-.034-1.799-.309-3.342-.874-4.645Zm10.337 37.11c-.737-1.731-1.8-3.051-3.154-3.976-1.355-.926-2.966-1.406-4.818-1.406-1.851 0-3.462.463-4.817 1.406-1.371.925-2.434 2.245-3.171 3.959-.737 1.714-1.115 3.754-1.115 6.119v.052c0 2.348.378 4.388 1.115 6.102.737 1.731 1.8 3.051 3.154 3.994 1.372.943 2.983 1.405 4.834 1.405 1.886 0 3.498-.48 4.852-1.422 1.354-.943 2.4-2.28 3.137-4.011.737-1.714 1.097-3.754 1.097-6.085v-.052c0-2.331-.36-4.371-1.114-6.085Zm36.207 0c-.738-1.731-1.8-3.051-3.155-3.976-1.354-.926-2.966-1.406-4.817-1.406s-3.463.463-4.835 1.406c-1.371.925-2.434 2.245-3.171 3.959-.737 1.714-1.114 3.754-1.114 6.119v.052c0 2.348.377 4.388 1.114 6.102.737 1.731 1.8 3.051 3.154 3.994 1.372.943 2.983 1.405 4.835 1.405 1.886 0 3.497-.48 4.851-1.422 1.355-.943 2.4-2.28 3.138-4.011.737-1.714 1.097-3.754 1.097-6.085v-.052c.017-2.331-.36-4.371-1.097-6.085Zm0 0c-.738-1.731-1.8-3.051-3.155-3.976-1.354-.926-2.966-1.406-4.817-1.406s-3.463.463-4.835 1.406c-1.371.925-2.434 2.245-3.171 3.959-.737 1.714-1.114 3.754-1.114 6.119v.052c0 2.348.377 4.388 1.114 6.102.737 1.731 1.8 3.051 3.154 3.994 1.372.943 2.983 1.405 4.835 1.405 1.886 0 3.497-.48 4.851-1.422 1.355-.943 2.4-2.28 3.138-4.011.737-1.714 1.097-3.754 1.097-6.085v-.052c.017-2.331-.36-4.371-1.097-6.085Zm-36.207 0c-.737-1.731-1.8-3.051-3.154-3.976-1.355-.926-2.966-1.406-4.818-1.406-1.851 0-3.462.463-4.817 1.406-1.371.925-2.434 2.245-3.171 3.959-.737 1.714-1.115 3.754-1.115 6.119v.052c0 2.348.378 4.388 1.115 6.102.737 1.731 1.8 3.051 3.154 3.994 1.372.943 2.983 1.405 4.834 1.405 1.886 0 3.498-.48 4.852-1.422 1.354-.943 2.4-2.28 3.137-4.011.737-1.714 1.097-3.754 1.097-6.085v-.052c0-2.331-.36-4.371-1.114-6.085Zm-10.337-37.11c-.566-1.302-1.372-2.314-2.4-3.016-1.029-.703-2.263-1.063-3.652-1.063-1.406 0-2.623.36-3.668 1.063-1.046.702-1.852 1.714-2.4 3.016-.566 1.303-.858 2.846-.858 4.645v.035c0 1.782.275 3.325.858 4.645.565 1.32 1.371 2.314 2.4 3.034 1.028.72 2.262 1.08 3.685 1.08s2.657-.36 3.686-1.08c1.029-.72 1.817-1.731 2.383-3.051.566-1.303.84-2.863.84-4.628v-.035c-.034-1.799-.309-3.342-.874-4.645Zm0 0c-.566-1.302-1.372-2.314-2.4-3.016-1.029-.703-2.263-1.063-3.652-1.063-1.406 0-2.623.36-3.668 1.063-1.046.702-1.852 1.714-2.4 3.016-.566 1.303-.858 2.846-.858 4.645v.035c0 1.782.275 3.325.858 4.645.565 1.32 1.371 2.314 2.4 3.034 1.028.72 2.262 1.08 3.685 1.08s2.657-.36 3.686-1.08c1.029-.72 1.817-1.731 2.383-3.051.566-1.303.84-2.863.84-4.628v-.035c-.034-1.799-.309-3.342-.874-4.645Zm10.337 37.11c-.737-1.731-1.8-3.051-3.154-3.976-1.355-.926-2.966-1.406-4.818-1.406-1.851 0-3.462.463-4.817 1.406-1.371.925-2.434 2.245-3.171 3.959-.737 1.714-1.115 3.754-1.115 6.119v.052c0 2.348.378 4.388 1.115 6.102.737 1.731 1.8 3.051 3.154 3.994 1.372.943 2.983 1.405 4.834 1.405 1.886 0 3.498-.48 4.852-1.422 1.354-.943 2.4-2.28 3.137-4.011.737-1.714 1.097-3.754 1.097-6.085v-.052c0-2.331-.36-4.371-1.114-6.085Zm36.207 0c-.738-1.731-1.8-3.051-3.155-3.976-1.354-.926-2.966-1.406-4.817-1.406s-3.463.463-4.835 1.406c-1.371.925-2.434 2.245-3.171 3.959-.737 1.714-1.114 3.754-1.114 6.119v.052c0 2.348.377 4.388 1.114 6.102.737 1.731 1.8 3.051 3.154 3.994 1.372.943 2.983 1.405 4.835 1.405 1.886 0 3.497-.48 4.851-1.422 1.355-.943 2.4-2.28 3.138-4.011.737-1.714 1.097-3.754 1.097-6.085v-.052c.017-2.331-.36-4.371-1.097-6.085Zm0 0c-.738-1.731-1.8-3.051-3.155-3.976-1.354-.926-2.966-1.406-4.817-1.406s-3.463.463-4.835 1.406c-1.371.925-2.434 2.245-3.171 3.959-.737 1.714-1.114 3.754-1.114 6.119v.052c0 2.348.377 4.388 1.114 6.102.737 1.731 1.8 3.051 3.154 3.994 1.372.943 2.983 1.405 4.835 1.405 1.886 0 3.497-.48 4.851-1.422 1.355-.943 2.4-2.28 3.138-4.011.737-1.714 1.097-3.754 1.097-6.085v-.052c.017-2.331-.36-4.371-1.097-6.085Zm-36.207 0c-.737-1.731-1.8-3.051-3.154-3.976-1.355-.926-2.966-1.406-4.818-1.406-1.851 0-3.462.463-4.817 1.406-1.371.925-2.434 2.245-3.171 3.959-.737 1.714-1.115 3.754-1.115 6.119v.052c0 2.348.378 4.388 1.115 6.102.737 1.731 1.8 3.051 3.154 3.994 1.372.943 2.983 1.405 4.834 1.405 1.886 0 3.498-.48 4.852-1.422 1.354-.943 2.4-2.28 3.137-4.011.737-1.714 1.097-3.754 1.097-6.085v-.052c0-2.331-.36-4.371-1.114-6.085Zm-10.337-37.11c-.566-1.302-1.372-2.314-2.4-3.016-1.029-.703-2.263-1.063-3.652-1.063-1.406 0-2.623.36-3.668 1.063-1.046.702-1.852 1.714-2.4 3.016-.566 1.303-.858 2.846-.858 4.645v.035c0 1.782.275 3.325.858 4.645.565 1.32 1.371 2.314 2.4 3.034 1.028.72 2.262 1.08 3.685 1.08s2.657-.36 3.686-1.08c1.029-.72 1.817-1.731 2.383-3.051.566-1.303.84-2.863.84-4.628v-.035c-.034-1.799-.309-3.342-.874-4.645Zm0 0c-.566-1.302-1.372-2.314-2.4-3.016-1.029-.703-2.263-1.063-3.652-1.063-1.406 0-2.623.36-3.668 1.063-1.046.702-1.852 1.714-2.4 3.016-.566 1.303-.858 2.846-.858 4.645v.035c0 1.782.275 3.325.858 4.645.565 1.32 1.371 2.314 2.4 3.034 1.028.72 2.262 1.08 3.685 1.08s2.657-.36 3.686-1.08c1.029-.72 1.817-1.731 2.383-3.051.566-1.303.84-2.863.84-4.628v-.035c-.034-1.799-.309-3.342-.874-4.645Zm10.337 37.11c-.737-1.731-1.8-3.051-3.154-3.976-1.355-.926-2.966-1.406-4.818-1.406-1.851 0-3.462.463-4.817 1.406-1.371.925-2.434 2.245-3.171 3.959-.737 1.714-1.115 3.754-1.115 6.119v.052c0 2.348.378 4.388 1.115 6.102.737 1.731 1.8 3.051 3.154 3.994 1.372.943 2.983 1.405 4.834 1.405 1.886 0 3.498-.48 4.852-1.422 1.354-.943 2.4-2.28 3.137-4.011.737-1.714 1.097-3.754 1.097-6.085v-.052c0-2.331-.36-4.371-1.114-6.085Zm36.207 0c-.738-1.731-1.8-3.051-3.155-3.976-1.354-.926-2.966-1.406-4.817-1.406s-3.463.463-4.835 1.406c-1.371.925-2.434 2.245-3.171 3.959-.737 1.714-1.114 3.754-1.114 6.119v.052c0 2.348.377 4.388 1.114 6.102.737 1.731 1.8 3.051 3.154 3.994 1.372.943 2.983 1.405 4.835 1.405 1.886 0 3.497-.48 4.851-1.422 1.355-.943 2.4-2.28 3.138-4.011.737-1.714 1.097-3.754 1.097-6.085v-.052c.017-2.331-.36-4.371-1.097-6.085Zm0 0c-.738-1.731-1.8-3.051-3.155-3.976-1.354-.926-2.966-1.406-4.817-1.406s-3.463.463-4.835 1.406c-1.371.925-2.434 2.245-3.171 3.959-.737 1.714-1.114 3.754-1.114 6.119v.052c0 2.348.377 4.388 1.114 6.102.737 1.731 1.8 3.051 3.154 3.994 1.372.943 2.983 1.405 4.835 1.405 1.886 0 3.497-.48 4.851-1.422 1.355-.943 2.4-2.28 3.138-4.011.737-1.714 1.097-3.754 1.097-6.085v-.052c.017-2.331-.36-4.371-1.097-6.085Zm-36.207 0c-.737-1.731-1.8-3.051-3.154-3.976-1.355-.926-2.966-1.406-4.818-1.406-1.851 0-3.462.463-4.817 1.406-1.371.925-2.434 2.245-3.171 3.959-.737 1.714-1.115 3.754-1.115 6.119v.052c0 2.348.378 4.388 1.115 6.102.737 1.731 1.8 3.051 3.154 3.994 1.372.943 2.983 1.405 4.834 1.405 1.886 0 3.498-.48 4.852-1.422 1.354-.943 2.4-2.28 3.137-4.011.737-1.714 1.097-3.754 1.097-6.085v-.052c0-2.331-.36-4.371-1.114-6.085Zm-10.337-37.11c-.566-1.302-1.372-2.314-2.4-3.016-1.029-.703-2.263-1.063-3.652-1.063-1.406 0-2.623.36-3.668 1.063-1.046.702-1.852 1.714-2.4 3.016-.566 1.303-.858 2.846-.858 4.645v.035c0 1.782.275 3.325.858 4.645.565 1.32 1.371 2.314 2.4 3.034 1.028.72 2.262 1.08 3.685 1.08s2.657-.36 3.686-1.08c1.029-.72 1.817-1.731 2.383-3.051.566-1.303.84-2.863.84-4.628v-.035c-.034-1.799-.309-3.342-.874-4.645Zm-9.738 12.359c1.029.72 2.263 1.08 3.686 1.08s2.657-.36 3.686-1.08c1.029-.72 1.817-1.731 2.383-3.051.566-1.303.84-2.863.84-4.628v-.035c0-1.782-.292-3.325-.857-4.645-.566-1.302-1.372-2.314-2.4-3.016-1.029-.703-2.263-1.063-3.652-1.063-1.406 0-2.623.36-3.668 1.063-1.046.702-1.852 1.714-2.4 3.016-.566 1.303-.858 2.846-.858 4.645v.035c0 1.782.275 3.325.858 4.645.531 1.303 1.337 2.314 2.382 3.034Zm16.921 20.758c-1.355-.926-2.966-1.406-4.818-1.406-1.851 0-3.462.463-4.817 1.406-1.371.925-2.434 2.245-3.171 3.959-.737 1.714-1.115 3.754-1.115 6.119v.052c0 2.348.378 4.388 1.115 6.102.737 1.731 1.8 3.051 3.154 3.994 1.372.942 2.983 1.405 4.834 1.405 1.886 0 3.498-.48 4.852-1.422 1.354-.943 2.4-2.28 3.137-4.011.737-1.714 1.097-3.754 1.097-6.085v-.052c0-2.348-.36-4.388-1.114-6.102-.737-1.697-1.8-3.017-3.154-3.959Zm36.206 0c-1.354-.926-2.966-1.406-4.817-1.406s-3.463.463-4.835 1.406c-1.371.925-2.434 2.245-3.171 3.959-.737 1.714-1.114 3.754-1.114 6.119v.052c0 2.348.377 4.388 1.114 6.102.737 1.731 1.8 3.051 3.154 3.994 1.372.942 2.983 1.405 4.835 1.405 1.886 0 3.497-.48 4.851-1.422 1.355-.943 2.4-2.28 3.138-4.011.737-1.714 1.097-3.754 1.097-6.085v-.052c0-2.348-.378-4.388-1.115-6.102-.72-1.697-1.782-3.017-3.137-3.959Zm56.796-26.38c0 2.348-.446 4.354-1.356 6.033-.907 1.68-2.21 2.966-3.923 3.874-1.698.909-3.756 1.354-6.157 1.354-2.552 0-4.765-.531-6.616-1.611-1.851-1.063-3.291-2.605-4.286-4.611-1.011-2.005-1.508-4.405-1.508-7.199v-.017c0-2.76.497-5.142 1.508-7.114 1.011-1.971 2.418-3.479 4.269-4.542 1.85-1.063 4.028-1.594 6.531-1.594 2.075 0 3.908.377 5.486 1.114 1.578.737 2.881 1.749 3.875 3 .994 1.268 1.629 2.708 1.92 4.336l.051.275h-5.435l-.051-.206c-.429-1.234-1.148-2.211-2.142-2.897-.994-.703-2.23-1.045-3.686-1.045-1.423 0-2.641.342-3.651 1.011-1.012.686-1.802 1.663-2.333 2.948-.548 1.286-.823 2.846-.823 4.662v.018c0 1.851.293 3.428.857 4.765.566 1.32 1.389 2.348 2.434 3.051 1.048.702 2.282 1.063 3.722 1.063 1.165 0 2.193-.223 3.085-.652.892-.445 1.594-1.045 2.126-1.851.531-.788.806-1.714.839-2.777l.018-.36h-5.879v-4.028h11.141v3h-.016Zm-1.218 43.4h-4.525l-1.063-23.945h6.633l-1.045 23.945Zm-2.246 10.147a3.174 3.174 0 0 1-3.171-3.17 3.174 3.174 0 0 1 3.171-3.171 3.174 3.174 0 0 1 3.171 3.171 3.174 3.174 0 0 1-3.171 3.17Zm-8.502-.085h-6.155l-15.36-22.18h-.154v22.18h-7.063v-33.904h6.206l15.308 22.043h.156v-22.043h7.062v33.904Zm-31.818-59.513v16.867h-5.383v-25.78h4.714l11.641 16.746h.12v-16.746h5.383v25.78h-4.698l-11.674-16.867h-.103Zm-1.474 42.578c0 3.599-.669 6.702-2.006 9.325-1.337 2.622-3.223 4.628-5.64 6.067-2.435 1.424-5.349 2.142-8.709 2.142-3.343 0-6.257-.703-8.709-2.125-2.451-1.405-4.337-3.428-5.674-6.067-1.337-2.623-1.989-5.743-1.989-9.342v-.052c0-3.599.669-6.702 2.006-9.324 1.337-2.623 3.24-4.628 5.674-6.051 2.452-1.405 5.349-2.125 8.692-2.125 3.36 0 6.257.72 8.691 2.142 2.435 1.423 4.338 3.446 5.658 6.051 1.337 2.605 2.006 5.708 2.006 9.307v.052Zm-40.133-43.127h-.154v17.416h-4.8v-25.78h6.223l7.32 18.529h.103l7.32-18.529h6.257v25.78h-4.834v-17.416h-.137l-6.96 17.416h-3.395l-6.943-17.416Zm3.926 43.127c0 3.599-.669 6.702-2.006 9.325-1.337 2.622-3.223 4.628-5.657 6.067-2.434 1.424-5.349 2.142-8.709 2.142-3.343 0-6.257-.703-8.708-2.125-2.452-1.405-4.338-3.428-5.675-6.067-1.337-2.623-1.989-5.743-1.989-9.342v-.052c0-3.599.669-6.702 2.006-9.324 1.337-2.623 3.24-4.628 5.692-6.051 2.451-1.405 5.349-2.125 8.674-2.125 3.36 0 6.258.72 8.692 2.142 2.434 1.423 4.337 3.446 5.657 6.051 1.337 2.605 2.006 5.708 2.006 9.307v.052h.017Zm-35.726-31.488c-1.012-1.988-1.526-4.354-1.526-7.096v-.035c0-2.742.514-5.09 1.526-7.096 1.011-1.988 2.451-3.514 4.32-4.594 1.868-1.079 4.063-1.628 6.6-1.628 2.554 0 4.749.549 6.6 1.628 1.851 1.08 3.292 2.623 4.303 4.594 1.011 1.989 1.509 4.337 1.509 7.079v.035c0 2.742-.498 5.108-1.509 7.096-1.011 1.988-2.452 3.514-4.303 4.611-1.851 1.08-4.063 1.628-6.617 1.628-2.555 0-4.749-.531-6.618-1.611-1.834-1.08-3.257-2.623-4.285-4.611Zm-.258 38.361c0 2.177-.548 4.063-1.628 5.64-1.08 1.594-2.657 2.828-4.697 3.686-2.04.874-4.492 1.302-7.338 1.302-2.674 0-5.023-.395-7.011-1.182-2.006-.789-3.583-1.938-4.732-3.412-1.148-1.474-1.783-3.257-1.92-5.348l-.017-.377h6.703l.051.257a4.155 4.155 0 0 0 1.183 2.262c.635.635 1.458 1.132 2.486 1.475 1.029.36 2.177.531 3.446.531 1.32 0 2.451-.171 3.394-.531.96-.343 1.68-.857 2.195-1.509.514-.651.771-1.405.771-2.262v-.018c0-1.148-.446-2.039-1.354-2.691-.909-.651-2.4-1.182-4.509-1.611l-3.566-.72c-3.343-.651-5.863-1.782-7.56-3.394-1.697-1.611-2.554-3.685-2.554-6.239v-.017c.017-2.074.583-3.874 1.697-5.399 1.114-1.543 2.64-2.726 4.577-3.6 1.937-.857 4.166-1.303 6.669-1.303 2.623 0 4.869.412 6.771 1.235 1.903.822 3.395 1.971 4.458 3.445 1.063 1.474 1.645 3.222 1.765 5.211l.018.428h-6.686l-.052-.291a4.123 4.123 0 0 0-.994-2.28c-.549-.634-1.286-1.114-2.177-1.457-.892-.343-1.92-.514-3.103-.514-1.2 0-2.246.171-3.12.514-.875.343-1.543.823-2.006 1.44-.463.617-.686 1.32-.686 2.125v.017c0 1.08.446 1.937 1.355 2.589.908.651 2.331 1.165 4.268 1.56l3.6.737c3.566.702 6.155 1.816 7.818 3.342 1.645 1.526 2.468 3.617 2.468 6.291v.068h.017Zm-27.309-45.509c0-2.776.497-5.142 1.509-7.13.994-1.988 2.417-3.497 4.269-4.577 1.834-1.063 4.011-1.594 6.531-1.594 2.092 0 3.943.411 5.572 1.217 1.628.806 2.948 1.92 3.926 3.343.994 1.422 1.577 3.034 1.731 4.85l.017.172h-5.263l-.069-.309c-.205-.96-.565-1.782-1.079-2.485-.515-.703-1.2-1.251-2.006-1.646-.806-.394-1.749-.582-2.829-.582-1.388 0-2.588.359-3.6 1.062-1.011.703-1.8 1.714-2.349 3-.548 1.303-.822 2.845-.822 4.645v.017c0 1.817.274 3.377.822 4.697.549 1.32 1.338 2.331 2.366 3.034 1.012.702 2.212 1.063 3.583 1.063 1.029 0 1.955-.189 2.777-.566a5.306 5.306 0 0 0 2.04-1.663c.549-.72.926-1.594 1.166-2.622l.034-.172h5.263l-.017.206c-.171 1.817-.754 3.445-1.748 4.851-.995 1.422-2.315 2.519-3.943 3.325-1.629.806-3.48 1.2-5.572 1.2-2.52 0-4.697-.531-6.531-1.611-1.852-1.063-3.258-2.606-4.269-4.594-.994-1.988-1.509-4.371-1.509-7.148v.017Zm85.905-12.855h5.383v25.78h-5.383v-25.78Zm80.299 31.299h10.748a105.05 105.05 0 0 0-1.764-14.416l-10.493 2.075-.273-1.337 10.491-2.092a103.407 103.407 0 0 0-5.589-18.306l-9.84 4.08-.531-1.269 9.839-4.079a104.51 104.51 0 0 0-9.069-16.85l-8.81 5.879-.755-1.148 8.811-5.879a105.698 105.698 0 0 0-8.76-11.142l-7.577 7.576-7.801-7.799 7.577-7.576a103.343 103.343 0 0 0-11.365-8.896l-5.864 8.759-1.147-.754 5.863-8.759a103.144 103.144 0 0 0-16.852-9.016l-4.029 9.753-1.268-.532 4.028-9.753a102.615 102.615 0 0 0-18.292-5.536L190.759 99.3l-1.337-.274 2.057-10.336a104.576 104.576 0 0 0-14.194-1.714v10.747h-11.023V86.977c-4.818.257-9.567.84-14.195 1.714l2.057 10.336-1.337.274-2.057-10.336a102.615 102.615 0 0 0-18.292 5.536l4.028 9.753-1.268.532-4.046-9.753a104.528 104.528 0 0 0-16.852 9.016l5.863 8.759-1.148.754-5.863-8.759a107.73 107.73 0 0 0-11.366 8.896l7.577 7.576-7.8 7.799-7.577-7.576a107.956 107.956 0 0 0-8.76 11.142l8.811 5.879-.754 1.148-8.812-5.879a104.72 104.72 0 0 0-9.069 16.85l9.84 4.079-.531 1.269-9.84-4.08a103.323 103.323 0 0 0-5.589 18.306l10.492 2.092-.274 1.337-10.492-2.092a104.814 104.814 0 0 0-1.766 14.416h10.749v11.039H67.242c.257 4.765.823 9.461 1.697 14.038l10.56-2.091.275 1.337-10.56 2.108a103.07 103.07 0 0 0 5.537 18.34l9.977-4.13.532 1.267-9.978 4.132a103.728 103.728 0 0 0 9.035 16.901l8.983-6 .754 1.149-8.983 6a102.747 102.747 0 0 0 8.932 11.398l7.577-7.577 7.8 7.799-7.577 7.577a103.056 103.056 0 0 0 11.194 8.776l6.035-9.033 1.149.754-6.035 9.033a105.144 105.144 0 0 0 16.903 9.084l4.166-10.078 1.269.531-4.166 10.08a103.922 103.922 0 0 0 18.36 5.569l2.126-10.712 1.337.275-2.126 10.712c4.646.892 9.412 1.474 14.264 1.731v-10.746h11.006v10.764c4.851-.258 9.617-.841 14.263-1.731l-2.126-10.713 1.337-.275 2.126 10.713a105.286 105.286 0 0 0 18.36-5.572l-4.165-10.078 1.268-.53 4.166 10.078a104.216 104.216 0 0 0 16.904-9.084l-6.034-9.033 1.147-.754 6.035 9.033a106.353 106.353 0 0 0 11.194-8.776l-7.577-7.577 7.801-7.799 7.577 7.577a104.08 104.08 0 0 0 8.93-11.4l-8.981-5.998.754-1.149 8.982 5.999a105.001 105.001 0 0 0 9.035-16.901l-9.978-4.131.532-1.269 9.976 4.131a102.956 102.956 0 0 0 5.538-18.34l-10.578-2.125.275-1.337 10.56 2.091c.874-4.577 1.44-9.273 1.698-14.038h-10.748v-11.022h-.018ZM143.907 162.91c-.566-1.302-1.372-2.314-2.4-3.016-1.029-.703-2.263-1.063-3.652-1.063-1.406 0-2.623.36-3.668 1.063-1.046.702-1.852 1.714-2.4 3.016-.566 1.303-.858 2.846-.858 4.645v.035c0 1.782.275 3.325.858 4.645.565 1.32 1.371 2.314 2.4 3.034 1.028.72 2.262 1.08 3.685 1.08s2.657-.36 3.686-1.08c1.029-.72 1.817-1.731 2.383-3.051.566-1.303.84-2.863.84-4.628v-.035c-.034-1.799-.309-3.342-.874-4.645Zm10.337 37.11c-.737-1.731-1.8-3.051-3.154-3.976-1.355-.926-2.966-1.406-4.818-1.406-1.851 0-3.462.463-4.817 1.406-1.371.925-2.434 2.245-3.171 3.959-.737 1.714-1.115 3.754-1.115 6.119v.052c0 2.348.378 4.388 1.115 6.102.737 1.731 1.8 3.051 3.154 3.994 1.372.943 2.983 1.405 4.834 1.405 1.886 0 3.498-.48 4.852-1.422 1.354-.943 2.4-2.28 3.137-4.011.737-1.714 1.097-3.754 1.097-6.085v-.052c0-2.331-.36-4.371-1.114-6.085Zm36.207 0c-.738-1.731-1.8-3.051-3.155-3.976-1.354-.926-2.966-1.406-4.817-1.406s-3.463.463-4.835 1.406c-1.371.925-2.434 2.245-3.171 3.959-.737 1.714-1.114 3.754-1.114 6.119v.052c0 2.348.377 4.388 1.114 6.102.737 1.731 1.8 3.051 3.154 3.994 1.372.943 2.983 1.405 4.835 1.405 1.886 0 3.497-.48 4.851-1.422 1.355-.943 2.4-2.28 3.138-4.011.737-1.714 1.097-3.754 1.097-6.085v-.052c.017-2.331-.36-4.371-1.097-6.085Zm0 0c-.738-1.731-1.8-3.051-3.155-3.976-1.354-.926-2.966-1.406-4.817-1.406s-3.463.463-4.835 1.406c-1.371.925-2.434 2.245-3.171 3.959-.737 1.714-1.114 3.754-1.114 6.119v.052c0 2.348.377 4.388 1.114 6.102.737 1.731 1.8 3.051 3.154 3.994 1.372.943 2.983 1.405 4.835 1.405 1.886 0 3.497-.48 4.851-1.422 1.355-.943 2.4-2.28 3.138-4.011.737-1.714 1.097-3.754 1.097-6.085v-.052c.017-2.331-.36-4.371-1.097-6.085Zm-36.207 0c-.737-1.731-1.8-3.051-3.154-3.976-1.355-.926-2.966-1.406-4.818-1.406-1.851 0-3.462.463-4.817 1.406-1.371.925-2.434 2.245-3.171 3.959-.737 1.714-1.115 3.754-1.115 6.119v.052c0 2.348.378 4.388 1.115 6.102.737 1.731 1.8 3.051 3.154 3.994 1.372.943 2.983 1.405 4.834 1.405 1.886 0 3.498-.48 4.852-1.422 1.354-.943 2.4-2.28 3.137-4.011.737-1.714 1.097-3.754 1.097-6.085v-.052c0-2.331-.36-4.371-1.114-6.085Zm-10.337-37.11c-.566-1.302-1.372-2.314-2.4-3.016-1.029-.703-2.263-1.063-3.652-1.063-1.406 0-2.623.36-3.668 1.063-1.046.702-1.852 1.714-2.4 3.016-.566 1.303-.858 2.846-.858 4.645v.035c0 1.782.275 3.325.858 4.645.565 1.32 1.371 2.314 2.4 3.034 1.028.72 2.262 1.08 3.685 1.08s2.657-.36 3.686-1.08c1.029-.72 1.817-1.731 2.383-3.051.566-1.303.84-2.863.84-4.628v-.035c-.034-1.799-.309-3.342-.874-4.645Zm0 0c-.566-1.302-1.372-2.314-2.4-3.016-1.029-.703-2.263-1.063-3.652-1.063-1.406 0-2.623.36-3.668 1.063-1.046.702-1.852 1.714-2.4 3.016-.566 1.303-.858 2.846-.858 4.645v.035c0 1.782.275 3.325.858 4.645.565 1.32 1.371 2.314 2.4 3.034 1.028.72 2.262 1.08 3.685 1.08s2.657-.36 3.686-1.08c1.029-.72 1.817-1.731 2.383-3.051.566-1.303.84-2.863.84-4.628v-.035c-.034-1.799-.309-3.342-.874-4.645Zm10.337 37.11c-.737-1.731-1.8-3.051-3.154-3.976-1.355-.926-2.966-1.406-4.818-1.406-1.851 0-3.462.463-4.817 1.406-1.371.925-2.434 2.245-3.171 3.959-.737 1.714-1.115 3.754-1.115 6.119v.052c0 2.348.378 4.388 1.115 6.102.737 1.731 1.8 3.051 3.154 3.994 1.372.943 2.983 1.405 4.834 1.405 1.886 0 3.498-.48 4.852-1.422 1.354-.943 2.4-2.28 3.137-4.011.737-1.714 1.097-3.754 1.097-6.085v-.052c0-2.331-.36-4.371-1.114-6.085Zm36.207 0c-.738-1.731-1.8-3.051-3.155-3.976-1.354-.926-2.966-1.406-4.817-1.406s-3.463.463-4.835 1.406c-1.371.925-2.434 2.245-3.171 3.959-.737 1.714-1.114 3.754-1.114 6.119v.052c0 2.348.377 4.388 1.114 6.102.737 1.731 1.8 3.051 3.154 3.994 1.372.943 2.983 1.405 4.835 1.405 1.886 0 3.497-.48 4.851-1.422 1.355-.943 2.4-2.28 3.138-4.011.737-1.714 1.097-3.754 1.097-6.085v-.052c.017-2.331-.36-4.371-1.097-6.085Zm0 0c-.738-1.731-1.8-3.051-3.155-3.976-1.354-.926-2.966-1.406-4.817-1.406s-3.463.463-4.835 1.406c-1.371.925-2.434 2.245-3.171 3.959-.737 1.714-1.114 3.754-1.114 6.119v.052c0 2.348.377 4.388 1.114 6.102.737 1.731 1.8 3.051 3.154 3.994 1.372.943 2.983 1.405 4.835 1.405 1.886 0 3.497-.48 4.851-1.422 1.355-.943 2.4-2.28 3.138-4.011.737-1.714 1.097-3.754 1.097-6.085v-.052c.017-2.331-.36-4.371-1.097-6.085Zm-36.207 0c-.737-1.731-1.8-3.051-3.154-3.976-1.355-.926-2.966-1.406-4.818-1.406-1.851 0-3.462.463-4.817 1.406-1.371.925-2.434 2.245-3.171 3.959-.737 1.714-1.115 3.754-1.115 6.119v.052c0 2.348.378 4.388 1.115 6.102.737 1.731 1.8 3.051 3.154 3.994 1.372.943 2.983 1.405 4.834 1.405 1.886 0 3.498-.48 4.852-1.422 1.354-.943 2.4-2.28 3.137-4.011.737-1.714 1.097-3.754 1.097-6.085v-.052c0-2.331-.36-4.371-1.114-6.085Zm-10.337-37.11c-.566-1.302-1.372-2.314-2.4-3.016-1.029-.703-2.263-1.063-3.652-1.063-1.406 0-2.623.36-3.668 1.063-1.046.702-1.852 1.714-2.4 3.016-.566 1.303-.858 2.846-.858 4.645v.035c0 1.782.275 3.325.858 4.645.565 1.32 1.371 2.314 2.4 3.034 1.028.72 2.262 1.08 3.685 1.08s2.657-.36 3.686-1.08c1.029-.72 1.817-1.731 2.383-3.051.566-1.303.84-2.863.84-4.628v-.035c-.034-1.799-.309-3.342-.874-4.645Zm0 0c-.566-1.302-1.372-2.314-2.4-3.016-1.029-.703-2.263-1.063-3.652-1.063-1.406 0-2.623.36-3.668 1.063-1.046.702-1.852 1.714-2.4 3.016-.566 1.303-.858 2.846-.858 4.645v.035c0 1.782.275 3.325.858 4.645.565 1.32 1.371 2.314 2.4 3.034 1.028.72 2.262 1.08 3.685 1.08s2.657-.36 3.686-1.08c1.029-.72 1.817-1.731 2.383-3.051.566-1.303.84-2.863.84-4.628v-.035c-.034-1.799-.309-3.342-.874-4.645Zm10.337 37.11c-.737-1.731-1.8-3.051-3.154-3.976-1.355-.926-2.966-1.406-4.818-1.406-1.851 0-3.462.463-4.817 1.406-1.371.925-2.434 2.245-3.171 3.959-.737 1.714-1.115 3.754-1.115 6.119v.052c0 2.348.378 4.388 1.115 6.102.737 1.731 1.8 3.051 3.154 3.994 1.372.943 2.983 1.405 4.834 1.405 1.886 0 3.498-.48 4.852-1.422 1.354-.943 2.4-2.28 3.137-4.011.737-1.714 1.097-3.754 1.097-6.085v-.052c0-2.331-.36-4.371-1.114-6.085Zm36.207 0c-.738-1.731-1.8-3.051-3.155-3.976-1.354-.926-2.966-1.406-4.817-1.406s-3.463.463-4.835 1.406c-1.371.925-2.434 2.245-3.171 3.959-.737 1.714-1.114 3.754-1.114 6.119v.052c0 2.348.377 4.388 1.114 6.102.737 1.731 1.8 3.051 3.154 3.994 1.372.943 2.983 1.405 4.835 1.405 1.886 0 3.497-.48 4.851-1.422 1.355-.943 2.4-2.28 3.138-4.011.737-1.714 1.097-3.754 1.097-6.085v-.052c.017-2.331-.36-4.371-1.097-6.085Zm0 0c-.738-1.731-1.8-3.051-3.155-3.976-1.354-.926-2.966-1.406-4.817-1.406s-3.463.463-4.835 1.406c-1.371.925-2.434 2.245-3.171 3.959-.737 1.714-1.114 3.754-1.114 6.119v.052c0 2.348.377 4.388 1.114 6.102.737 1.731 1.8 3.051 3.154 3.994 1.372.943 2.983 1.405 4.835 1.405 1.886 0 3.497-.48 4.851-1.422 1.355-.943 2.4-2.28 3.138-4.011.737-1.714 1.097-3.754 1.097-6.085v-.052c.017-2.331-.36-4.371-1.097-6.085Zm-36.207 0c-.737-1.731-1.8-3.051-3.154-3.976-1.355-.926-2.966-1.406-4.818-1.406-1.851 0-3.462.463-4.817 1.406-1.371.925-2.434 2.245-3.171 3.959-.737 1.714-1.115 3.754-1.115 6.119v.052c0 2.348.378 4.388 1.115 6.102.737 1.731 1.8 3.051 3.154 3.994 1.372.943 2.983 1.405 4.834 1.405 1.886 0 3.498-.48 4.852-1.422 1.354-.943 2.4-2.28 3.137-4.011.737-1.714 1.097-3.754 1.097-6.085v-.052c0-2.331-.36-4.371-1.114-6.085Zm-10.337-37.11c-.566-1.302-1.372-2.314-2.4-3.016-1.029-.703-2.263-1.063-3.652-1.063-1.406 0-2.623.36-3.668 1.063-1.046.702-1.852 1.714-2.4 3.016-.566 1.303-.858 2.846-.858 4.645v.035c0 1.782.275 3.325.858 4.645.565 1.32 1.371 2.314 2.4 3.034 1.028.72 2.262 1.08 3.685 1.08s2.657-.36 3.686-1.08c1.029-.72 1.817-1.731 2.383-3.051.566-1.303.84-2.863.84-4.628v-.035c-.034-1.799-.309-3.342-.874-4.645Zm0 0c-.566-1.302-1.372-2.314-2.4-3.016-1.029-.703-2.263-1.063-3.652-1.063-1.406 0-2.623.36-3.668 1.063-1.046.702-1.852 1.714-2.4 3.016-.566 1.303-.858 2.846-.858 4.645v.035c0 1.782.275 3.325.858 4.645.565 1.32 1.371 2.314 2.4 3.034 1.028.72 2.262 1.08 3.685 1.08s2.657-.36 3.686-1.08c1.029-.72 1.817-1.731 2.383-3.051.566-1.303.84-2.863.84-4.628v-.035c-.034-1.799-.309-3.342-.874-4.645Zm10.337 37.11c-.737-1.731-1.8-3.051-3.154-3.976-1.355-.926-2.966-1.406-4.818-1.406-1.851 0-3.462.463-4.817 1.406-1.371.925-2.434 2.245-3.171 3.959-.737 1.714-1.115 3.754-1.115 6.119v.052c0 2.348.378 4.388 1.115 6.102.737 1.731 1.8 3.051 3.154 3.994 1.372.943 2.983 1.405 4.834 1.405 1.886 0 3.498-.48 4.852-1.422 1.354-.943 2.4-2.28 3.137-4.011.737-1.714 1.097-3.754 1.097-6.085v-.052c0-2.331-.36-4.371-1.114-6.085Zm0 0c-.737-1.731-1.8-3.051-3.154-3.976-1.355-.926-2.966-1.406-4.818-1.406-1.851 0-3.462.463-4.817 1.406-1.371.925-2.434 2.245-3.171 3.959-.737 1.714-1.115 3.754-1.115 6.119v.052c0 2.348.378 4.388 1.115 6.102.737 1.731 1.8 3.051 3.154 3.994 1.372.943 2.983 1.405 4.834 1.405 1.886 0 3.498-.48 4.852-1.422 1.354-.943 2.4-2.28 3.137-4.011.737-1.714 1.097-3.754 1.097-6.085v-.052c0-2.331-.36-4.371-1.114-6.085Zm-10.337-37.11c-.566-1.302-1.372-2.314-2.4-3.016-1.029-.703-2.263-1.063-3.652-1.063-1.406 0-2.623.36-3.668 1.063-1.046.702-1.852 1.714-2.4 3.016-.566 1.303-.858 2.846-.858 4.645v.035c0 1.782.275 3.325.858 4.645.565 1.32 1.371 2.314 2.4 3.034 1.028.72 2.262 1.08 3.685 1.08s2.657-.36 3.686-1.08c1.029-.72 1.817-1.731 2.383-3.051.566-1.303.84-2.863.84-4.628v-.035c-.034-1.799-.309-3.342-.874-4.645Zm10.337 37.11c-.737-1.731-1.8-3.051-3.154-3.976-1.355-.926-2.966-1.406-4.818-1.406-1.851 0-3.462.463-4.817 1.406-1.371.925-2.434 2.245-3.171 3.959-.737 1.714-1.115 3.754-1.115 6.119v.052c0 2.348.378 4.388 1.115 6.102.737 1.731 1.8 3.051 3.154 3.994 1.372.943 2.983 1.405 4.834 1.405 1.886 0 3.498-.48 4.852-1.422 1.354-.943 2.4-2.28 3.137-4.011.737-1.714 1.097-3.754 1.097-6.085v-.052c0-2.331-.36-4.371-1.114-6.085Zm0 0c-.737-1.731-1.8-3.051-3.154-3.976-1.355-.926-2.966-1.406-4.818-1.406-1.851 0-3.462.463-4.817 1.406-1.371.925-2.434 2.245-3.171 3.959-.737 1.714-1.115 3.754-1.115 6.119v.052c0 2.348.378 4.388 1.115 6.102.737 1.731 1.8 3.051 3.154 3.994 1.372.943 2.983 1.405 4.834 1.405 1.886 0 3.498-.48 4.852-1.422 1.354-.943 2.4-2.28 3.137-4.011.737-1.714 1.097-3.754 1.097-6.085v-.052c0-2.331-.36-4.371-1.114-6.085ZM191.53 0h-40.392a6.88 6.88 0 0 0-6.88 6.878v11.76a6.879 6.879 0 0 0 6.88 6.879h40.392a6.88 6.88 0 0 0 6.88-6.879V6.878A6.88 6.88 0 0 0 191.53 0Zm131.476 202.624c-3.777 32.375-16.541 62.938-36.626 87.702-20.082 24.763-46.555 42.578-75.958 51.114l-1.094-4.609c28.535-8.285 54.227-25.572 73.719-49.607 19.492-24.032 31.881-53.696 35.545-85.115l4.414.515Zm-302.514 1.377c4.076 32.337 17.122 62.782 37.434 87.36 20.312 24.578 46.947 42.145 76.427 50.412l1.052-4.619c-28.612-8.022-54.461-25.073-74.174-48.926-19.713-23.853-32.374-53.399-36.33-84.783l-4.409.556ZM52.377 92.448a2.219 2.219 0 0 1 .031-3.138L69.05 73a2.22 2.22 0 0 1 3.138.032l14.603 14.895-19.811 19.415-14.603-14.895Zm219.198-18.796a2.22 2.22 0 0 1 3.138.058l16.17 16.776a2.22 2.22 0 0 1-.057 3.138l-15.021 14.473-19.25-19.972 15.02-14.473ZM155.352 38.383c0-1.226.993-2.219 2.219-2.219h27.742a2.22 2.22 0 0 1 2.219 2.219v17.75a2.22 2.22 0 0 1-2.219 2.22h-27.742a2.219 2.219 0 0 1-2.219-2.22v-17.75Z"/>
</svg>
