<svg width="156" height="100" viewBox="0 0 156 100" fill="none" xmlns="http://www.w3.org/2000/svg">
<path d="M155.262 101.512V114.201C155.262 121.2 149.055 126.89 141.432 126.89H22.495C10.2915 126.89 0.367188 117.784 0.367188 106.588C0.367188 106.588 0.367188 20.3785 0.367188 20.3024C0.367188 9.10563 10.2915 0 22.495 0H124.836C129.422 0 133.134 3.4108 133.134 7.6134C133.134 11.816 129.422 15.2268 124.836 15.2268H22.495C19.4469 15.2268 16.9631 17.5007 16.9631 20.3024C16.9631 23.1041 19.4469 25.378 22.495 25.378H141.432C149.055 25.378 155.262 31.0677 155.262 38.067V50.756H127.602C112.351 50.756 99.9424 62.1406 99.9424 76.134C99.9424 90.1274 112.351 101.512 127.602 101.512H155.262Z" fill="url(#paint0_linear_6429_9301)"/>
<path d="M140.571 67.1055V88.6752H124.843C119.631 88.6752 115.406 83.8472 115.406 77.8903C115.406 71.9335 119.631 67.1055 124.843 67.1055H140.571Z" fill="url(#paint1_linear_6429_9301)"/>
<defs>
<linearGradient id="paint0_linear_6429_9301" x1="77.4914" y1="-246.316" x2="77.4914" y2="334.641" gradientUnits="userSpaceOnUse">
<stop offset="0.182292" stop-color="white"/>
<stop offset="0.411458" stop-color="white"/>
<stop offset="0.770833" stop-color="#FEB431"/>
</linearGradient>
<linearGradient id="paint1_linear_6429_9301" x1="128.956" y1="12.2007" x2="135.728" y2="191.366" gradientUnits="userSpaceOnUse">
<stop offset="0.25564" stop-color="white"/>
<stop offset="0.340692" stop-color="#FFE1AC"/>
<stop offset="0.457391" stop-color="#FEB431"/>
</linearGradient>
</defs>
</svg>
