<svg width="285" height="110" viewBox="0 0 285 110" fill="none" xmlns="http://www.w3.org/2000/svg">
<g clip-path="url(#clip0_3915_9690)">
<rect x="284.602" y="109.605" width="284.6" height="109.6" rx="8" transform="rotate(-180 284.602 109.605)" fill="url(#paint0_linear_3915_9690)"/>
<path d="M293.26 115.716V126.305C293.26 132.146 288.08 136.894 281.719 136.894H182.466C172.282 136.894 164 129.295 164 119.952C164 119.952 164 48.0098 164 47.9463C164 38.6026 172.282 31.0039 182.466 31.0039H267.87C271.697 31.0039 274.794 33.8502 274.794 37.3573C274.794 40.8644 271.697 43.7107 267.87 43.7107H182.466C179.922 43.7107 177.849 45.6083 177.849 47.9463C177.849 50.2844 179.922 52.1819 182.466 52.1819H281.719C288.08 52.1819 293.26 56.93 293.26 62.7709V73.3599H270.178C257.45 73.3599 247.096 82.8604 247.096 94.5379C247.096 106.215 257.45 115.716 270.178 115.716H293.26Z" fill="url(#paint1_linear_3915_9690)"/>
<path d="M281 87.0039V105.004H267.875C263.525 105.004 260 100.975 260 96.0039C260 91.0329 263.525 87.0039 267.875 87.0039H281Z" fill="url(#paint2_linear_3915_9690)"/>
</g>
<defs>
<linearGradient id="paint0_linear_3915_9690" x1="193.333" y1="67.4516" x2="461.226" y2="381.335" gradientUnits="userSpaceOnUse">
<stop stop-color="white"/>
<stop offset="0.505256" stop-color="#FFC968"/>
<stop offset="0.943364" stop-color="#FEB431"/>
</linearGradient>
<linearGradient id="paint1_linear_3915_9690" x1="228.36" y1="-174.547" x2="228.36" y2="310.263" gradientUnits="userSpaceOnUse">
<stop offset="0.182292" stop-color="white"/>
<stop offset="0.411458" stop-color="white"/>
<stop offset="0.770833" stop-color="#FEB431"/>
</linearGradient>
<linearGradient id="paint2_linear_3915_9690" x1="271.308" y1="41.1857" x2="276.959" y2="190.699" gradientUnits="userSpaceOnUse">
<stop offset="0.25564" stop-color="white"/>
<stop offset="0.340692" stop-color="#FFE1AC"/>
<stop offset="0.457391" stop-color="#FEB431"/>
</linearGradient>
<clipPath id="clip0_3915_9690">
<rect width="284.6" height="109.6" fill="white" transform="matrix(-1 0 0 -1 284.602 109.605)"/>
</clipPath>
</defs>
</svg>
