<svg width="140" height="32" viewBox="0 0 140 32" fill="none" xmlns="http://www.w3.org/2000/svg">
<path d="M44.1812 27.15C44.8693 27.7137 45.6716 28 46.5852 28C47.4874 28 48.281 27.7137 48.9691 27.15C49.66 26.5818 50.1939 25.7855 50.5765 24.7565C50.9591 23.732 51.1503 22.5553 51.1503 21.2311V21.07C51.1503 20.985 51.0818 20.9403 50.9448 20.9403L50.5565 20.909C50.4195 20.909 50.3509 21.0074 50.3509 21.1998V21.2624C50.3509 22.9311 50.0026 24.2822 49.3089 25.3202C48.6122 26.3581 47.7043 26.8771 46.5852 26.8771C45.4403 26.8771 44.521 26.3581 43.8329 25.3202C43.1449 24.2822 42.7994 22.9311 42.7994 21.2624V11.7063C42.7994 10.0375 43.1449 8.69091 43.8329 7.66193C44.521 6.63742 45.4403 6.12293 46.5852 6.12293C47.7043 6.12293 48.6122 6.63742 49.3089 7.66193C50.0026 8.69091 50.3509 10.0375 50.3509 11.7063V11.8987C50.3509 12.0239 50.4195 12.091 50.5565 12.091L50.9448 12.0597C51.0818 12.0597 51.1503 11.9523 51.1503 11.7376V11.7063C51.1503 10.3776 50.9591 9.20988 50.5765 8.19432C50.1939 7.17876 49.66 6.39136 48.9691 5.83661C48.281 5.27738 47.4874 5 46.5852 5C45.6716 5 44.8693 5.27738 44.1812 5.83661C43.4932 6.39136 42.9564 7.18323 42.5739 8.20774C42.1913 9.23672 42 10.4133 42 11.7376V21.1998C42 22.5464 42.1913 23.732 42.5739 24.7565C42.9564 25.7855 43.4932 26.5818 44.1812 27.15ZM65.3141 27.4855C65.3541 27.6331 65.4369 27.7092 65.5597 27.7092H65.928C66.0364 27.7092 66.0907 27.6331 66.0907 27.4855C66.0907 27.4184 66.085 27.3692 66.0707 27.3245L62.8788 16.9988C62.8502 16.9317 62.8702 16.878 62.9387 16.8378C63.8523 16.6007 64.5804 15.9698 65.12 14.9453C65.6596 13.9164 65.928 12.6458 65.928 11.1292C65.928 9.35304 65.5825 7.92142 64.8944 6.8298C64.2064 5.73818 63.3013 5.19237 62.1822 5.19237H57.1687C57.0317 5.19237 56.9632 5.29975 56.9632 5.51449V27.3871C56.9632 27.6018 57.0317 27.7092 57.1687 27.7092H57.557C57.6941 27.7092 57.7597 27.6018 57.7597 27.3871V17.0615C57.7597 16.9765 57.7883 16.9317 57.8425 16.9317H61.9966C62.0394 16.9317 62.0651 16.963 62.0794 17.0301L65.3141 27.4855ZM57.7597 6.47637C57.7597 6.39136 57.7883 6.34662 57.8425 6.34662H62.1622C63.0472 6.34662 63.7638 6.78506 64.312 7.66193C64.8573 8.5388 65.1285 9.69305 65.1285 11.1292C65.1285 12.516 64.8573 13.6524 64.312 14.5293C63.7638 15.4017 63.0472 15.8401 62.1622 15.8401H57.8425C57.7883 15.8401 57.7597 15.7998 57.7597 15.7148V6.47637ZM80.2973 6.38242C80.4315 6.38242 80.5 6.27504 80.5 6.0603V5.57712C80.5 5.36685 80.4315 5.25948 80.2973 5.25948H71.7208C71.5838 5.25948 71.5152 5.36685 71.5152 5.57712V27.3871C71.5152 27.6018 71.5838 27.7092 71.7208 27.7092H80.2973C80.4315 27.7092 80.5 27.6018 80.5 27.3871V26.9084C80.5 26.6936 80.4315 26.5863 80.2973 26.5863H72.3946C72.3403 26.5863 72.3146 26.546 72.3146 26.4565V17.1554C72.3146 17.0704 72.3403 17.0301 72.3946 17.0301H78.0447C78.1817 17.0301 78.2502 16.9228 78.2502 16.708V16.1935C78.2502 15.9833 78.1817 15.8759 78.0447 15.8759H72.3946C72.3403 15.8759 72.3146 15.8312 72.3146 15.7462V6.50768C72.3146 6.42268 72.3403 6.38242 72.3946 6.38242H80.2973ZM86.1501 27.3871C86.1501 27.6018 86.2186 27.7092 86.3556 27.7092H91.0407C92.2969 27.7092 93.2933 27.1813 94.0299 26.121C94.7665 25.0652 95.1348 23.6156 95.1348 21.7769V11.1918C95.1348 9.35304 94.7665 7.90352 94.0299 6.84769C93.2933 5.78739 92.2969 5.25948 91.0407 5.25948H86.3556C86.2186 5.25948 86.1501 5.36685 86.1501 5.57712V27.3871ZM87.0294 26.5863C86.9752 26.5863 86.9466 26.546 86.9466 26.4565V6.50768C86.9466 6.42268 86.9752 6.38242 87.0294 6.38242H91.0836C92.0914 6.38242 92.8879 6.82085 93.4675 7.69772C94.0471 8.5746 94.3354 9.76911 94.3354 11.2857V21.7098C94.3354 23.2085 94.0471 24.3941 93.4675 25.271C92.8879 26.1478 92.0914 26.5863 91.0836 26.5863H87.0294ZM109.627 6.38242C109.764 6.38242 109.83 6.27504 109.83 6.0603V5.57712C109.83 5.36685 109.764 5.25948 109.627 5.25948H101.05C100.913 5.25948 100.845 5.36685 100.845 5.57712V27.3871C100.845 27.6018 100.913 27.7092 101.05 27.7092H109.627C109.764 27.7092 109.83 27.6018 109.83 27.3871V26.9084C109.83 26.6936 109.764 26.5863 109.627 26.5863H101.724C101.67 26.5863 101.644 26.546 101.644 26.4565V17.1554C101.644 17.0704 101.67 17.0301 101.724 17.0301H107.374C107.511 17.0301 107.58 16.9228 107.58 16.708V16.1935C107.58 15.9833 107.511 15.8759 107.374 15.8759H101.724C101.67 15.8759 101.644 15.8312 101.644 15.7462V6.50768C101.644 6.42268 101.67 6.38242 101.724 6.38242H109.627ZM122.069 16.0996C122.069 16.0772 122.092 16.0549 122.132 16.0325C122.829 15.5851 123.362 14.9319 123.739 14.0774C124.113 13.2229 124.302 12.1984 124.302 10.9994C124.302 9.24567 123.939 7.84983 123.217 6.8119C122.495 5.77845 121.524 5.25948 120.31 5.25948H115.685C115.548 5.25948 115.48 5.36685 115.48 5.57712V27.3871C115.48 27.6018 115.548 27.7092 115.685 27.7092H120.453C121.655 27.7092 122.623 27.1679 123.36 26.0897C124.096 25.0115 124.464 23.5485 124.464 21.7098C124.464 20.3632 124.262 19.2134 123.851 18.2649C123.442 17.312 122.869 16.6141 122.132 16.1622C122.092 16.1399 122.069 16.122 122.069 16.0996ZM116.279 6.50768C116.279 6.42268 116.305 6.38242 116.359 6.38242H120.31C121.278 6.38242 122.058 6.80743 122.643 7.66193C123.231 8.52091 123.522 9.65279 123.522 11.0621C123.522 12.4087 123.231 13.4958 122.643 14.319C122.058 15.1422 121.278 15.5538 120.31 15.5538H116.359C116.305 15.5538 116.279 15.509 116.279 15.424V6.50768ZM122.777 25.1904C122.183 26.0986 121.41 26.555 120.453 26.555H116.359C116.305 26.555 116.279 26.5102 116.279 26.4252V16.8065C116.279 16.717 116.305 16.6767 116.359 16.6767H120.33C121.341 16.6767 122.149 17.1241 122.757 18.0233C123.362 18.9226 123.668 20.1305 123.668 21.6472C123.668 23.1011 123.371 24.2822 122.777 25.1904ZM130.42 27.3871C130.42 27.6018 130.489 27.7092 130.626 27.7092H138.731C138.868 27.7092 138.937 27.6018 138.937 27.3871V26.9084C138.937 26.6936 138.868 26.5863 138.731 26.5863H131.302C131.248 26.5863 131.219 26.546 131.219 26.4565V5.57712C131.219 5.36685 131.151 5.25948 131.014 5.25948H130.626C130.489 5.25948 130.42 5.36685 130.42 5.57712V27.3871Z" fill="black" stroke="black" stroke-width="1.5"/>
<path d="M32 16C32 24.8366 24.8366 32 16 32C7.16344 32 0 24.8366 0 16C0 7.16344 7.16344 0 16 0C24.8366 0 32 7.16344 32 16ZM2.28634 16C2.28634 23.5738 8.42615 29.7137 16 29.7137C23.5738 29.7137 29.7137 23.5738 29.7137 16C29.7137 8.42615 23.5738 2.28634 16 2.28634C8.42615 2.28634 2.28634 8.42615 2.28634 16Z" fill="#25AFE1"/>
<path d="M23.0655 7.96666C22.8096 7.67586 22.4487 7.49856 22.0621 7.47372C21.6756 7.44887 21.295 7.57851 21.0039 7.83415C19.7928 8.90347 17.6752 12.1414 16.3442 15.6427C16.0367 16.4519 15.767 17.2819 15.5538 18.1126C14.5474 16.5469 13.7061 15.6068 12.6924 14.4722C11.9949 13.6924 11.2089 12.813 10.1966 11.5134C10.0794 11.3617 9.93341 11.2345 9.76704 11.1392C9.60067 11.0439 9.41715 10.9823 9.22697 10.958C9.03679 10.9337 8.84367 10.947 8.65866 10.9974C8.47365 11.0477 8.30037 11.134 8.14872 11.2513C7.84245 11.4883 7.64284 11.8373 7.5938 12.2215C7.54475 12.6056 7.65028 12.9935 7.88719 13.2999C8.94183 14.6542 9.77414 15.585 10.5124 16.4111C12.0466 18.1263 13.1445 19.3554 15.2532 23.5699C15.5042 24.1919 16.1613 24.5797 16.8503 24.4648C17.2329 24.4009 17.5746 24.1877 17.8001 23.8721C18.0256 23.5564 18.1166 23.1641 18.0531 22.7814C17.7631 21.0397 18.269 18.8086 19.0778 16.6813C20.2493 13.6011 21.984 10.8656 22.9328 10.0275C23.2237 9.77176 23.401 9.41101 23.4259 9.02454C23.4508 8.63807 23.3212 8.25754 23.0655 7.96666Z" fill="#1F4EAD"/>
<path d="M13.493 5.95898C13.0742 6.06167 13.1881 6.57715 13.5324 6.40605C13.5385 6.40605 15.5315 5.73632 16.8376 7.81173C16.9981 8.06675 17.2126 7.73675 17.1256 7.55566C16.8506 6.98318 15.6643 5.42632 13.4929 5.95889L13.493 5.95898ZM12.5459 10.2516C12.2988 8.66431 12.9639 7.61213 13.7914 7.39886C15.7611 6.8911 16.7355 9.31922 16.7355 10.5965C16.7355 11.8428 15.8461 12.3916 15.2122 12.336C14.147 12.2425 13.6455 11.1283 13.4907 10.2608C13.4529 10.0494 13.1594 8.42209 14.4747 8.41227C15.3704 8.40569 15.8739 9.95589 15.8152 10.5533C15.7768 10.9436 15.5936 11.3513 15.179 11.3149C14.6264 11.2664 14.4236 10.4721 14.3957 10.1582C14.3896 10.1084 14.2765 9.49285 14.5774 9.54495C14.785 9.5809 14.8358 9.96729 14.8429 9.99254C14.8718 10.0852 14.8915 10.2017 14.9034 10.3093C14.916 10.4005 14.8954 10.5052 14.9321 10.6068C14.968 10.7247 15.0713 10.7911 15.1608 10.799C15.2339 10.8054 15.3735 10.7306 15.3783 10.6162C15.3877 10.008 15.1331 8.92564 14.4154 8.98931C14.0118 9.02509 13.799 9.48707 13.9139 10.232C14.0259 10.9574 14.4036 11.755 15.1503 11.8205C15.9711 11.8926 16.3017 11.1441 16.3017 10.5801C16.3017 8.97194 15.2141 7.49602 13.9288 7.93784C13.1906 8.19154 12.7427 8.99509 12.9948 10.3056C13.2561 11.6642 14.0599 12.9108 15.2262 12.877C17.3614 12.8151 17.2131 10.5408 17.2131 10.5408C17.2131 8.45103 15.5199 6.03317 13.3485 6.97467C12.4533 7.3629 11.7531 8.67185 12.0174 10.2689C12.6879 14.3202 15.6158 13.8548 15.7525 13.8337L15.7627 13.8348C16.2299 13.7672 16.1344 13.2463 15.7926 13.3048C13.854 13.6367 12.8075 11.9325 12.5459 10.2516Z" fill="#1F4EAD"/>
<path d="M27.2267 6.26927C27.7038 5.85575 27.7581 5.13047 27.3115 4.68411C25.2768 2.65012 22.7255 1.19709 19.9226 0.488295C16.7494 -0.314166 13.4063 -0.124094 10.3445 1.03287C7.2826 2.18984 4.64924 4.25803 2.79959 6.95847C0.949944 9.65891 -0.0269907 12.8617 0.000567091 16.1347C0.0281249 19.4078 1.05885 22.5936 2.9537 25.2625C4.84856 27.9314 7.51637 29.955 10.5973 31.0602C13.6782 32.1655 17.024 32.2992 20.1833 31.4435C22.9738 30.6876 25.5003 29.1918 27.5005 27.1238C27.9394 26.67 27.8729 25.9457 27.3889 25.5403V25.5403C26.9049 25.1349 26.1871 25.2025 25.7428 25.651C24.0469 27.3631 21.9244 28.6031 19.5855 29.2366C16.8776 29.9701 14.01 29.8555 11.3693 28.9082C8.72865 27.9609 6.44206 26.2265 4.81797 23.9389C3.19388 21.6514 2.31044 18.9208 2.28682 16.1155C2.2632 13.3101 3.10054 10.565 4.68588 8.25047C6.27122 5.93592 8.52828 4.16326 11.1526 3.17162C13.777 2.17998 16.6423 2.01707 19.3621 2.70486C21.7114 3.29895 23.8545 4.50306 25.5789 6.18631C26.0308 6.62731 26.7496 6.68278 27.2267 6.26927V6.26927Z" fill="#1F4EAD"/>
</svg>
