<svg width="285" height="110" viewBox="0 0 285 110" fill="none" xmlns="http://www.w3.org/2000/svg">
<g clip-path="url(#clip0_3877_13407)">
<rect width="284.6" height="109.6" rx="8" fill="url(#paint0_linear_3877_13407)"/>
<path d="M293.26 115.712V126.301C293.26 132.142 288.08 136.89 281.719 136.89H182.466C172.282 136.89 164 129.291 164 119.948C164 119.948 164 48.0059 164 47.9424C164 38.5987 172.282 31 182.466 31H267.87C271.697 31 274.794 33.8463 274.794 37.3534C274.794 40.8605 271.697 43.7068 267.87 43.7068H182.466C179.922 43.7068 177.849 45.6043 177.849 47.9424C177.849 50.2805 179.922 52.178 182.466 52.178H281.719C288.08 52.178 293.26 56.9261 293.26 62.767V73.356H270.178C257.45 73.356 247.096 82.8565 247.096 94.534C247.096 106.212 257.45 115.712 270.178 115.712H293.26Z" fill="url(#paint1_linear_3877_13407)"/>
<path d="M281 87V105H267.875C263.525 105 260 100.971 260 96C260 91.029 263.525 87 267.875 87H281Z" fill="url(#paint2_linear_3877_13407)"/>
</g>
<defs>
<linearGradient id="paint0_linear_3877_13407" x1="-91.2683" y1="-42.1538" x2="176.624" y2="271.73" gradientUnits="userSpaceOnUse">
<stop offset="0.177301" stop-color="white"/>
<stop offset="0.366384" stop-color="#FFC968"/>
<stop offset="0.809535" stop-color="#FEB431"/>
</linearGradient>
<linearGradient id="paint1_linear_3877_13407" x1="228.36" y1="-174.551" x2="228.36" y2="310.259" gradientUnits="userSpaceOnUse">
<stop offset="0.294375" stop-color="white"/>
<stop offset="0.77789" stop-color="#FEB431"/>
</linearGradient>
<linearGradient id="paint2_linear_3877_13407" x1="271.308" y1="41.1818" x2="276.959" y2="190.695" gradientUnits="userSpaceOnUse">
<stop offset="0.106361" stop-color="#FEB431"/>
<stop offset="0.792794" stop-color="white"/>
</linearGradient>
<clipPath id="clip0_3877_13407">
<rect width="284.6" height="109.6" fill="white"/>
</clipPath>
</defs>
</svg>
