<svg width="3633" height="985" viewBox="0 0 3633 985" fill="none" xmlns="http://www.w3.org/2000/svg">
<path d="M992 492.585C992 764.08 769.933 984.17 496 984.17C222.067 984.17 0 764.08 0 492.585C0 221.09 222.067 1 496 1C769.933 1 992 221.09 992 492.585ZM72.8589 492.585C72.8589 724.199 262.306 911.96 496 911.96C729.694 911.96 919.141 724.199 919.141 492.585C919.141 260.971 729.694 73.2104 496 73.2104C262.306 73.2104 72.8589 260.971 72.8589 492.585Z" fill="#25AFE1"/>
<path d="M841.182 789.42C837.915 786.151 834.035 783.558 829.766 781.789C825.496 780.02 820.919 779.109 816.298 779.109C811.676 779.109 807.099 780.02 802.83 781.789C798.56 783.558 794.68 786.151 791.413 789.42C711.854 868.973 606.087 912.779 493.583 912.779C261.339 912.779 72.3941 723.834 72.3941 491.583C72.3941 259.339 261.339 70.3941 493.583 70.3941C604.665 70.3941 709.482 113.257 788.717 191.092C795.416 197.434 804.336 200.893 813.558 200.726C822.781 200.559 831.57 196.778 838.034 190.198C844.498 183.617 848.122 174.763 848.124 165.538C848.127 156.314 844.509 147.457 838.049 140.873C745.566 50.0291 623.235 0 493.583 0C222.523 0 2 220.523 2 491.583C2 762.642 222.523 983.166 493.583 983.166C624.889 983.166 748.332 932.032 841.182 839.182C844.452 835.916 847.047 832.038 848.817 827.768C850.587 823.499 851.498 818.923 851.498 814.301C851.498 809.679 850.587 805.103 848.817 800.834C847.047 796.564 844.452 792.686 841.182 789.42Z" fill="#1F4EAD"/>
<path d="M717.668 246.476C709.751 237.48 698.586 231.995 686.627 231.226C674.667 230.457 662.892 234.468 653.888 242.377C616.42 275.459 550.907 375.631 509.728 483.955C500.215 508.988 491.872 534.666 485.275 560.368C454.141 511.928 428.11 482.843 396.749 447.742C375.171 423.617 350.855 396.409 319.536 356.204C315.91 351.51 311.394 347.576 306.247 344.628C301.1 341.679 295.422 339.774 289.539 339.021C283.655 338.268 277.68 338.682 271.957 340.239C266.233 341.796 260.872 344.465 256.181 348.095C246.705 355.428 240.53 366.224 239.012 378.109C237.495 389.995 240.76 401.996 248.089 411.474C280.717 453.371 306.467 482.168 329.306 507.727C376.772 560.792 410.739 598.816 475.977 729.202C483.739 748.444 504.069 760.444 525.385 756.888C537.223 754.912 547.792 748.316 554.77 738.551C561.748 728.785 564.562 716.649 562.596 704.809C553.626 650.925 569.277 581.898 594.298 516.087C630.541 420.791 684.21 336.161 713.563 310.232C722.561 302.322 728.049 291.161 728.819 279.205C729.589 267.248 725.578 255.475 717.668 246.476Z" fill="#1F4EAD"/>
<path d="M421.511 184.358C408.554 187.535 412.078 203.483 422.729 198.19C422.919 198.19 484.577 177.47 524.986 241.678C529.951 249.567 536.587 239.358 533.895 233.755C525.387 216.044 488.687 167.879 421.509 184.356L421.511 184.358ZM392.21 317.161C384.567 268.054 405.143 235.503 430.744 228.904C491.68 213.196 521.828 288.316 521.828 327.832C521.828 366.39 494.312 383.369 474.699 381.648C441.745 378.754 426.229 344.284 421.441 317.446C420.271 310.905 411.191 260.561 451.882 260.257C479.593 260.053 495.172 308.013 493.354 326.494C492.165 338.57 486.498 351.183 473.673 350.057C456.575 348.557 450.303 323.982 449.44 314.272C449.25 312.731 445.75 293.688 455.061 295.299C461.483 296.411 463.054 308.365 463.274 309.147C464.169 312.014 464.777 315.617 465.146 318.946C465.537 321.768 464.899 325.007 466.033 328.149C467.145 331.798 470.341 333.852 473.109 334.096C475.371 334.294 479.691 331.98 479.837 328.442C480.13 309.624 472.251 276.139 450.048 278.109C437.562 279.216 430.977 293.508 434.534 316.553C437.999 338.996 449.684 363.672 472.783 365.698C498.178 367.928 508.406 344.772 508.406 327.324C508.406 277.572 474.758 231.911 434.993 245.579C412.157 253.428 398.298 278.288 406.098 318.832C414.183 360.864 439.051 399.43 475.133 398.385C541.191 396.47 536.603 326.109 536.603 326.109C536.603 261.456 484.219 186.654 417.04 215.781C389.345 227.792 367.684 268.288 375.861 317.696C396.605 443.032 487.184 428.634 491.414 427.983L491.731 428.018C506.184 425.926 503.229 409.81 492.654 411.62C432.681 421.889 400.303 369.166 392.21 317.161Z" fill="#1F4EAD"/>
<path d="M1140.79 673.027C1158.73 682.409 1179.66 687.174 1203.48 687.174C1227.01 687.174 1247.71 682.409 1265.66 673.027C1283.68 663.57 1297.6 650.317 1307.58 633.191C1317.55 616.14 1322.54 596.557 1322.54 574.518V571.837C1322.54 570.422 1320.76 569.678 1317.18 569.678L1307.06 569.157C1303.48 569.157 1301.69 570.795 1301.69 573.996V575.039C1301.69 602.812 1292.61 625.299 1274.52 642.573C1256.35 659.848 1232.67 668.485 1203.48 668.485C1173.63 668.485 1149.65 659.848 1131.7 642.573C1113.76 625.299 1104.75 602.812 1104.75 575.039V415.995C1104.75 388.222 1113.76 365.809 1131.7 348.684C1149.65 331.633 1173.63 323.07 1203.48 323.07C1232.67 323.07 1256.35 331.633 1274.52 348.684C1292.61 365.809 1301.69 388.222 1301.69 415.995V419.196C1301.69 421.281 1303.48 422.398 1307.06 422.398L1317.18 421.877C1320.76 421.877 1322.54 420.09 1322.54 416.516V415.995C1322.54 393.88 1317.55 374.447 1307.58 357.544C1297.6 340.642 1283.68 327.538 1265.66 318.305C1247.71 308.997 1227.01 304.381 1203.48 304.381C1179.66 304.381 1158.73 308.997 1140.79 318.305C1122.84 327.538 1108.85 340.717 1098.87 357.768C1088.89 374.893 1083.9 394.476 1083.9 416.516V573.996C1083.9 596.409 1088.89 616.14 1098.87 633.191C1108.85 650.317 1122.84 663.57 1140.79 673.027ZM1691.93 678.611C1692.98 681.068 1695.14 682.334 1698.34 682.334H1707.94C1710.77 682.334 1712.19 681.068 1712.19 678.611C1712.19 677.494 1712.04 676.675 1711.67 675.931L1628.42 504.08C1627.68 502.963 1628.2 502.069 1629.98 501.399C1653.81 497.453 1672.8 486.954 1686.87 469.903C1700.94 452.777 1707.94 431.631 1707.94 406.389C1707.94 376.829 1698.93 353.003 1680.99 334.835C1663.04 316.667 1639.44 307.583 1610.25 307.583H1479.5C1475.93 307.583 1474.14 309.37 1474.14 312.944V676.973C1474.14 680.547 1475.93 682.334 1479.5 682.334H1489.63C1493.2 682.334 1494.92 680.547 1494.92 676.973V505.122C1494.92 503.707 1495.66 502.963 1497.07 502.963H1605.41C1606.53 502.963 1607.2 503.484 1607.57 504.601L1691.93 678.611ZM1494.92 328.952C1494.92 327.538 1495.66 326.793 1497.07 326.793H1609.73C1632.81 326.793 1651.5 334.09 1665.8 348.684C1680.02 363.278 1687.09 382.488 1687.09 406.389C1687.09 429.472 1680.02 448.384 1665.8 462.978C1651.5 477.498 1632.81 484.795 1609.73 484.795H1497.07C1495.66 484.795 1494.92 484.125 1494.92 482.71V328.952ZM2082.69 327.389C2086.19 327.389 2087.98 325.602 2087.98 322.028V313.986C2087.98 310.486 2086.19 308.699 2082.69 308.699H1859.02C1855.45 308.699 1853.66 310.486 1853.66 313.986V676.973C1853.66 680.547 1855.45 682.334 1859.02 682.334H2082.69C2086.19 682.334 2087.98 680.547 2087.98 676.973V669.006C2087.98 665.432 2086.19 663.645 2082.69 663.645H1876.59C1875.18 663.645 1874.51 662.975 1874.51 661.486V506.686C1874.51 505.271 1875.18 504.601 1876.59 504.601H2023.95C2027.52 504.601 2029.31 502.814 2029.31 499.24V490.677C2029.31 487.177 2027.52 485.39 2023.95 485.39H1876.59C1875.18 485.39 1874.51 484.646 1874.51 483.231V329.473C1874.51 328.059 1875.18 327.389 1876.59 327.389H2082.69ZM2235.33 676.973C2235.33 680.547 2237.12 682.334 2240.7 682.334H2362.88C2395.64 682.334 2421.63 673.548 2440.84 655.901C2460.05 638.329 2469.66 614.204 2469.66 583.602V407.432C2469.66 376.829 2460.05 352.705 2440.84 335.132C2421.63 317.486 2395.64 308.699 2362.88 308.699H2240.7C2237.12 308.699 2235.33 310.486 2235.33 313.986V676.973ZM2258.27 663.645C2256.85 663.645 2256.11 662.975 2256.11 661.486V329.473C2256.11 328.059 2256.85 327.389 2258.27 327.389H2364C2390.28 327.389 2411.06 334.686 2426.17 349.28C2441.29 363.873 2448.81 383.754 2448.81 408.996V582.485C2448.81 607.428 2441.29 627.16 2426.17 641.754C2411.06 656.348 2390.28 663.645 2364 663.645H2258.27ZM2847.61 327.389C2851.18 327.389 2852.9 325.602 2852.9 322.028V313.986C2852.9 310.486 2851.18 308.699 2847.61 308.699H2623.94C2620.36 308.699 2618.57 310.486 2618.57 313.986V676.973C2618.57 680.547 2620.36 682.334 2623.94 682.334H2847.61C2851.18 682.334 2852.9 680.547 2852.9 676.973V669.006C2852.9 665.432 2851.18 663.645 2847.61 663.645H2641.51C2640.09 663.645 2639.42 662.975 2639.42 661.486V506.686C2639.42 505.271 2640.09 504.601 2641.51 504.601H2788.86C2792.44 504.601 2794.22 502.814 2794.22 499.24V490.677C2794.22 487.177 2792.44 485.39 2788.86 485.39H2641.51C2640.09 485.39 2639.42 484.646 2639.42 483.231V329.473C2639.42 328.059 2640.09 327.389 2641.51 327.389H2847.61ZM3172.1 489.113C3172.1 488.741 3172.7 488.369 3173.74 487.996C3191.91 480.551 3205.83 469.68 3215.66 455.458C3225.41 441.236 3230.33 424.185 3230.33 404.23C3230.33 375.042 3220.87 351.811 3202.03 334.537C3183.2 317.337 3157.88 308.699 3126.23 308.699H3005.61C3002.04 308.699 3000.25 310.486 3000.25 313.986V676.973C3000.25 680.547 3002.04 682.334 3005.61 682.334H3129.96C3161.3 682.334 3186.55 673.325 3205.76 655.38C3224.97 637.435 3234.57 613.087 3234.57 582.485C3234.57 560.073 3229.29 540.937 3218.56 525.151C3207.92 509.292 3192.95 497.676 3173.74 490.156C3172.7 489.783 3172.1 489.486 3172.1 489.113ZM3021.1 329.473C3021.1 328.059 3021.77 327.389 3023.18 327.389H3126.23C3151.48 327.389 3171.8 334.462 3187.07 348.684C3202.41 362.98 3210 381.818 3210 405.273C3210 427.685 3202.41 445.778 3187.07 459.479C3171.8 473.179 3151.48 480.029 3126.23 480.029H3023.18C3021.77 480.029 3021.1 479.285 3021.1 477.87V329.473ZM3190.57 640.414C3175.08 655.529 3154.9 663.124 3129.96 663.124H3023.18C3021.77 663.124 3021.1 662.379 3021.1 660.964V500.878C3021.1 499.389 3021.77 498.719 3023.18 498.719H3126.76C3153.11 498.719 3174.19 506.164 3190.05 521.131C3205.83 536.097 3213.8 556.201 3213.8 581.442C3213.8 605.641 3206.05 625.299 3190.57 640.414ZM3389.89 676.973C3389.89 680.547 3391.68 682.334 3395.25 682.334H3606.64C3610.22 682.334 3612 680.547 3612 676.973V669.006C3612 665.432 3610.22 663.645 3606.64 663.645H3412.9C3411.49 663.645 3410.74 662.975 3410.74 661.486V313.986C3410.74 310.486 3408.96 308.699 3405.38 308.699H3395.25C3391.68 308.699 3389.89 310.486 3389.89 313.986V676.973Z" fill="#2289F7" stroke="black" stroke-width="40.0346"/>
</svg>
