<svg width="3728" height="990" viewBox="0 0 3728 990" fill="none" xmlns="http://www.w3.org/2000/svg">
<path d="M990 495C990 768.381 768.381 990 495 990C221.619 990 0 768.381 0 495C0 221.619 221.619 0 495 0C768.381 0 990 221.619 990 495ZM70.7336 495C70.7336 729.316 260.684 919.266 495 919.266C729.316 919.266 919.266 729.316 919.266 495C919.266 260.684 729.316 70.7336 495 70.7336C260.684 70.7336 70.7336 260.684 70.7336 495Z" fill="#25AFE1"/>
<path d="M713.668 246.476C705.751 237.48 694.586 231.995 682.627 231.226C670.667 230.457 658.892 234.468 649.888 242.377C612.42 275.459 546.907 375.631 505.728 483.955C496.215 508.988 487.872 534.666 481.275 560.368C450.141 511.928 424.11 482.843 392.749 447.742C371.171 423.617 346.855 396.409 315.536 356.204C311.91 351.51 307.394 347.576 302.247 344.628C297.1 341.679 291.422 339.774 285.539 339.021C279.655 338.268 273.68 338.682 267.957 340.239C262.233 341.796 256.872 344.465 252.181 348.095C242.705 355.428 236.53 366.224 235.012 378.109C233.495 389.995 236.76 401.996 244.089 411.474C276.717 453.371 302.467 482.168 325.306 507.727C372.772 560.792 406.739 598.816 471.977 729.202C479.739 748.444 500.069 760.444 521.385 756.888C533.223 754.912 543.792 748.316 550.77 738.551C557.748 728.785 560.562 716.649 558.596 704.809C549.626 650.925 565.277 581.898 590.298 516.087C626.541 420.791 680.21 336.161 709.563 310.232C718.561 302.322 724.049 291.161 724.819 279.205C725.589 267.248 721.578 255.475 713.668 246.476Z" fill="#1F4EAD"/>
<path d="M417.511 184.358C404.554 187.535 408.078 203.483 418.729 198.19C418.919 198.19 480.577 177.47 520.986 241.678C525.951 249.567 532.587 239.358 529.895 233.755C521.387 216.044 484.687 167.879 417.509 184.356L417.511 184.358ZM388.21 317.161C380.567 268.054 401.143 235.503 426.744 228.904C487.68 213.196 517.828 288.316 517.828 327.832C517.828 366.39 490.312 383.369 470.699 381.648C437.745 378.754 422.229 344.284 417.441 317.446C416.271 310.905 407.191 260.561 447.882 260.257C475.593 260.053 491.172 308.013 489.354 326.494C488.165 338.57 482.498 351.183 469.673 350.057C452.575 348.557 446.303 323.982 445.44 314.272C445.25 312.731 441.75 293.688 451.061 295.299C457.483 296.411 459.054 308.365 459.274 309.147C460.169 312.014 460.777 315.617 461.146 318.946C461.537 321.768 460.899 325.007 462.033 328.149C463.145 331.798 466.341 333.852 469.109 334.096C471.371 334.294 475.691 331.98 475.837 328.442C476.13 309.624 468.251 276.139 446.048 278.109C433.562 279.216 426.977 293.508 430.534 316.553C433.999 338.996 445.684 363.672 468.783 365.698C494.178 367.928 504.406 344.772 504.406 327.324C504.406 277.572 470.758 231.911 430.993 245.579C408.157 253.428 394.298 278.288 402.098 318.832C410.183 360.864 435.051 399.43 471.133 398.385C537.191 396.47 532.603 326.109 532.603 326.109C532.603 261.456 480.219 186.654 413.04 215.781C385.345 227.792 363.684 268.288 371.861 317.696C392.605 443.032 483.184 428.634 487.414 427.983L487.731 428.018C502.184 425.926 499.229 409.81 488.654 411.62C428.681 421.889 396.303 369.166 388.21 317.161Z" fill="#1F4EAD"/>
<path d="M1235.79 669.027C1253.73 678.409 1274.66 683.174 1298.48 683.174C1322.01 683.174 1342.71 678.409 1360.66 669.027C1378.68 659.57 1392.6 646.317 1402.58 629.191C1412.55 612.14 1417.54 592.557 1417.54 570.518V567.837C1417.54 566.422 1415.76 565.678 1412.18 565.678L1402.06 565.157C1398.48 565.157 1396.69 566.795 1396.69 569.996V571.039C1396.69 598.812 1387.61 621.299 1369.52 638.573C1351.35 655.848 1327.67 664.485 1298.48 664.485C1268.63 664.485 1244.65 655.848 1226.7 638.573C1208.76 621.299 1199.75 598.812 1199.75 571.039V411.995C1199.75 384.222 1208.76 361.809 1226.7 344.684C1244.65 327.633 1268.63 319.07 1298.48 319.07C1327.67 319.07 1351.35 327.633 1369.52 344.684C1387.61 361.809 1396.69 384.222 1396.69 411.995V415.196C1396.69 417.281 1398.48 418.398 1402.06 418.398L1412.18 417.877C1415.76 417.877 1417.54 416.09 1417.54 412.516V411.995C1417.54 389.88 1412.55 370.447 1402.58 353.544C1392.6 336.642 1378.68 323.538 1360.66 314.305C1342.71 304.997 1322.01 300.381 1298.48 300.381C1274.66 300.381 1253.73 304.997 1235.79 314.305C1217.84 323.538 1203.85 336.717 1193.87 353.768C1183.89 370.893 1178.9 390.476 1178.9 412.516V569.996C1178.9 592.409 1183.89 612.14 1193.87 629.191C1203.85 646.317 1217.84 659.57 1235.79 669.027ZM1786.93 674.611C1787.98 677.068 1790.14 678.334 1793.34 678.334H1802.94C1805.77 678.334 1807.19 677.068 1807.19 674.611C1807.19 673.494 1807.04 672.675 1806.67 671.931L1723.42 500.08C1722.68 498.963 1723.2 498.069 1724.98 497.399C1748.81 493.453 1767.8 482.954 1781.87 465.903C1795.94 448.777 1802.94 427.631 1802.94 402.389C1802.94 372.829 1793.93 349.003 1775.99 330.835C1758.04 312.667 1734.44 303.583 1705.25 303.583H1574.5C1570.93 303.583 1569.14 305.37 1569.14 308.944V672.973C1569.14 676.547 1570.93 678.334 1574.5 678.334H1584.63C1588.2 678.334 1589.92 676.547 1589.92 672.973V501.122C1589.92 499.707 1590.66 498.963 1592.07 498.963H1700.41C1701.53 498.963 1702.2 499.484 1702.57 500.601L1786.93 674.611ZM1589.92 324.952C1589.92 323.538 1590.66 322.793 1592.07 322.793H1704.73C1727.81 322.793 1746.5 330.09 1760.8 344.684C1775.02 359.278 1782.09 378.488 1782.09 402.389C1782.09 425.472 1775.02 444.384 1760.8 458.978C1746.5 473.498 1727.81 480.795 1704.73 480.795H1592.07C1590.66 480.795 1589.92 480.125 1589.92 478.71V324.952ZM2177.69 323.389C2181.19 323.389 2182.98 321.602 2182.98 318.028V309.986C2182.98 306.486 2181.19 304.699 2177.69 304.699H1954.02C1950.45 304.699 1948.66 306.486 1948.66 309.986V672.973C1948.66 676.547 1950.45 678.334 1954.02 678.334H2177.69C2181.19 678.334 2182.98 676.547 2182.98 672.973V665.006C2182.98 661.432 2181.19 659.645 2177.69 659.645H1971.59C1970.18 659.645 1969.51 658.975 1969.51 657.486V502.686C1969.51 501.271 1970.18 500.601 1971.59 500.601H2118.95C2122.52 500.601 2124.31 498.814 2124.31 495.24V486.677C2124.31 483.177 2122.52 481.39 2118.95 481.39H1971.59C1970.18 481.39 1969.51 480.646 1969.51 479.231V325.473C1969.51 324.059 1970.18 323.389 1971.59 323.389H2177.69ZM2330.33 672.973C2330.33 676.547 2332.12 678.334 2335.7 678.334H2457.88C2490.64 678.334 2516.63 669.548 2535.84 651.901C2555.05 634.329 2564.66 610.204 2564.66 579.602V403.432C2564.66 372.829 2555.05 348.705 2535.84 331.132C2516.63 313.486 2490.64 304.699 2457.88 304.699H2335.7C2332.12 304.699 2330.33 306.486 2330.33 309.986V672.973ZM2353.27 659.645C2351.85 659.645 2351.11 658.975 2351.11 657.486V325.473C2351.11 324.059 2351.85 323.389 2353.27 323.389H2459C2485.28 323.389 2506.06 330.686 2521.17 345.28C2536.29 359.873 2543.81 379.754 2543.81 404.996V578.485C2543.81 603.428 2536.29 623.16 2521.17 637.754C2506.06 652.348 2485.28 659.645 2459 659.645H2353.27ZM2942.61 323.389C2946.18 323.389 2947.9 321.602 2947.9 318.028V309.986C2947.9 306.486 2946.18 304.699 2942.61 304.699H2718.94C2715.36 304.699 2713.57 306.486 2713.57 309.986V672.973C2713.57 676.547 2715.36 678.334 2718.94 678.334H2942.61C2946.18 678.334 2947.9 676.547 2947.9 672.973V665.006C2947.9 661.432 2946.18 659.645 2942.61 659.645H2736.51C2735.09 659.645 2734.42 658.975 2734.42 657.486V502.686C2734.42 501.271 2735.09 500.601 2736.51 500.601H2883.86C2887.44 500.601 2889.22 498.814 2889.22 495.24V486.677C2889.22 483.177 2887.44 481.39 2883.86 481.39H2736.51C2735.09 481.39 2734.42 480.646 2734.42 479.231V325.473C2734.42 324.059 2735.09 323.389 2736.51 323.389H2942.61ZM3267.1 485.113C3267.1 484.741 3267.7 484.369 3268.74 483.996C3286.91 476.551 3300.83 465.68 3310.66 451.458C3320.41 437.236 3325.33 420.185 3325.33 400.23C3325.33 371.042 3315.87 347.811 3297.03 330.537C3278.2 313.337 3252.88 304.699 3221.23 304.699H3100.61C3097.04 304.699 3095.25 306.486 3095.25 309.986V672.973C3095.25 676.547 3097.04 678.334 3100.61 678.334H3224.96C3256.3 678.334 3281.55 669.325 3300.76 651.38C3319.97 633.435 3329.57 609.087 3329.57 578.485C3329.57 556.073 3324.29 536.937 3313.56 521.151C3302.92 505.292 3287.95 493.676 3268.74 486.156C3267.7 485.783 3267.1 485.486 3267.1 485.113ZM3116.1 325.473C3116.1 324.059 3116.77 323.389 3118.18 323.389H3221.23C3246.48 323.389 3266.8 330.462 3282.07 344.684C3297.41 358.98 3305 377.818 3305 401.273C3305 423.685 3297.41 441.778 3282.07 455.479C3266.8 469.179 3246.48 476.029 3221.23 476.029H3118.18C3116.77 476.029 3116.1 475.285 3116.1 473.87V325.473ZM3285.57 636.414C3270.08 651.529 3249.9 659.124 3224.96 659.124H3118.18C3116.77 659.124 3116.1 658.379 3116.1 656.964V496.878C3116.1 495.389 3116.77 494.719 3118.18 494.719H3221.76C3248.11 494.719 3269.19 502.164 3285.05 517.131C3300.83 532.097 3308.8 552.201 3308.8 577.442C3308.8 601.641 3301.05 621.299 3285.57 636.414ZM3484.89 672.973C3484.89 676.547 3486.68 678.334 3490.25 678.334H3701.64C3705.22 678.334 3707 676.547 3707 672.973V665.006C3707 661.432 3705.22 659.645 3701.64 659.645H3507.9C3506.49 659.645 3505.74 658.975 3505.74 657.486V309.986C3505.74 306.486 3503.96 304.699 3500.38 304.699H3490.25C3486.68 304.699 3484.89 306.486 3484.89 309.986V672.973Z" fill="#2289F7" stroke="black" stroke-width="40.0346"/>
<path d="M842.325 193.955C857.085 181.162 858.765 158.724 844.951 144.915C782.001 81.9881 703.07 37.035 616.356 15.1066C518.183 -9.71952 414.758 -3.83916 320.032 31.9545C225.305 67.7482 143.836 131.733 86.6123 215.278C29.3889 298.823 -0.835025 397.908 0.0175444 499.168C0.870113 600.427 32.7582 698.99 91.3802 781.559C150.002 864.128 232.538 926.732 327.853 960.926C423.169 995.12 526.679 999.258 624.42 972.782C710.752 949.397 788.915 903.121 850.796 839.143C864.376 825.103 862.318 802.696 847.345 790.154C832.372 777.611 810.165 779.701 796.419 793.578C743.952 846.545 678.287 884.908 605.926 904.509C522.152 927.201 433.433 923.654 351.738 894.347C270.043 865.039 199.301 811.381 149.056 740.611C98.8108 669.84 71.4794 585.362 70.7486 498.572C70.0179 411.782 95.923 326.856 144.969 255.249C194.016 183.642 263.844 128.801 345.034 98.1219C426.224 67.4431 514.871 62.403 599.015 83.6816C671.696 102.061 737.998 139.313 791.349 191.389C805.326 205.032 827.565 206.749 842.325 193.955Z" fill="#1F4EAD"/>
</svg>
