<svg width="285" height="110" viewBox="0 0 285 110" fill="none" xmlns="http://www.w3.org/2000/svg">
<g clip-path="url(#clip0_4009_6051)">
<rect x="284.602" y="109.602" width="284.6" height="109.6" rx="8" transform="rotate(-180 284.602 109.602)" fill="url(#paint0_linear_4009_6051)"/>
<path d="M207.705 31.3231C206.827 31.4707 204.945 32.0822 203.565 32.6516C198.547 34.697 194.984 38.3871 193.478 43.0262C192.801 45.0927 192.851 48.9726 193.579 51.0813C195.686 57.3229 201.482 61.6667 209.11 62.7632C211.167 63.0585 211.945 63.0585 214.003 62.8687C218.569 62.4048 222.308 60.9076 225.494 58.1875C228.254 55.8679 229.86 53.3375 230.688 50.1113C231.265 47.8128 231.014 44.2281 230.161 42.0562C228.003 36.6791 223.01 32.7781 216.612 31.4075C214.253 30.9014 210.164 30.8592 207.705 31.3231Z" fill="url(#paint1_linear_4009_6051)"/>
<path d="M202.461 68.8598C199.326 69.2206 196.621 69.7532 193.517 70.6124C189.829 71.6433 187.278 72.6742 184.266 74.3752C178.58 77.5711 175.076 81.7464 174.307 86.2653C174.154 87.279 174 92.4852 174 97.846V107.605H193.056H212.112V100.08C212.112 93.5505 212.173 92.5196 212.603 92.1759C213.064 91.7979 213.095 91.7979 222.838 91.7979C231.905 91.7979 232.643 91.8151 233.104 92.1072C233.411 92.279 233.626 92.5711 233.626 92.7257C233.626 93.0178 233.841 93.035 235.685 92.9148C240.296 92.6398 243.615 91.6948 244.722 90.3718C245.582 89.2893 245.49 87.3649 244.384 84.3237C243.308 81.3684 243.246 80.4749 244.045 79.4783C244.814 78.5677 246.474 78.0522 248.686 78.0522H250.254L248.932 76.9697C245.582 74.255 239.281 71.3684 233.872 70.1141C228.186 68.7739 227.356 68.7223 215.339 68.6708C207.071 68.6364 204.09 68.6708 202.461 68.8598Z" fill="url(#paint2_linear_4009_6051)"/>
<path d="M247.001 82.3337C246.758 82.6331 246.866 83.157 247.595 85.1477C248.785 88.4706 248.812 90.1919 247.731 91.539C246.055 93.5746 242.73 94.6074 236.757 94.9816L235 95.0863V102.346V109.605L238.081 110.174C245.893 111.611 249.704 111.985 256.758 112C262.678 112 264.867 111.85 269.381 111.087C272.273 110.608 274.165 109.695 275.543 108.123C276.868 106.597 277.084 105.609 276.976 101.732C276.895 97.9452 276.706 97.5411 274.732 96.4334C272.678 95.3109 272.03 95.236 265.137 95.2809C260.11 95.3258 258.975 95.2959 258.515 95.1013C258.002 94.8918 257.975 94.6672 257.839 90.4164C257.677 85.2974 257.623 85.1776 255.136 83.7257C253.515 82.7678 251.325 82.1841 248.974 82.0493C247.379 81.9595 247.298 81.9595 247.001 82.3337Z" fill="url(#paint3_linear_4009_6051)"/>
<path d="M216 103V112H223H230V103V94H223H216V103Z" fill="url(#paint4_linear_4009_6051)"/>
</g>
<defs>
<linearGradient id="paint0_linear_4009_6051" x1="177.301" y1="76.9633" x2="605.298" y2="261.98" gradientUnits="userSpaceOnUse">
<stop offset="0.1875" stop-color="white"/>
<stop offset="0.348958" stop-color="#40F783"/>
<stop offset="0.729167" stop-color="#22C55E"/>
</linearGradient>
<linearGradient id="paint1_linear_4009_6051" x1="212.226" y1="102.218" x2="212.871" y2="0.564982" gradientUnits="userSpaceOnUse">
<stop offset="0.299087" stop-color="white"/>
<stop offset="0.723889" stop-color="#22C55E"/>
</linearGradient>
<linearGradient id="paint2_linear_4009_6051" x1="212.58" y1="155.337" x2="213.056" y2="31.6141" gradientUnits="userSpaceOnUse">
<stop offset="0.299087" stop-color="white"/>
<stop offset="0.723889" stop-color="#22C55E"/>
</linearGradient>
<linearGradient id="paint3_linear_4009_6051" x1="256.25" y1="148.767" x2="256.763" y2="53.4661" gradientUnits="userSpaceOnUse">
<stop offset="0.299087" stop-color="white"/>
<stop offset="0.723889" stop-color="#22C55E"/>
</linearGradient>
<linearGradient id="paint4_linear_4009_6051" x1="223.083" y1="134.06" x2="223.637" y2="76.8834" gradientUnits="userSpaceOnUse">
<stop offset="0.299087" stop-color="white"/>
<stop offset="0.723889" stop-color="#22C55E"/>
</linearGradient>
<clipPath id="clip0_4009_6051">
<rect x="284.602" y="109.602" width="284.6" height="109.6" rx="8" transform="rotate(-180 284.602 109.602)" fill="white"/>
</clipPath>
</defs>
</svg>
