<svg width="16" height="16" viewBox="0 0 16 16" fill="none" xmlns="http://www.w3.org/2000/svg">
<path d="M16 8C16 12.4183 12.4183 16 8 16C3.58172 16 0 12.4183 0 8C0 3.58172 3.58172 0 8 0C12.4183 0 16 3.58172 16 8ZM1.14318 8C1.14318 11.7869 4.21308 14.8569 8 14.8569C11.7869 14.8569 14.8569 11.7869 14.8569 8C14.8569 4.21308 11.7869 1.14316 8 1.14316C4.21308 1.14316 1.14318 4.21308 1.14318 8Z" fill="#25AFE1"/>
<path d="M13.6497 12.847C13.5967 12.7938 13.5338 12.7517 13.4645 12.7228C13.3951 12.694 13.3209 12.6792 13.2458 12.6792C13.1708 12.6792 13.0966 12.694 13.0273 12.7228C12.958 12.7517 12.8951 12.7938 12.842 12.847C11.5509 14.1417 9.83452 14.8544 8.00877 14.8544C4.23986 14.8544 1.17362 11.7796 1.17362 8C1.17362 4.22047 4.23986 1.14559 8.00877 1.14559C9.81144 1.14559 11.5124 1.84314 12.7983 3.10983C12.907 3.21302 13.0517 3.26932 13.2014 3.2666C13.351 3.26389 13.4937 3.20236 13.5986 3.09528C13.7035 2.98818 13.7623 2.84408 13.7623 2.69396C13.7625 2.54385 13.7037 2.39971 13.5989 2.29256C12.098 0.814177 10.1128 0 8.00877 0C3.60997 0 0.03125 3.58879 0.03125 8C0.03125 12.4111 3.60997 16 8.00877 16C10.1396 16 12.1429 15.1678 13.6497 13.6568C13.7027 13.6037 13.7449 13.5406 13.7736 13.4711C13.8024 13.4016 13.8171 13.327 13.8171 13.2518C13.8171 13.1766 13.8024 13.1023 13.7736 13.0328C13.7449 12.9633 13.7027 12.9001 13.6497 12.847Z" fill="#1F4EAD"/>
<path d="M11.5347 4.01146C11.4068 3.86503 11.2263 3.77575 11.033 3.76324C10.8397 3.75072 10.6494 3.81601 10.5039 3.94474C9.89837 4.4832 8.83958 6.11367 8.17406 7.87683C8.02031 8.28429 7.88548 8.70224 7.77886 9.12058C7.27568 8.33214 6.85498 7.85873 6.34813 7.2874C5.9994 6.89473 5.60641 6.45187 5.10025 5.79747C5.04165 5.72106 4.96866 5.65703 4.88548 5.60905C4.80229 5.56105 4.71053 5.53004 4.61545 5.51778C4.52035 5.50553 4.42379 5.51227 4.33129 5.53761C4.23878 5.56295 4.15214 5.60639 4.07633 5.66548C3.92318 5.78484 3.82338 5.96056 3.79885 6.15401C3.77433 6.34747 3.8271 6.54281 3.94555 6.69708C4.47287 7.37902 4.88903 7.84775 5.25815 8.26376C6.02527 9.12748 6.57424 9.74639 7.62859 11.8686C7.75403 12.1818 8.0826 12.3771 8.4271 12.3193C8.61842 12.2871 8.78923 12.1798 8.90201 12.0208C9.01479 11.8619 9.06026 11.6643 9.02849 11.4716C8.88352 10.5946 9.13647 9.47102 9.54085 8.39983C10.1266 6.84873 10.994 5.47123 11.4684 5.04919C11.6138 4.92044 11.7025 4.73878 11.7149 4.54418C11.7274 4.34956 11.6625 4.15793 11.5347 4.01146Z" fill="#1F4EAD"/>
<path d="M6.74649 3.00038C6.53708 3.05209 6.59404 3.31167 6.76617 3.22552C6.76925 3.22552 7.76574 2.88826 8.41881 3.93336C8.49906 4.06177 8.6063 3.8956 8.5628 3.8044C8.42529 3.51612 7.83216 2.73216 6.74646 3.00035L6.74649 3.00038ZM6.27294 5.16197C6.14942 4.36267 6.48196 3.83285 6.89571 3.72544C7.88053 3.46977 8.36777 4.69247 8.36777 5.33566C8.36777 5.96326 7.92307 6.23962 7.60609 6.21161C7.0735 6.16451 6.82274 5.60345 6.74536 5.16661C6.72645 5.06015 6.5797 4.24071 7.23733 4.23577C7.68519 4.23244 7.93697 5.01308 7.90759 5.31389C7.88837 5.51044 7.79678 5.71574 7.58951 5.69741C7.31318 5.673 7.21181 5.273 7.19787 5.11495C7.1948 5.08987 7.13823 4.77991 7.28871 4.80613C7.3925 4.82423 7.41789 5.0188 7.42145 5.03153C7.43591 5.0782 7.44574 5.13684 7.4517 5.19103C7.45802 5.23696 7.44771 5.28968 7.46604 5.34082C7.48401 5.40022 7.53566 5.43365 7.5804 5.43762C7.61695 5.44084 7.68677 5.40318 7.68913 5.34559C7.69387 5.0393 7.56653 4.49427 7.20769 4.52634C7.0059 4.54436 6.89948 4.77698 6.95696 5.15208C7.01296 5.51738 7.20181 5.91902 7.57513 5.952C7.98555 5.98829 8.15085 5.61139 8.15085 5.32739C8.15085 4.5176 7.60705 3.77439 6.96438 3.99686C6.59531 4.12461 6.37133 4.52925 6.49739 5.18917C6.62806 5.87331 7.02996 6.50104 7.61311 6.48403C8.68071 6.45286 8.60656 5.30762 8.60656 5.30762C8.60656 4.25528 7.75995 3.03775 6.67423 3.51184C6.22663 3.70734 5.87656 4.36648 6.00871 5.17068C6.34397 7.21074 7.80787 6.97639 7.87623 6.96579L7.88136 6.96636C8.11494 6.93231 8.06718 6.66999 7.89628 6.69946C6.92701 6.8666 6.40373 6.00844 6.27294 5.16197Z" fill="#1F4EAD"/>
</svg>
