<svg width="285" height="110" viewBox="0 0 285 110" fill="none" xmlns="http://www.w3.org/2000/svg">
<g clip-path="url(#clip0_3915_9698)">
<rect x="284.602" y="109.605" width="284.6" height="109.6" rx="8" transform="rotate(-180 284.602 109.605)" fill="url(#paint0_linear_3915_9698)"/>
<path d="M280.641 62.1875V75.4002L291.415 69.1668L280.641 62.1875Z" fill="url(#paint1_linear_3915_9698)"/>
<path d="M235.187 32.8553C231.39 30.4046 225.883 30.378 222.086 32.8287L217.742 35.7057H239.599L235.187 32.8553Z" fill="url(#paint2_linear_3915_9698)"/>
<path d="M238.84 106.236C235.898 107.941 232.341 108.873 228.681 108.846C225.021 108.846 221.43 107.941 218.488 106.236L164 74.5625V128.879C163.966 133.274 168.515 136.87 174.159 136.897H283.101C288.745 136.87 293.294 133.274 293.26 128.879V74.5625L238.84 106.236Z" fill="url(#paint3_linear_3915_9698)"/>
<path d="M165.875 69.1731L176.307 75.2201V62.4336L165.875 69.1731Z" fill="url(#paint4_linear_3915_9698)"/>
<path d="M183.156 41.0312V79.1777L222.492 101.98C226.152 104.058 231.18 104.058 234.84 101.98L273.799 79.3641V41.0312H183.156ZM207.442 62.3421H225.912C227.793 62.3421 229.333 63.5408 229.333 65.0059C229.333 66.4711 227.793 67.6698 225.912 67.6698H207.442C205.56 67.6698 204.021 66.4711 204.021 65.0059C204.021 63.5408 205.56 62.3421 207.442 62.3421ZM249.855 80.9891H207.442C205.56 80.9891 204.021 79.7903 204.021 78.3252C204.021 76.8601 205.56 75.6614 207.442 75.6614H249.855C251.737 75.6614 253.276 76.8601 253.276 78.3252C253.276 79.7903 251.737 80.9891 249.855 80.9891Z" fill="url(#paint5_linear_3915_9698)"/>
</g>
<defs>
<linearGradient id="paint0_linear_3915_9698" x1="177.301" y1="76.9672" x2="605.298" y2="261.984" gradientUnits="userSpaceOnUse">
<stop offset="0.135417" stop-color="white"/>
<stop offset="0.385417" stop-color="#40F783"/>
<stop offset="0.630208" stop-color="#22C55E"/>
</linearGradient>
<linearGradient id="paint1_linear_3915_9698" x1="286.092" y1="45.9944" x2="286.48" y2="87.9649" gradientUnits="userSpaceOnUse">
<stop offset="0.299087" stop-color="white"/>
<stop offset="0.723889" stop-color="#22C55E"/>
</linearGradient>
<linearGradient id="paint2_linear_3915_9698" x1="228.8" y1="25.2416" x2="228.825" y2="40.178" gradientUnits="userSpaceOnUse">
<stop offset="0.299087" stop-color="white"/>
<stop offset="0.723889" stop-color="#22C55E"/>
</linearGradient>
<linearGradient id="paint3_linear_3915_9698" x1="229.398" y1="-1.83218" x2="230.118" y2="196.188" gradientUnits="userSpaceOnUse">
<stop offset="0.299087" stop-color="white"/>
<stop offset="0.723889" stop-color="#22C55E"/>
</linearGradient>
<linearGradient id="paint4_linear_3915_9698" x1="171.153" y1="46.7629" x2="171.528" y2="87.3794" gradientUnits="userSpaceOnUse">
<stop offset="0.299087" stop-color="white"/>
<stop offset="0.723889" stop-color="#22C55E"/>
</linearGradient>
<linearGradient id="paint5_linear_3915_9698" x1="229.016" y1="-35.5756" x2="230.048" y2="162.992" gradientUnits="userSpaceOnUse">
<stop offset="0.299087" stop-color="white"/>
<stop offset="0.723889" stop-color="#22C55E"/>
</linearGradient>
<clipPath id="clip0_3915_9698">
<rect width="284.6" height="109.6" fill="white" transform="matrix(-1 0 0 -1 284.602 109.605)"/>
</clipPath>
</defs>
</svg>
