<svg width="285" height="110" viewBox="0 0 285 110" fill="none" xmlns="http://www.w3.org/2000/svg">
<g clip-path="url(#clip0_3877_13406)">
<rect width="284.6" height="109.6" rx="8" fill="url(#paint0_linear_3877_13406)"/>
<path fill-rule="evenodd" clip-rule="evenodd" d="M165.783 97.1901C164.633 98.8777 163.996 100.834 164 102.87C164 106.858 166.451 110.539 170.409 112.495C182.225 118.334 199.751 126.995 212.062 133.079C222.352 138.16 234.912 138.16 245.203 133.079C257.513 126.995 275.035 118.337 286.851 112.499C290.809 110.543 293.26 106.861 293.26 102.87C293.26 100.834 292.622 98.8815 291.472 97.1939C290.37 98.8134 288.789 100.187 286.851 101.148C275.035 106.986 257.513 115.643 245.203 121.728C234.912 126.809 222.352 126.809 212.062 121.728C199.751 115.643 182.225 106.982 170.409 101.144C168.467 100.183 166.89 98.8133 165.783 97.1901ZM165.783 78.2715C164.633 79.959 163.996 81.9152 164 83.9509C164 87.9389 166.451 91.6205 170.409 93.5767C182.225 99.415 199.751 108.076 212.062 114.16C222.352 119.242 234.912 119.242 245.203 114.16C257.513 108.076 275.035 99.4188 286.851 93.5805C290.809 91.6243 293.26 87.9427 293.26 83.9509C293.26 81.9152 292.622 79.9628 291.472 78.2753C290.37 79.8947 288.789 81.2683 286.851 82.2293C275.035 88.0676 257.513 96.7248 245.203 102.809C234.912 107.891 222.352 107.891 212.062 102.809C199.751 96.7248 182.225 88.0638 170.409 82.2255C168.467 81.2645 166.89 79.8947 165.783 78.2715ZM245.172 34.8116C234.882 29.7263 222.313 29.7301 212.027 34.8192C199.721 40.9035 182.212 49.5643 170.405 55.4026C166.447 57.3588 163.996 61.0404 164 65.0322C164 69.0203 166.451 72.7019 170.409 74.6581C182.225 80.4964 199.751 89.1573 212.062 95.2416C222.352 100.323 234.912 100.323 245.203 95.2416C257.513 89.1573 275.035 80.5002 286.851 74.6619C290.809 72.7057 293.26 69.0241 293.26 65.0322C293.26 61.0404 290.809 57.3588 286.851 55.4026L245.172 34.8116Z" fill="url(#paint1_linear_3877_13406)"/>
</g>
<defs>
<linearGradient id="paint0_linear_3877_13406" x1="-107.301" y1="-32.6382" x2="320.697" y2="152.379" gradientUnits="userSpaceOnUse">
<stop stop-color="white"/>
<stop offset="0.380208" stop-color="#5AC2E8"/>
<stop offset="0.746886" stop-color="#0054FF"/>
</linearGradient>
<linearGradient id="paint1_linear_3877_13406" x1="236.665" y1="-144.445" x2="228.359" y2="256.276" gradientUnits="userSpaceOnUse">
<stop offset="0.0143622" stop-color="white"/>
<stop offset="0.720022" stop-color="#25AFE1"/>
</linearGradient>
<clipPath id="clip0_3877_13406">
<rect width="284.6" height="109.6" fill="white"/>
</clipPath>
</defs>
</svg>
