<svg width="285" height="110" viewBox="0 0 285 110" fill="none" xmlns="http://www.w3.org/2000/svg">
<g clip-path="url(#clip0_3915_9719)">
<rect x="284.602" y="109.605" width="284.6" height="109.6" rx="8" transform="rotate(-180 284.602 109.605)" fill="url(#paint0_linear_3915_9719)"/>
<path fill-rule="evenodd" clip-rule="evenodd" d="M165.783 97.194C164.633 98.8816 163.996 100.838 164 102.873C164 106.861 166.451 110.543 170.409 112.499C182.225 118.338 199.751 126.999 212.062 133.083C222.352 138.164 234.912 138.164 245.203 133.083C257.513 126.999 275.035 118.341 286.851 112.503C290.809 110.547 293.26 106.865 293.26 102.873C293.26 100.838 292.622 98.8854 291.472 97.1978C290.37 98.8173 288.789 100.191 286.851 101.152C275.035 106.99 257.513 115.647 245.203 121.732C234.912 126.813 222.352 126.813 212.062 121.732C199.751 115.647 182.225 106.986 170.409 101.148C168.467 100.187 166.89 98.8172 165.783 97.194ZM165.783 78.2754C164.633 79.9629 163.996 81.9191 164 83.9548C164 87.9428 166.451 91.6244 170.409 93.5806C182.225 99.4189 199.751 108.08 212.062 114.164C222.352 119.246 234.912 119.246 245.203 114.164C257.513 108.08 275.035 99.4227 286.851 93.5844C290.809 91.6282 293.26 87.9466 293.26 83.9548C293.26 81.9191 292.622 79.9667 291.472 78.2792C290.37 79.8986 288.789 81.2722 286.851 82.2332C275.035 88.0715 257.513 96.7287 245.203 102.813C234.912 107.894 222.352 107.894 212.062 102.813C199.751 96.7287 182.225 88.0677 170.409 82.2294C168.467 81.2684 166.89 79.8986 165.783 78.2754ZM245.172 34.8155C234.882 29.7302 222.313 29.734 212.027 34.8231C199.721 40.9074 182.212 49.5682 170.405 55.4065C166.447 57.3627 163.996 61.0443 164 65.0361C164 69.0242 166.451 72.7058 170.409 74.662C182.225 80.5003 199.751 89.1612 212.062 95.2455C222.352 100.327 234.912 100.327 245.203 95.2455C257.513 89.1612 275.035 80.5041 286.851 74.6658C290.809 72.7096 293.26 69.028 293.26 65.0361C293.26 61.0443 290.809 57.3627 286.851 55.4065L245.172 34.8155Z" fill="url(#paint1_linear_3915_9719)"/>
</g>
<defs>
<linearGradient id="paint0_linear_3915_9719" x1="177.301" y1="76.9672" x2="605.298" y2="261.984" gradientUnits="userSpaceOnUse">
<stop offset="0.0520833" stop-color="white"/>
<stop offset="0.380208" stop-color="#5AC2E8"/>
<stop offset="0.6875" stop-color="#0054FF"/>
</linearGradient>
<linearGradient id="paint1_linear_3915_9719" x1="225.5" y1="-147.496" x2="220" y2="255.004" gradientUnits="userSpaceOnUse">
<stop offset="0.367021" stop-color="white"/>
<stop offset="0.653734" stop-color="#25AFE1"/>
</linearGradient>
<clipPath id="clip0_3915_9719">
<rect width="284.6" height="109.6" fill="white" transform="matrix(-1 0 0 -1 284.602 109.605)"/>
</clipPath>
</defs>
</svg>
