<svg width="285" height="110" viewBox="0 0 285 110" fill="none" xmlns="http://www.w3.org/2000/svg">
<g clip-path="url(#clip0_3915_9665)">
<rect x="284.602" y="109.602" width="284.6" height="109.6" rx="8" transform="rotate(180 284.602 109.602)" fill="url(#paint0_linear_3915_9665)"/>
<path d="M274.606 89.0742H264.609C265.628 91.7181 266.185 94.5714 266.185 97.5453V133.352C266.185 134.592 265.957 135.782 265.543 136.889H282.07C288.243 136.889 293.265 132.129 293.265 126.278V106.758C293.266 97.0074 284.895 89.0742 274.606 89.0742Z" fill="url(#paint1_linear_3915_9665)"/>
<path d="M191.081 97.5453C191.081 94.5712 191.637 91.7181 192.656 89.0742H182.66C172.371 89.0742 164 97.0074 164 106.759V126.278C164 132.129 169.022 136.889 175.196 136.889H191.723C191.308 135.782 191.081 134.592 191.081 133.352V97.5453Z" fill="url(#paint2_linear_3915_9665)"/>
<path d="M240.044 79.8438H217.191C206.902 79.8438 198.531 87.777 198.531 97.5281V133.335C198.531 135.288 200.202 136.872 202.263 136.872H254.972C257.033 136.872 258.704 135.288 258.704 133.335V97.5281C258.704 87.777 250.333 79.8438 240.044 79.8438Z" fill="url(#paint3_linear_3915_9665)"/>
<path d="M229.081 31.0039C216.707 31.0039 206.641 40.5445 206.641 52.2718C206.641 60.2263 211.273 67.1735 218.114 70.8209C221.359 72.5508 225.1 73.5395 229.081 73.5395C233.062 73.5395 236.803 72.5508 240.048 70.8209C246.889 67.1735 251.522 60.2261 251.522 52.2718C251.522 40.5448 241.455 31.0039 229.081 31.0039Z" fill="url(#paint4_linear_3915_9665)"/>
<path d="M189.212 52.793C179.958 52.793 172.43 59.928 172.43 68.6984C172.43 77.4688 179.958 84.6038 189.212 84.6038C191.56 84.6038 193.795 84.143 195.825 83.3146C199.336 81.8821 202.231 79.3463 204.022 76.17C205.279 73.9408 205.995 71.3976 205.995 68.6984C205.995 59.9282 198.466 52.793 189.212 52.793Z" fill="url(#paint5_linear_3915_9665)"/>
<path d="M268.017 52.793C258.763 52.793 251.234 59.928 251.234 68.6984C251.234 71.3978 251.95 73.941 253.207 76.17C254.998 79.3466 257.893 81.8824 261.404 83.3146C263.434 84.143 265.669 84.6038 268.017 84.6038C277.271 84.6038 284.799 77.4688 284.799 68.6984C284.799 59.928 277.271 52.793 268.017 52.793Z" fill="url(#paint6_linear_3915_9665)"/>
</g>
<defs>
<linearGradient id="paint0_linear_3915_9665" x1="177.301" y1="76.9633" x2="605.298" y2="261.98" gradientUnits="userSpaceOnUse">
<stop offset="0.119792" stop-color="white"/>
<stop offset="0.463542" stop-color="#2F80ED"/>
<stop offset="0.640625" stop-color="#1F4EAD"/>
</linearGradient>
<linearGradient id="paint1_linear_3915_9665" x1="278.646" y1="30.0099" x2="278.646" y2="187.984" gradientUnits="userSpaceOnUse">
<stop offset="0.287143" stop-color="white"/>
<stop offset="0.659769" stop-color="#1F4EAD"/>
</linearGradient>
<linearGradient id="paint2_linear_3915_9665" x1="178.037" y1="30.0096" x2="178.037" y2="187.984" gradientUnits="userSpaceOnUse">
<stop offset="0.287143" stop-color="white"/>
<stop offset="0.659769" stop-color="#1F4EAD"/>
</linearGradient>
<linearGradient id="paint3_linear_3915_9665" x1="228.007" y1="9.39841" x2="228.007" y2="197.812" gradientUnits="userSpaceOnUse">
<stop offset="0.287143" stop-color="white"/>
<stop offset="0.659769" stop-color="#1F4EAD"/>
</linearGradient>
<linearGradient id="paint4_linear_3915_9665" x1="228.625" y1="-21.5394" x2="228.625" y2="118.993" gradientUnits="userSpaceOnUse">
<stop offset="0.287143" stop-color="white"/>
<stop offset="0.659769" stop-color="#1F4EAD"/>
</linearGradient>
<linearGradient id="paint5_linear_3915_9665" x1="188.871" y1="13.4977" x2="188.871" y2="118.597" gradientUnits="userSpaceOnUse">
<stop offset="0.287143" stop-color="white"/>
<stop offset="0.659769" stop-color="#1F4EAD"/>
</linearGradient>
<linearGradient id="paint6_linear_3915_9665" x1="267.676" y1="13.4977" x2="267.676" y2="118.597" gradientUnits="userSpaceOnUse">
<stop offset="0.287143" stop-color="white"/>
<stop offset="0.659769" stop-color="#1F4EAD"/>
</linearGradient>
<clipPath id="clip0_3915_9665">
<rect width="284.6" height="109.6" fill="white"/>
</clipPath>
</defs>
</svg>
